<ttFont>
<head>
    <!-- Most of this table will be recalculated by the compiler -->
    <tableVersion value="1.0"/>
    <fontRevision value="2.004"/>
    <checkSumAdjustment value="0x3f5b418a"/>
    <magicNumber value="0x5f0f3cf5"/>
    <flags value="00000000 00000011"/>
    <unitsPerEm value="1000"/>
    <created value="Thu Oct  8 09:59:01 2009"/>
    <modified value="Thu Oct  8 09:59:01 2009"/>
    <xMin value="-457"/>
    <yMin value="-290"/>
    <xMax value="1446"/>
    <yMax value="1127"/>
    <macStyle value="00000000 00000000"/>
    <lowestRecPPEM value="3"/>
    <fontDirectionHint value="2"/>
    <indexToLocFormat value="0"/>
    <glyphDataFormat value="0"/>
  </head>
          <CharString index="0">
            hstemhm
            -107 callgsubr
            return
          </CharString>
          <CharString index="1">
            825 32 callsubr
            -119 -3 -118 62 callsubr
            103 -8 -47 -27 -5 hvcurveto
            -57 -347 rlineto
            -142 -24 -110 -80 -95 hhcurveto
            -47 -114 25 190 31 hvcurveto
            -90 callsubr
            rlineto
            -141 -23 97 -109 136 hhcurveto
            115 106 93 114 36 hvcurveto
            6 20 2 9 6 40 54 320 rcurveline
            33 5 8 45 103 hhcurveto
            return
          </CharString>
          <CharString index="2">
            105 callgsubr
            -8 2 -5 hhcurveto
            -9 -3 -6 -8 -3 hvcurveto
            -103 -53 -90 0 -10 hhcurveto
            -50 -35 30 37 -16 hvcurveto
            -22 48 11 66 6 36 rrcurveto
            279 156 callsubr
            99 17 -38 97 -125 hhcurveto
            -116 -109 -103 -125 -21 hvcurveto
            -134 -23 89 -97 115 hhcurveto
            122 64 121 callsubr
            -237 hlineto
            149 31 88 25 34 hhcurveto
            103 -12 -135 -39 -7 hvcurveto
            return
          </CharString>
          <CharString index="3">
            -78 callgsubr
            -205 -35 128 -156 178 119 callgsubr
            -101 14 rmoveto
            -265 -44 -151 -84 -92 hhcurveto
            -96 -120 88 261 44 hvcurveto
            259 43 157 68 83 hhcurveto
            87 132 -71 -256 -43 hvcurveto
            return
          </CharString>
          <CharString index="4">
            -20 -102 callgsubr
            return
          </CharString>
          <CharString index="5">
            25 hlineto
            44 265 rlineto
            -25 hlineto
            -86 -14 -16 -31 -97 hhcurveto
            -90 hlineto
            40 240 rlineto
            33 5 3 7 47 hhcurveto
            129 hlineto
            153 18 -55 -139 -7 hvcurveto
            25 hlineto
            9 225 rlineto
            -563 hlineto
            -5 -31 rlineto
            24 hlineto
            158 callgsubr
            -5 -31 rlineto
            577 hlineto
            return
          </CharString>
          <CharString index="6">
            rlineto
            36 6 4 11 77 hhcurveto
            24 47 callsubr
            -3 -36 -74 0 -38 hhcurveto
            -38 -75 -80 callgsubr
            return
          </CharString>
          <CharString index="7">
            hstemhm
            371 89 0 25 19 25 141 25 -20 25 hintmask 1100001001000000
            -88 callgsubr
            hintmask 1111000110100000
            -102 callsubr
            hintmask 0000000001000000
            return
          </CharString>
          <CharString index="8">
            rmoveto
            195 callsubr
            44 callgsubr
            -5 hvcurveto
            -27 -4 124 callsubr
            24 28 25 4 hvcurveto
            endchar
          </CharString>
          <CharString index="9">
            hintmask 01001000
            535 103 callsubr
            59 355 rlineto
            hintmask 10110000
            -149 -82 callsubr
            -29 -178 rlineto
            -87 -15 -59 -68 -73 hhcurveto
            -84 4 47 52 8 hvcurveto
            hintmask 00001000
            56 332 26 callgsubr
            78 -1 -3 -89 -15 hvcurveto
            -25 -150 rlineto
            -78 -13 -15 -91 152 hhcurveto
            56 49 28 62 39 hvcurveto
            -15 -90 rlineto
            hintmask 01000000
            return
          </CharString>
          <CharString index="10">
            rmoveto
            22 8 -14 20 -22 hhcurveto
            -12 -11 -8 -4 -5 hvcurveto
            -166 -130 10 -21 186 94 12 5 10 10 4 12 rlinecurve
            endchar
          </CharString>
          <CharString index="11">
            -95 callgsubr
            hintmask 00011000
            return
          </CharString>
          <CharString index="12">
            rmoveto
            24 4 -18 23 -27 hhcurveto
            -31 -22 -25 -22 -3 hvcurveto
            -25 -5 18 -23 27 hhcurveto
            31 22 25 23 4 hvcurveto
            210 hmoveto
            24 4 -18 23 -27 hhcurveto
            -31 -22 -25 -22 -3 hvcurveto
            -25 -5 18 -23 27 hhcurveto
            31 22 25 23 4 hvcurveto
            return
          </CharString>
          <CharString index="13">
            69 callgsubr
            hintmask 11100110
            -106 callsubr
            hintmask 00011000
            return
          </CharString>
          <CharString index="14">
            rmoveto
            24 4 -17 23 -27 hhcurveto
            -31 -22 -25 -22 27 callsubr
            -23 27 hhcurveto
            31 22 25 23 4 hvcurveto
            178 hmoveto
            24 4 -17 23 -27 hhcurveto
            -31 -22 -25 -22 27 callsubr
            -23 27 hhcurveto
            31 22 25 23 4 hvcurveto
            return
          </CharString>
          <CharString index="15">
            hstemhm
            hintmask 11000000
            -104 callsubr
            hintmask 00110000
            return
          </CharString>
          <CharString index="16">
            381 128 rmoveto
            9 53 -25 30 -10 12 -27 32 -38 8 -41 8 -54 11 -65 13 10 58 rrcurveto
            35 6 33 41 86 hhcurveto
            110 -10 -90 -31 -4 hvcurveto
            -9 11 0 0 13 1 5 19 3 vhcurveto
            17 101 rlineto
            17 3 1 7 -11 hhcurveto
            -5 -2 0 -12 -15 hvcurveto
            -4 -4 -11 -9 -5 -3 rrcurveto
            28 -33 -41 0 -15 hhcurveto
            -122 -49 -67 -56 -10 hvcurveto
            -6 -35 12 -28 23 -22 28 -26 27 -6 69 -14 22 -4 79 -16 -12 -72 rrcurveto
            -51 -8 -42 -40 -78 hhcurveto
            -84 -27 57 85 -4 hvcurveto
            13 -1 -1 4 -10 hhcurveto
            -13 -1 -7 -18 -3 hvcurveto
            -22 -132 rlineto
            -17 -3 -1 -7 11 hhcurveto
            5 1 1 19 23 hvcurveto
            2 2 0 2 21 19 rrcurveto
            -42 37 45 -1 21 hhcurveto
            115 57 67 72 12 hvcurveto
            return
          </CharString>
          <CharString index="17">
            64 381 -101 callsubr
            -63 -377 return
          </CharString>
          <CharString index="18">
            rmoveto
            18 3 -15 18 -18 hhcurveto
            -15 -12 -11 -6 -5 hvcurveto
            -146 -153 14 -18 172 122 11 7 9 11 2 12 rlinecurve
            endchar
          </CharString>
          <CharString index="19">
            -59 callgsubr
            -5 -31 rlineto
            return
          </CharString>
          <CharString index="20">
            122 callgsubr
            -53 86 hintmask 01001010
            847 652 42 callgsubr
            -31 -41 -1 -27 hhcurveto
            -114 62 callsubr
            41 13 -19 -20 -4 hvcurveto
            -2 -11 -8 -13 -5 -6 -209 -268 rcurveline
            -132 295 -6 10 1 2 1 5 rlinecurve
            21 3 26 4 45 110 callgsubr
            -73 0 -39 90 callsubr
            18 hlineto
            68 6 -11 -26 12 hvcurveto
            153 -342 rlineto
            hintmask 10000100
            -52 callgsubr
            hintmask 00110000
            return
          </CharString>
          <CharString index="21">
            85 callgsubr
            5 11 79 hhcurveto
            26 47 callsubr
            -3 -36 -79 0 -38 hhcurveto
            -39 -79 68 callsubr
            26 hlineto
            43 callgsubr
            return
          </CharString>
          <CharString index="22">
            -5 -31 rlineto
            return
          </CharString>
          <CharString index="23">
            74 callsubr
            -55 49 85 12 hvcurveto
            -22 hlineto
            -108 -16 62 -64 74 hhcurveto
            78 return
          </CharString>
          <CharString index="24">
            -20 216 callgsubr
            388 103 -37 103 -81 89 hintmask 1110010010000000
            775 242 rmoveto
            6 31 -123 -3 rlineto
            -40 -85 208 callgsubr
            -6 -31 rlineto
            32 hlineto
            90 2 -11 -37 -7 hvcurveto
            -10 -64 rlineto
            -112 -19 -128 -9 -28 hhcurveto
            -65 -193 35 298 50 hvcurveto
            299 50 202 33 60 hhcurveto
            hintmask 0000001000000000
            107 76 -90 -147 -4 hvcurveto
            -14 -1 -3 14 16 1 3 21 3 vhcurveto
            40 237 rlineto
            hintmask 0010000100000000
            17 2 2 7 -11 hhcurveto
            -4 -4 0 -12 -10 hvcurveto
            hintmask 1010010010000000
            -63 -74 rlineto
            32 -26 -45 54 -99 hhcurveto
            -186 -189 -158 -205 214 callsubr
            -34 133 -159 190 hhcurveto
            hintmask 0000001000000000
            73 85 26 59 44 hvcurveto
            -22 9 33 -40 11 hhcurveto
            hintmask 0100000100000000
            7 callgsubr
            hintmask 0001100000000000
            return
          </CharString>
          <CharString index="25">
            -11 31 callsubr
            7 -7 -49 -9 hvcurveto
            return
          </CharString>
          <CharString index="26">
            -95 callsubr
            endchar
          </CharString>
          <CharString index="27">
            rmoveto
            -40 -7 -27 -18 -39 hhcurveto
            -38 -22 17 41 7 hvcurveto
            40 7 27 18 39 hhcurveto
            38 22 -17 -41 -7 hvcurveto
            33 1 rmoveto
            46 8 -34 41 -54 hhcurveto
            -58 -47 -43 -44 -7 hvcurveto
            -51 -8 37 -38 51 hhcurveto
            56 48 40 49 8 hvcurveto
            return
          </CharString>
          <CharString index="28">
            rlineto
            -88 callsubr
            return
          </CharString>
          <CharString index="29">
            -142 61 callsubr
            65 8 -6 -49 -8 hvcurveto
            -45 -269 -13 callsubr
            111 3 rlineto
            35 34 -2 -1 34 hvcurveto
            return
          </CharString>
          <CharString index="30">
            704 233 rmoveto
            10 2 1 7 -13 hhcurveto
            -11 -1 -6 -10 -3 hvcurveto
            -143 -32 -120 -82 -109 hhcurveto
            -61 -191 34 298 50 hvcurveto
            299 50 200 34 61 hhcurveto
            109 74 -91 -146 -4 hvcurveto
            -14 -1 -3 14 16 1 3 21 3 vhcurveto
            40 237 91 callgsubr
            -4 -4 0 -12 -10 hvcurveto
            -63 -74 rlineto
            36 -31 -42 50 -96 hhcurveto
            -187 -188 -159 -204 -34 hvcurveto
            return
          </CharString>
          <CharString index="31">
            -20 -75 callgsubr
            return
          </CharString>
          <CharString index="32">
            104 18 80 56 64 hhcurveto
            63 2 -54 -57 -9 hvcurveto
            -39 -233 15 callgsubr
            return
          </CharString>
          <CharString index="33">
            -88 -527 rlineto
            -36 -6 -5 -11 -79 hhcurveto
            -26 177 callsubr
            3 36 79 0 38 hhcurveto
            39 79 0 -3 34 hvcurveto
            return
          </CharString>
          <CharString index="34">
            rmoveto
            18 3 -16 16 -19 hhcurveto
            -23 -9 -17 -12 -7 hvcurveto
            -78 -145 4 -3 13 -8 2 -1 rlinecurve
            113 126 11 12 4 4 2 10 rlinecurve
            167 hmoveto
            18 3 -16 16 -19 hhcurveto
            -23 -9 -17 -12 -7 hvcurveto
            -78 -145 4 -3 13 -8 2 -1 rlinecurve
            113 126 11 12 4 4 2 10 rlinecurve
            endchar
          </CharString>
          <CharString index="35">
            -93 callsubr
            endchar
          </CharString>
          <CharString index="36">
            5 31 rlineto
            return
          </CharString>
          <CharString index="37">
            -76 callgsubr
            -49 callsubr
            return
          </CharString>
          <CharString index="38">
            -45 -8 -11 0 -67 hhcurveto
            return
          </CharString>
          <CharString index="39">
            hlineto
            -89 callgsubr
            return
          </CharString>
          <CharString index="40">
            rmoveto
            82 492 -154 61 callsubr
            77 8 -7 -49 -9 hvcurveto
            -66 -396 rlineto
            -45 -7 -24 -86 -64 hhcurveto
            -5 -23 0 13 -23 hvcurveto
            15 4 23 14 4 27 rrcurveto
            26 4 -14 20 -28 hhcurveto
            -28 -22 -20 -26 -4 hvcurveto
            -52 -9 52 -28 57 hhcurveto
            75 72 64 91 16 hvcurveto
            return
          </CharString>
          <CharString index="41">
            -14 callsubr
            28 22 43 20 rlinecurve
            19 8 15 16 3 19 rrcurveto
            endchar
          </CharString>
          <CharString index="42">
            60 10 -17 45 -43 hhcurveto
            -35 -22 72 callgsubr
            -5 13 -27 36 hhcurveto
            20 15 10 6 7 hvcurveto
            2 2 2 1 0 vvcurveto
            0 0 -14 -1 -4 vhcurveto
            -6 -32 -19 -72 -73 -62 -14 -12 0 -2 -1 -3 rrcurveto
            -7 123 callsubr
            11 96 76 118 20 hvcurveto
            return
          </CharString>
          <CharString index="43">
            71 callgsubr
            hintmask 10001000
            -33 callsubr
            hintmask 01000100
            -86 callsubr
            hintmask 10001000
            -74 callsubr
            return
          </CharString>
          <CharString index="44">
            740 342 rmoveto
            188 31 -127 153 -188 hhcurveto
            -189 -179 -153 -188 -31 hvcurveto
            -189 -31 127 -153 189 hhcurveto
            188 179 153 189 31 hvcurveto
            -40 hmoveto
            -167 -28 -157 -135 -166 hhcurveto
            -167 -113 135 167 28 hvcurveto
            166 28 157 135 167 hhcurveto
            166 113 -135 -166 -28 hvcurveto
            return
          </CharString>
          <CharString index="45">
            -20 hstemhm
            242 97 81 97 hintmask 0100100000000000
            535 103 callsubr
            59 355 163 callsubr
            70 7 -7 -49 -9 hvcurveto
            -29 -178 rlineto
            -87 -15 -59 -68 -73 hhcurveto
            -84 4 47 52 8 hvcurveto
            hintmask 0000100000000000
            56 332 163 callsubr
            78 -1 -3 -89 -15 hvcurveto
            -25 -150 rlineto
            -78 -13 -15 -91 152 hhcurveto
            56 49 28 62 39 hvcurveto
            -15 -90 rlineto
            hintmask 0100000000000000
            hintmask 0000011111000000
            5 callsubr
            return
          </CharString>
          <CharString index="46">
            763 336 rmoveto
            190 32 -109 157 -171 108 callsubr
            366 hlineto
            168 163 148 188 31 hvcurveto
            -100 hmoveto
            -18 -111 -29 -60 -45 -49 rrcurveto
            -27 -24 -67 -58 -101 hhcurveto
            -101 -42 callgsubr
            90 541 rlineto
            33 6 3 7 47 hhcurveto
            100 hlineto
            62 65 -22 -71 39 hvcurveto
            33 -59 -5 -86 -13 -78 rrcurveto
            return
          </CharString>
          <CharString index="47">
            -89 callgsubr
            -88 -527 -79 callsubr
            return
          </CharString>
          <CharString index="48">
            5 12 -14 5 -7 -10 rrcurveto
            -36 -23 -31 -20 -32 hhcurveto
            -36 -48 23 46 8 hvcurveto
            return
          </CharString>
          <CharString index="49">
            879 hmoveto
            -49 callsubr
            117 callgsubr
            -169 hlineto
            -26 0 -1 -18 -10 hvcurveto
            -313 -563 -124 560 rlineto
            22 -5 -3 0 -23 hhcurveto
            -169 -68 callsubr
            -83 -500 rlineto
            -27 -5 -8 -47 -103 hhcurveto
            -5 -31 118 3 116 -3 -71 callsubr
            -103 8 47 27 5 hvcurveto
            89 539 rlineto
            1 hlineto
            138 -622 rlineto
            -13 3 3 -9 10 hhcurveto
            11 4 8 11 6 hvcurveto
            352 633 rlineto
            1 hlineto
            -96 -574 -55 callgsubr
            38 68 0 39 hhcurveto
            39 67 0 -3 36 hvcurveto
            return
          </CharString>
          <CharString index="50">
            736 -35 callsubr
            -54 -20 4 44 -23 hvcurveto
            -174 340 209 173 9 8 62 51 81 1 rlinecurve
            -71 callsubr
            -3 -27 -32 0 -27 hhcurveto
            -36 -57 0 3 -33 hvcurveto
            -5 -31 40 -1 2 -23 -2 -9 rlinecurve
            -2 -16 -12 -10 -9 -7 -363 -299 rcurveline
            53 318 -101 callsubr
            return
          </CharString>
          <CharString index="51">
            778 339 rmoveto
            20 124 -35 91 -63 70 86 101 rcurveline
            -19 14 -84 -97 rlineto
            0 -2 0 -4 5 vhcurveto
            15 -22 -55 43 -94 hhcurveto
            -179 -180 -160 -206 -34 hvcurveto
            -25 -149 64 -95 38 -37 -75 -89 rcurveline
            -10 -11 18 -14 84 96 rlineto
            -29 36 53 -33 88 119 callgsubr
            -123 268 rmoveto
            -433 -510 -27 49 -15 65 22 128 rlinecurve
            9 56 19 99 62 78 rrcurveto
            75 60 80 36 70 hhcurveto
            92 46 -56 -20 15 hvcurveto
            34 -268 rmoveto
            -9 -51 -20 -107 -69 -81 rrcurveto
            -62 -55 -75 -38 -72 hhcurveto
            -62 -56 27 49 -35 hvcurveto
            432 510 44 -76 -13 -107 -10 -64 rlinecurve
            return
          </CharString>
          <CharString index="52">
            -46 callsubr
            8 hvcurveto
            return
          </CharString>
          <CharString index="53">
            rmoveto
            -125 162 -179 -162 11 -4 callgsubr
            return
          </CharString>
          <CharString index="54">
            -55 callgsubr
            36 return
          </CharString>
          <CharString index="55">
            rlineto
            -45 -8 -11 0 -67 hhcurveto
            44 callsubr
            return
          </CharString>
          <CharString index="56">
            hstemhm
            171 107 hintmask 00111000
            498 89 rmoveto
            9 56 rlineto
            -25 hlineto
            -9 -56 rlineto
            -58 -10 -26 -6 -11 hhcurveto
            -33 4 45 5 1 hvcurveto
            33 200 7 42 6 39 -29 37 rlinecurve
            39 -33 -47 16 -48 hhcurveto
            -82 -77 -47 -66 -11 hvcurveto
            -30 -5 17 -17 26 hhcurveto
            28 21 20 26 5 hvcurveto
            2 12 0 33 -46 1 rrcurveto
            35 33 51 11 32 hhcurveto
            49 51 -39 -89 -15 hvcurveto
            -6 -37 -52 -3 -70 -3 -68 -30 rlinecurve
            -81 -34 -34 -52 -7 -44 rrcurveto
            hintmask 01000000
            -81 -14 93 -25 63 hhcurveto
            66 53 40 47 27 hvcurveto
            hintmask 00100000
            -40 -3 20 -42 47 hhcurveto
            21 63 14 81 14 hvcurveto
            -159 51 rmoveto
            return
          </CharString>
          <CharString index="57">
            -80 callsubr
            endchar
          </CharString>
          <CharString index="58">
            -71 callsubr
            -24 hlineto
            -77 0 11 36 6 hvcurveto
            return
          </CharString>
          <CharString index="59">
            722 -11 22 100 21 0 22 75 21 -19 21 36 93 45 22 hstemhm
            60 77 154 77 -8 77 -76 77 -70 66 110 57 68 66 hintmask 0100101000011100
            713 119 rmoveto
            10 2 -8 2 -5 hhcurveto
            -9 -2 -4 -16 -7 hvcurveto
            -50 -24 -54 -47 -62 hhcurveto
            -10 -137 0 217 37 hvcurveto
            273 156 callsubr
            111 19 -44 85 -109 hhcurveto
            hintmask 0000011001000000
            -44 -59 -16 -61 -61 hvcurveto
            48 -21 -55 29 -64 hhcurveto
            -80 -79 -46 -67 -11 hvcurveto
            -30 -5 17 -17 26 hhcurveto
            28 21 20 26 5 hvcurveto
            2 12 0 33 -46 1 rrcurveto
            hintmask 1001001110000000
            32 31 49 14 36 hhcurveto
            51 48 -41 -87 -14 hvcurveto
            -8 -48 rlineto
            -162 -130 -62 -96 -16 hvcurveto
            -79 -13 88 -24 67 hhcurveto
            81 69 40 49 32 hvcurveto
            -81 45 77 -8 30 hhcurveto
            113 61 121 callsubr
            hintmask 1000101100100100
            -231 hlineto
            146 34 88 28 36 hhcurveto
            95 -17 -135 -39 -5 hvcurveto
            -309 -120 rmoveto
            -64 -11 -66 -57 -72 hhcurveto
            -47 -34 34 47 7 hvcurveto
            hintmask 0011000000100000
            9 54 55 77 163 6 -4 -24 -3 -20 4 -31 rrcurveto
            hintmask 0100000001000000
            1 -11 -1 -8 -1 -3 rrcurveto
            endchar
          </CharString>
          <CharString index="60">
            rmoveto
            -7 16 -151 -66 -129 66 -15 -16 132 -117 rlineto
            endchar
          </CharString>
          <CharString index="61">
            -71 callsubr
            -67 -11 0 45 return
          </CharString>
          <CharString index="62">
            -87 -524 -79 callsubr
            return
          </CharString>
          <CharString index="63">
            58 callgsubr
            -361 177 callsubr
            endchar
          </CharString>
          <CharString index="64">
            500 -11 22 -11 31 0 71 0 71 227 31 -22 22 252 22 hstemhm
            28 72 0 72 -45 72 -26 75 -49 66 -53 72 21 75 10 72 -37 75 -38 75 hintmask 000000000000010010000000
            500 174 rmoveto
            12 72 -12 120 -120 53 93 25 54 61 10 58 rrcurveto
            hintmask 000010110100001000000000
            75 12 -60 67 -99 hhcurveto
            -77 -98 -49 -100 -16 hvcurveto
            -21 -125 rlineto
            -78 177 callsubr
            hintmask 001010000010000000000000
            78 hlineto
            -54 -324 105 callsubr
            hintmask 010000010100000000000000
            -5 -31 99 3 rlineto
            hintmask 010010101001001000000000
            11 17 0 -3 17 hvcurveto
            93 558 rlineto
            114 19 82 11 20 hhcurveto
            41 50 -31 -88 -15 hvcurveto
            -11 -64 -45 -61 -90 -8 -9 -1 -7 0 -2 -10 rrcurveto
            hintmask 100101000010010100000000
            0 -2 -10 9 -1 vhcurveto
            118 -10 19 -122 -17 -104 rrcurveto
            -129 -22 -70 -33 -38 hhcurveto
            -9 -23 2 17 -15 hvcurveto
            hintmask 100100000000100100000000
            11 2 21 10 4 24 rrcurveto
            22 4 -14 14 -20 hhcurveto
            -17 -21 -12 -25 -4 hvcurveto
            -40 -7 31 -36 58 hhcurveto
            86 101 73 112 19 hvcurveto
            endchar
          </CharString>
          <CharString index="65">
            204 rmoveto
            127 21 -73 96 -111 hhcurveto
            -68 -45 -51 -48 -28 hvcurveto
            4 24 rlineto
            253 42 130 36 51 hhcurveto
            24 41 -6 -34 16 hvcurveto
            -15 -40 0 -45 -7 hvcurveto
            -31 -5 21 -15 22 hhcurveto
            16 32 9 39 6 hvcurveto
            60 10 -36 48 -83 hhcurveto
            -128 -156 -129 -221 -37 hvcurveto
            -267 -45 104 -71 93 hhcurveto
            return
          </CharString>
          <CharString index="66">
            311 -38 callgsubr
            return
          </CharString>
          <CharString index="67">
            -46 callgsubr
            70 251 rmoveto
            -14 15 rlineto
            0 -46 -48 -44 -23 -22 92 callgsubr
            -25 -17 7 -17 hhcurveto
            -38 -22 -22 -56 -61 hvcurveto
            14 -15 rlineto
            0 46 48 44 23 22 -15 -10 16 82 callsubr
          </CharString>
          <CharString index="68">
            903 0 31 282 31 308 31 hstemhm
            468 83 -78 83 -3 83 84 25 19 25 103 25 -20 25 hintmask 1101011110000000
            917 258 rmoveto
            -25 hlineto
            -148 -50 -26 -79 -168 hhcurveto
            -95 -42 callgsubr
            40 242 rlineto
            85 hlineto
            94 4 -33 -84 79 callsubr
            -84 -14 -15 -33 -94 hhcurveto
            hintmask 1110100001000000
            -85 hlineto
            45 268 rlineto
            33 6 3 7 47 hhcurveto
            95 hlineto
            142 10 -58 -136 -7 hvcurveto
            25 hlineto
            10 225 rlineto
            -560 177 callsubr
            45 hlineto
            13 14 -1 13 hhcurveto
            -291 -553 rlineto
            -39 -20 -34 -28 -70 71 callsubr
            1 22 41 2 40 hhcurveto
            114 -3 5 31 -50 1 -20 24 5 25 rlinecurve
            1 8 0 1 7 13 110 210 rcurveline
            hintmask 1101000010000000
            161 hlineto
            -39 -237 rlineto
            -45 -8 -11 0 -66 71 callsubr
            493 hlineto
            -359 344 rmoveto
            -150 hlineto
            160 304 41 -1 -5 -27 -2 -16 rlinecurve
            hintmask 0100100000000000
            endchar
          </CharString>
          <CharString index="69">
            4 callgsubr
            29 175 135 110 136 -268 4 -9 7 -13 -2 -12 rlinecurve
            -30 -5 -39 0 -20 206 callgsubr
            36 70 0 38 hhcurveto
            return
          </CharString>
          <CharString index="70">
            -81 callgsubr
            endchar
          </CharString>
          <CharString index="71">
            hstemhm
            hintmask 00110000
            498 89 rmoveto
            9 56 rlineto
            -25 hlineto
            -9 -56 rlineto
            -58 -10 -26 -6 -11 hhcurveto
            -33 4 45 5 1 hvcurveto
            33 200 7 42 6 39 -29 37 rlinecurve
            39 -33 -47 16 -48 hhcurveto
            -82 -77 -47 -66 -11 hvcurveto
            -30 -5 17 -17 26 hhcurveto
            28 21 20 26 5 hvcurveto
            2 12 0 33 -46 1 rrcurveto
            35 33 51 11 32 hhcurveto
            49 51 -39 -89 -15 hvcurveto
            -6 -37 -52 -3 -70 -3 -68 -30 rlinecurve
            -81 -34 -34 -52 -7 -44 rrcurveto
            hintmask 11000000
            -81 -14 93 -25 63 hhcurveto
            66 53 40 47 27 hvcurveto
            -2 -22 6 -23 14 -16 -55 -30 -60 -54 8 callsubr
            31 39 24 rrcurveto
            hintmask 00100000
            -4 7 10 -2 11 93 callgsubr
            return
          </CharString>
          <CharString index="72">
            hmoveto
            -71 callsubr
            return
          </CharString>
          <CharString index="73">
            247 hmoveto
            179 callgsubr
            return
          </CharString>
          <CharString index="74">
            333 -35 callsubr
            -26 hlineto
            42 callsubr
            return
          </CharString>
          <CharString index="75">
            -32 callgsubr
            115 3 rlineto
            40 47 0 -3 39 57 callgsubr
            return
          </CharString>
          <CharString index="76">
            -37 callgsubr
            hintmask 01000001
            -2 callsubr
            return
          </CharString>
          <CharString index="77">
            201 rmoveto
            119 19 -65 100 -108 hhcurveto
            -48 -46 -16 -35 -41 hvcurveto
            32 195 rlineto
            hintmask 0000100010100000
            -6 19 32 -7 32 hhcurveto
            123 85 91 13 2 hvcurveto
            6 1 -2 5 -7 hhcurveto
            hintmask 0000100100000000
            0 -3 0 -5 -3 vhcurveto
            -9 -22 -52 -20 -67 hhcurveto
            hintmask 0000001000000000
            -40 -45 7 21 -44 hvcurveto
            -7 3 -4 0 0 vvcurveto
            hintmask 0001000100100000
            -10 -1 -8 -16 -3 hvcurveto
            -49 -296 rlineto
            -18 -3 -2 -8 14 hhcurveto
            7 3 3 6 5 hvcurveto
            16 13 46 54 81 hhcurveto
            52 18 -46 -18 5 hvcurveto
            10 -37 -5 -39 -8 -50 -6 -35 -10 -60 -31 -42 rrcurveto
            hintmask 1010000001000000
            -39 -31 -41 -26 -46 hhcurveto
            -73 -48 53 59 -7 hvcurveto
            hintmask 1100000000000000
            -1 3 2 -1 11 hhcurveto
            33 22 25 24 4 hvcurveto
            24 4 -13 25 -33 hhcurveto
            -14 -36 -7 -46 -8 hvcurveto
            -86 -14 52 174 callsubr
            22 hvcurveto
            endchar
          </CharString>
          <CharString index="78">
            -1 rmoveto
            -65 callsubr
            return
          </CharString>
          <CharString index="79">
            500 -11 22 -17 31 263 90 48 22 return
          </CharString>
          <CharString index="80">
            -20 -107 callsubr
            hintmask 00001100
            134 292 -46 callgsubr
            return
          </CharString>
          <CharString index="81">
            111 111 94 132 22 hvcurveto
            -90 1 rmoveto
            -8 -48 -8 -50 -23 -36 rrcurveto
            -60 -40 -47 -5 -23 hhcurveto
            -63 -20 60 15 -3 hvcurveto
            -11 47 14 80 3 18 rrcurveto
            78 13 48 100 90 hhcurveto
            16 46 0 -62 21 hvcurveto
            12 -37 -9 -51 -8 -49 rrcurveto
            endchar
          </CharString>
          <CharString index="82">
            -23 rmoveto
            14 82 -50 78 -101 21 87 27 70 70 13 79 rrcurveto
            82 13 -78 56 -96 hhcurveto
            -101 -86 -60 -76 -13 hvcurveto
            hintmask 0001000001000000
            -33 -5 18 -19 29 hhcurveto
            hintmask 0001000010000000
            31 24 22 29 5 hvcurveto
            50 8 -47 0 -15 hhcurveto
            hintmask 0010010100101000
            49 39 69 13 36 hhcurveto
            41 51 -22 -90 -15 hvcurveto
            -2 -12 -12 -58 -33 -44 -38 -48 -35 -3 -25 -1 rrcurveto
            -1 -8 -24 -2 -7 hhcurveto
            -8 -1 -8 -1 -1 -10 rrcurveto
            -11 -2 7 0 17 hhcurveto
            hintmask 0010000001010000
            44 hlineto
            82 26 -68 -98 -17 hvcurveto
            hintmask 1000000100000000
            -136 -23 -73 -29 -44 hhcurveto
            -43 -73 17 59 -25 hvcurveto
            hintmask 0000001000000000
            34 -5 35 22 6 38 rrcurveto
            hintmask 0100000100000000
            36 6 -23 20 -29 hhcurveto
            hintmask 1000001000010000
            -24 -35 -14 -44 -7 hvcurveto
            -91 -15 82 -66 109 hhcurveto
            122 106 91 102 17 hvcurveto
            endchar
          </CharString>
          <CharString index="83">
            722 0 65 618 22 hstem
            132 103 2 29 372 103 vstem
            704 162 rmoveto
            -25 hlineto
            -9 -26 -8 -23 -13 -24 rrcurveto
            -16 -8 -4 -8 -58 hhcurveto
            -80 hlineto
            22 56 39 48 56 66 59 71 53 69 13 79 rrcurveto
            139 23 -116 112 -169 hhcurveto
            -172 -152 -114 -137 -23 hvcurveto
            -13 -79 29 -69 35 -71 33 -66 24 -48 4 -56 rrcurveto
            -80 hlineto
            -58 -2 8 15 -2 hvcurveto
            -4 23 -1 26 -1 25 rrcurveto
            -25 hlineto
            6 -162 rlineto
            160 hlineto
            22 3 0 21 4 hvcurveto
            11 70 -16 88 -12 64 -12 58 -15 79 13 75 rrcurveto
            160 27 121 68 91 hhcurveto
            96 94 -72 -156 -26 hvcurveto
            -13 -75 -39 -76 -43 -82 -22 -42 -47 -90 -11 -69 rrcurveto
            -21 -4 3 0 23 hhcurveto
            159 hlineto
            endchar
          </CharString>
          <CharString index="84">
            -352 8 callgsubr
            return
          </CharString>
          <CharString index="85">
            21 -8 19 -16 11 rrcurveto
            12 -19 return
          </CharString>
          <CharString index="86">
            764 0 31 296 30 295 31 hstemhm
            193 86 -81 86 -5 100 3 100 181 100 hintmask 01101000
            113 callgsubr
            -41 -248 rlineto
            -103 hlineto
            -5 -30 rlineto
            hintmask 11010001
            103 hlineto
            -42 -249 -79 callsubr
            366 hlineto
            168 163 148 188 31 hvcurveto
            -100 hmoveto
            -18 -111 -29 -60 -45 -49 rrcurveto
            hintmask 11000100
            -27 -24 -67 -58 -101 hhcurveto
            -101 -42 callgsubr
            43 256 rlineto
            158 187 callsubr
            hintmask 01101011
            -158 hlineto
            42 255 131 callsubr
          </CharString>
          <CharString index="87">
            -7 17 hhcurveto
            38 23 22 56 60 hvcurveto
            endchar
          </CharString>
          <CharString index="88">
            717 -35 callsubr
            -18 hlineto
            -60 -13 7 33 -5 hvcurveto
            -112 625 rlineto
            13 -3 -1 7 -16 hhcurveto
            -16 -4 -6 -14 -7 hvcurveto
            -307 -598 -26 -51 -43 -15 -54 -1 rlinecurve
            -5 -31 103 3 114 -3 -71 callsubr
            -50 -21 25 26 5 hvcurveto
            3 3 10 1 2 vhcurveto
            68 131 rlineto
            247 hlineto
            28 -153 rlineto
            -4 1 -6 -1 -4 vhcurveto
            -30 -5 -56 0 -27 71 callsubr
            2 29 53 1 39 hhcurveto
            -54 -33 -40 -39 8 callsubr
            35 39 24 rrcurveto
            39 38 -2 -2 38 hvcurveto
            -216 259 rmoveto
            -225 hlineto
            166 325 rlineto
            return
          </CharString>
          <CharString index="89">
            306 39 callsubr
            160 84 8 22 hstemhm
            34 139 callsubr
            -66 87 110 87 hintmask 0101010000000000
            463 635 rmoveto
            37 6 -31 33 -53 hhcurveto
            -70 -94 -53 -106 -18 hvcurveto
            -19 -115 34 callsubr
            hintmask 1000101000000000
            66 callsubr
            hintmask 0100000100000000
            54 322 rlineto
            114 47 callsubr
            -117 hlineto
            hintmask 0011000011000000
            19 116 rlineto
            88 15 56 48 44 hhcurveto
            3 15 0 -7 14 hvcurveto
            55 callgsubr
            endchar
          </CharString>
          <CharString index="90">
            428 381 rmoveto
            32 5 -26 29 -43 hhcurveto
            -73 -47 -67 -43 -22 hvcurveto
            19 110 rlineto
            return
          </CharString>
          <CharString index="91">
            45 3 45 -107 callsubr
            return
          </CharString>
          <CharString index="92">
            135 rmoveto
            269 44 -103 68 -89 hhcurveto
            -55 -52 -18 -45 -51 hvcurveto
            hintmask 0010000001100000
            -48 -45 -30 -42 -13 -75 rrcurveto
            -125 -21 72 -98 112 hhcurveto
            61 48 42 58 33 hvcurveto
            -6 -32 rlineto
            hintmask 1100000010000000
            -234 -39 -111 -46 -58 hhcurveto
            -17 -54 2 34 -21 hvcurveto
            hintmask 1110100100100000
            44 12 29 17 3 hvcurveto
            31 5 -21 15 -22 hhcurveto
            -16 -32 -9 -39 -6 hvcurveto
            -67 -11 47 -41 85 hhcurveto
            129 145 136 215 36 hvcurveto
            -77 92 rmoveto
            -83 -14 -50 -97 -88 hhcurveto
            hintmask 0001011001000000
            -16 -46 0 63 -21 hvcurveto
            -11 37 8 50 8 49 9 54 8 47 27 37 rrcurveto
            50 35 41 13 35 hhcurveto
            46 27 -34 -45 9 hvcurveto
            hintmask 0000100000000000
            7 -32 -6 -63 -8 -46 rrcurveto
            endchar
          </CharString>
          <CharString index="93">
            4 6 1 hvcurveto
            3 19 5 28 return
          </CharString>
          <CharString index="94">
            rlineto
            -32 callgsubr
            return
          </CharString>
          <CharString index="95">
            -85 callsubr
            24 hlineto
            return
          </CharString>
          <CharString index="96">
            329 rmoveto
            269 45 -104 68 -89 hhcurveto
            -55 -52 -18 -45 -50 hvcurveto
            -49 -45 -30 -42 -12 -75 rrcurveto
            -125 -21 71 -98 112 hhcurveto
            61 48 42 58 33 hvcurveto
            -5 -32 rlineto
            -234 -39 -112 -46 -58 hhcurveto
            -17 -54 2 34 -21 hvcurveto
            44 13 29 17 3 hvcurveto
            31 5 -22 15 -22 hhcurveto
            -16 -31 -9 -39 -7 hvcurveto
            -67 -11 47 -41 85 hhcurveto
            129 145 136 215 36 hvcurveto
            -77 92 rmoveto
            -83 -14 -50 -97 -88 hhcurveto
            hintmask 00010110
            -16 -46 0 63 -20 hvcurveto
            -12 37 8 50 8 49 9 54 8 47 27 37 rrcurveto
            50 36 40 13 35 hhcurveto
            46 27 -34 -45 10 hvcurveto
            hintmask 00001000
            6 -32 -6 -63 -8 -46 rrcurveto
            endchar
          </CharString>
          <CharString index="97">
            2 -1 2 -1 2 vhcurveto
            -53 64 -35 78 -16 85 rrcurveto
            5 -1 -4 3 -5 hhcurveto
            -2 hlineto
            -5 -5 -4 -6 hvcurveto
            6 -81 18 -78 32 -71 -55 -71 -45 -77 -32 -81 rrcurveto
            -1 -1 0 -2 -1 vvcurveto
            -6 5 -4 5 vhcurveto
            2 hlineto
            4 3 2 3 2 hvcurveto
            44 86 62 78 74 65 rrcurveto
            2 2 2 3 3 vvcurveto
            return
          </CharString>
          <CharString index="98">
            -51 callgsubr
            -36 -216 rlineto
            36 -23 -38 26 -54 hhcurveto
            -118 -122 -98 -129 -21 hvcurveto
            -127 -21 81 -99 114 hhcurveto
            64 51 34 32 30 hvcurveto
            -11 -66 rlineto
            return
          </CharString>
          <CharString index="99">
            -20 hstemhm
            186 97 113 97 hintmask 10011000
            2 callsubr
            hintmask 01100000
            return
          </CharString>
          <CharString index="100">
            37 callsubr
            194 hmoveto
            -58 callgsubr
            endchar
          </CharString>
          <CharString index="101">
            115 19 -44 87 -71 hhcurveto
            -76 -85 -84 -117 -20 hvcurveto
            -121 -20 153 callgsubr
            return
          </CharString>
          <CharString index="102">
            215 callgsubr
            217 21 174 22 return
          </CharString>
          <CharString index="103">
            -65 callsubr
            endchar
          </CharString>
          <CharString index="104">
            37 37 -9 -32 -5 hvcurveto
            -41 -7 -95 0 -75 hhcurveto
            -13 hlineto
            -4 -26 rlineto
            26 hlineto
            108 133 0 67 11 hvcurveto
            return
          </CharString>
          <CharString index="105">
            -41 -3 -11 -30 -2 -13 rrcurveto
            -26 -5 15 -20 28 hhcurveto
            26 23 17 30 5 hvcurveto
            return
          </CharString>
          <CharString index="106">
            rmoveto
            -13 15 rlineto
            0 -46 -48 -44 -23 -23 15 10 -15 vhcurveto
            16 -24 -17 11 callsubr
            13 -15 rlineto
            0 46 48 44 23 23 92 callsubr
            return
          </CharString>
          <CharString index="107">
            138 rmoveto
            -16 hlineto
            -20 -5 -58 -4 -22 hvcurveto
            -3 -13 -13 0 -16 hhcurveto
            -206 hlineto
            194 101 69 36 68 45 12 77 rlinecurve
            111 19 -123 29 -91 hhcurveto
            -67 -114 -32 -91 -15 hvcurveto
            -27 -4 15 -15 22 hhcurveto
            24 18 19 20 4 hvcurveto
            4 23 -14 13 -21 4 rrcurveto
            39 35 49 16 47 hhcurveto
            65 68 -35 -73 -12 hvcurveto
            -13 -75 -86 -64 -59 -37 -176 -110 rcurveline
            -15 -10 -16 -5 -3 -18 rrcurveto
            -5 0 -5 -1 -4 vhcurveto
            368 hlineto
            7 4 6 7 3 hvcurveto
            endchar
          </CharString>
          <CharString index="108">
            444 -11 22 174 21 217 25 hstem
            59 66 vstem
            451 217 rmoveto
            134 23 -89 97 -115 hhcurveto
            -122 -64 -111 -19 -3 hvcurveto
            -10 -2 8 -2 5 hhcurveto
            9 3 6 8 3 hvcurveto
            103 53 90 0 10 hhcurveto
            50 35 -30 -37 16 hvcurveto
            22 -48 -11 -66 -6 -36 rrcurveto
            -279 hlineto
            -22 -3 0 -21 -3 hvcurveto
            -99 -17 38 -97 125 hhcurveto
            116 109 103 125 21 hvcurveto
            -89 -32 rmoveto
            -149 -31 -88 -25 -34 hhcurveto
            -103 12 135 39 7 hvcurveto
            endchar
          </CharString>
          <CharString index="109">
            283 531 -95 callsubr
            return
          </CharString>
          <CharString index="110">
            -35 callsubr
            -100 hlineto
            hintmask 0011000010000000
            72 428 rlineto
            20 3 1 6 -16 hhcurveto
            -9 -3 0 -12 -10 hvcurveto
            -381 -442 -85 callsubr
            hintmask 0010010000000000
            266 hlineto
            hintmask 0100100000000000
            -19 -116 rlineto
            73 callsubr
            -74 hhcurveto
            -21 hlineto
            hintmask 1000000000000000
            -85 callsubr
            hintmask 0100001000000000
            3 41 52 0 42 hhcurveto
            hintmask 1010100010000000
            42 53 0 -3 41 45 callgsubr
            19 116 rlineto
            -66 31 rmoveto
            -244 hlineto
            302 346 rlineto
            hintmask 0010000100000000
            endchar
          </CharString>
          <CharString index="111">
            9 callgsubr
            -20 return
          </CharString>
          <CharString index="112">
            -50 616 -93 callsubr
            return
          </CharString>
          <CharString index="113">
            -141 17 callsubr
            return
          </CharString>
          <CharString index="114">
            -20 hstemhm
            60 112 hintmask 01011000
            574 10 callgsubr
            hintmask 00100001
            38 callsubr
            hintmask 01000001
            -22 -36 -14 -44 -7 hvcurveto
            hintmask 10001000
            9 callsubr
            hintmask 00000110
            return
          </CharString>
          <CharString index="115">
            -8 -52 rrcurveto
            -46 -8 40 -44 64 hhcurveto
            115 callsubr
            return
          </CharString>
          <CharString index="116">
            -74 -13 61 -60 89 hhcurveto
            102 85 70 75 24 hvcurveto
            2 8 0 2 6 34 74 444 rcurveline
            41 7 14 0 63 hhcurveto
            return
          </CharString>
          <CharString index="117">
            500 -206 23 190 58 45 23 16 23 247 23 -12 23 return
          </CharString>
          <CharString index="118">
            7 -17 hhcurveto
            -38 -23 -22 -56 -60 hvcurveto
            return
          </CharString>
          <CharString index="119">
            236 334 100 callgsubr
            -73 -47 -59 hhcurveto
            -63 -55 55 callsubr
            return
          </CharString>
          <CharString index="120">
            94 rlineto
            -10 5 -7 10 12 vvcurveto
            22 -1 21 20 22 hhcurveto
            12 8 -8 -4 4 hvcurveto
            endchar
          </CharString>
          <CharString index="121">
            -59 callsubr
            3 20 return
          </CharString>
          <CharString index="122">
            750 -22 31 565 31 47 31 return
          </CharString>
          <CharString index="123">
            627 15 rmoveto
            16 14 -11 13 -8 10 -165 198 rcurveline
            230 198 11 10 17 13 -12 14 rlinecurve
            -13 14 -15 -13 -12 -10 -229 -197 rcurveline
            -165 198 -9 10 -11 13 -17 -14 rlinecurve
            -16 -14 11 -14 9 -10 165 -198 rcurveline
            -231 -198 -12 -10 -16 -13 12 -14 rlinecurve
            12 -14 15 13 12 10 231 198 rcurveline
            165 -198 8 -10 11 -13 17 14 rlinecurve
            return
          </CharString>
          <CharString index="124">
            -82 callsubr
            -44 -268 rlineto
            return
          </CharString>
          <CharString index="125">
            23 callsubr
            4 -4 5 hhcurveto
            6 5 -14 callsubr
            return
          </CharString>
          <CharString index="126">
            108 16 -62 64 -74 hhcurveto
            -78 -81 -67 -105 -20 hvcurveto
            22 hlineto
            87 17 return
          </CharString>
          <CharString index="127">
            hstemhm
            33 86 0 66 89 86 hintmask 00100000
            -17 callsubr
            return
          </CharString>
          <CharString index="128">
            278 39 callsubr
            -31 42 return
          </CharString>
          <CharString index="129">
            hmoveto
            -55 callsubr
            return
          </CharString>
          <CharString index="130">
            -33 -3 -19 rcurveline
            -6 -1 return
          </CharString>
          <CharString index="131">
            6 50 callsubr
            return
          </CharString>
          <CharString index="132">
            167 28 67 13 21 hhcurveto
            53 39 -74 -105 return
          </CharString>
          <CharString index="133">
            31 hstem
            603 552 rmoveto
            86 14 -126 28 -68 hhcurveto
            -13 hlineto
            -67 -6 -95 -24 -27 -75 -1 -3 -1 -2 -1 -3 -1 -7 1 -6 8 -1 rrcurveto
            2 hlineto
            16 0 20 11 8 hvcurveto
            47 36 77 18 57 hhcurveto
            52 91 -15 -56 12 hvcurveto
            2 -9 -5 -15 13 -1 rrcurveto
            5 hlineto
            7 1 3 6 1 6 rrcurveto
            endchar
          </CharString>
          <CharString index="134">
            80 callsubr
            17 return
          </CharString>
          <CharString index="135">
            -3 -10 9 hvcurveto
            6 -6 return
          </CharString>
          <CharString index="136">
            104 18 80 56 64 hhcurveto
            63 2 -54 -57 -9 hvcurveto
            -39 -233 -52 callsubr
            -75 callsubr
            rlineto
            return
          </CharString>
          <CharString index="137">
            -35 callsubr
            -45 hlineto
            -36 -43 3 45 7 hvcurveto
            60 359 rlineto
            13 2 4 21 -15 hhcurveto
            -12 -21 -14 -6 -12 hvcurveto
            -20 -50 -53 -4 -50 71 callsubr
            42 49 0 17 42 hvcurveto
            -56 -334 rlineto
            -43 -7 -43 -6 -35 hhcurveto
            -48 hlineto
            hintmask 10000000
            -85 callsubr
            hintmask 01000000
            167 4 rlineto
            hintmask 10000000
            endchar
          </CharString>
          <CharString index="138">
            -85 callsubr
            70 return
          </CharString>
          <CharString index="139">
            652 rmoveto
            5 31 return
          </CharString>
          <CharString index="140">
            353 306 rmoveto
            3 18 rlineto
            -23 hlineto
            -65 -1 7 22 4 hvcurveto
            56 337 rlineto
            14 2 1 1 -17 hhcurveto
            -38 -52 -63 0 -23 hhcurveto
            -3 -19 rlineto
            return
          </CharString>
          <CharString index="141">
            rlineto
            -79 hlineto
            hintmask 0100100100000000
            173 callgsubr
            hintmask 1000011000000000
            -54 -324 105 callsubr
            return
          </CharString>
          <CharString index="142">
            hvcurveto
            25 callsubr
            return
          </CharString>
          <CharString index="143">
            778 -22 26 676 return
          </CharString>
          <CharString index="144">
            589 rmoveto
            -58 callgsubr
            return
          </CharString>
          <CharString index="145">
            -6 -68 0 58 -26 hvcurveto
            52 17 30 26 4 hvcurveto
            36 6 -25 20 -28 hhcurveto
            return
          </CharString>
          <CharString index="146">
            0 63 callgsubr
            return
          </CharString>
          <CharString index="147">
            333 187 58 hstemhm
            42 265 -255 265 hintmask 10100000
            307 187 51 callgsubr
          </CharString>
          <CharString index="148">
            28 168 2 9 rlineto
            -16 2 33 -54 76 hhcurveto
            119 121 98 129 21 hvcurveto
            -83 hmoveto
            -121 -20 -84 -84 -74 hhcurveto
            -40 -35 20 41 -20 hvcurveto
            -10 21 0 1 3 20 37 223 rcurveline
            51 38 54 29 51 hhcurveto
            73 46 -88 -113 -19 hvcurveto
            endchar
          </CharString>
          <CharString index="149">
            -79 -1 11 36 6 hvcurveto
            return
          </CharString>
          <CharString index="150">
            208 callsubr
            193 89 -1 89 24 25 180 25 return
          </CharString>
          <CharString index="151">
            -5 -31 114 3 111 -40 callgsubr
            30 184 rlineto
            return
          </CharString>
          <CharString index="152">
            528 -205 22 18 84 0 22 459 31 return
          </CharString>
          <CharString index="153">
            -46 -8 40 -44 64 hhcurveto
            return
          </CharString>
          <CharString index="154">
            hlineto
            -71 callsubr
            return
          </CharString>
          <CharString index="155">
            -38 callgsubr
            endchar
          </CharString>
          <CharString index="156">
            55 callsubr
            endchar
          </CharString>
          <CharString index="157">
            752 -81 callgsubr
            return
          </CharString>
          <CharString index="158">
            rrcurveto
            108 18 43 118 93 hhcurveto
            58 45 -33 -48 12 hvcurveto
            -3 -4 1 -4 hhcurveto
            -25 -24 -21 -25 -4 hvcurveto
            -25 -5 18 -21 25 hhcurveto
            25 24 21 25 5 hvcurveto
            86 14 -64 66 -89 hhcurveto
            -117 -90 -124 -128 -21 hvcurveto
            return
          </CharString>
          <CharString index="159">
            115 callsubr
            29 41 21 91 23 47 85 3 16 rrcurveto
            -44 133 rmoveto
            -237 hlineto
            149 31 88 25 34 hhcurveto
            return
          </CharString>
          <CharString index="160">
            663 rmoveto
            11 1 -7 9 -11 hhcurveto
            -8 -7 -3 -6 -4 hvcurveto
            -507 -643 -2 -4 -2 -3 -1 -4 rlinecurve
            70 callgsubr
            1 3 3 3 1 4 rlinecurve
            endchar
          </CharString>
          <CharString index="161">
            109 callsubr
            27 35 callsubr
            -17 hvcurveto
            return
          </CharString>
          <CharString index="162">
            49 85 12 hvcurveto
            -22 hlineto
            -108 -16 62 -64 74 hhcurveto
            78 81 67 105 20 hvcurveto
            return
          </CharString>
          <CharString index="163">
            750 73 callgsubr
            return
          </CharString>
          <CharString index="164">
            -1 -2 -2 0 -14 hhcurveto
            -118 hlineto
            19 113 rlineto
            99 16 93 40 62 hhcurveto
            30 34 -10 -23 16 hvcurveto
            -41 -2 -11 -28 -2 -16 rrcurveto
            -33 -6 24 -13 19 hhcurveto
            23 26 16 30 5 hvcurveto
            59 10 -48 42 -74 hhcurveto
            return
          </CharString>
          <CharString index="165">
            12 callgsubr
            13 18 17 16 19 18 22 15 23 11 94 -3 rcurveline
            179 callgsubr
            return
          </CharString>
          <CharString index="166">
            28 110 98 -96 83 197 22 131 83 -70 98 -28 28 -21 22 return
          </CharString>
          <CharString index="167">
            -88 callsubr
            3 return
          </CharString>
          <CharString index="168">
            -11 -85 callsubr
            return
          </CharString>
          <CharString index="169">
            3 -85 callsubr
            return
          </CharString>
          <CharString index="170">
            rmoveto
            22 7 -13 20 -22 hhcurveto
            -12 -12 -8 -4 -4 hvcurveto
            -167 -130 return
          </CharString>
          <CharString index="171">
            353 124 rmoveto
            9 57 rlineto
            -25 hlineto
            return
          </CharString>
          <CharString index="172">
            -279 hlineto
            47 280 52 callgsubr
            -47 -280 rlineto
            -280 hlineto
            -14 119 callsubr
            hintmask 11011000
            280 hlineto
            return
          </CharString>
          <CharString index="173">
            -5 -31 115 3 rlineto
            40 47 0 -3 39 45 callgsubr
            return
          </CharString>
          <CharString index="174">
            rlineto
            -14 -3 -3 -19 20 hhcurveto
            20 3 19 14 3 hvcurveto
            return
          </CharString>
          <CharString index="175">
            0 3 -34 125 callgsubr
            return
          </CharString>
          <CharString index="176">
            -20 hstemhm
            174 88 -23 88 -65 88 270 30 0 30 0 30 return
          </CharString>
          <CharString index="177">
            527 103 callsubr
            101 607 rlineto
            return
          </CharString>
          <CharString index="178">
            hhcurveto
            -85 callsubr
            return
          </CharString>
          <CharString index="179">
            115 callgsubr
            hstemhm
            return
          </CharString>
          <CharString index="180">
            -36 -6 -4 -11 return
          </CharString>
          <CharString index="181">
            -47 -59 hhcurveto
            -63 return
          </CharString>
          <CharString index="182">
            28 36 92 84 23 63 25 0 92 157 25 38 25 hstemhm
            return
          </CharString>
          <CharString index="183">
            -108 -18 -64 -72 -52 hhcurveto
            return
          </CharString>
          <CharString index="184">
            68 callgsubr
            -35 -23 -27 -26 -4 hvcurveto
            161 callgsubr
            7 6 1 2 5 hvcurveto
            -19 -28 -33 -18 -35 -5 8 48 rcurveline
            return
          </CharString>
          <CharString index="185">
            139 callgsubr
            94 103 return
          </CharString>
          <CharString index="186">
            -14 hvcurveto
            25 hlineto
            44 265 rlineto
            -25 hlineto
            return
          </CharString>
          <CharString index="187">
            -4 hvcurveto
            -25 -4 return
          </CharString>
          <CharString index="188">
            -10 -56 rlineto
            -34 -5 -3 -14 -95 hhcurveto
            -33 177 callsubr
            3 37 92 0 41 hhcurveto
            41 93 0 -3 35 hvcurveto
            -71 callsubr
            -33 hlineto
            -95 2 13 35 6 hvcurveto
            return
          </CharString>
          <CharString index="189">
            vhcurveto
            -16 24 17 -20 callsubr
          </CharString>
          <CharString index="190">
            -20 34 callgsubr
            return
          </CharString>
          <CharString index="191">
            -19 rcurveline
            -6 -1 5 126 callsubr
            4 4 6 1 hvcurveto
            return
          </CharString>
          <CharString index="192">
            237 89 352 31 return
          </CharString>
          <CharString index="193">
            rmoveto
            -22 hlineto
            -87 return
          </CharString>
          <CharString index="194">
            rlineto
            0 callgsubr
            -92 0 -41 hhcurveto
            -41 -93 0 3 -35 125 callgsubr
            33 hlineto
            95 -2 -13 -35 -6 hvcurveto
            return
          </CharString>
          <CharString index="195">
            rmoveto
            20 5 -14 15 -20 hhcurveto
            -20 -20 -15 -20 -1 hvcurveto
            -19 -247 rlineto
            26 hlineto
            return
          </CharString>
          <CharString index="196">
            22 129 rmoveto
            -3 -18 -1 -2 -13 -17 rrcurveto
            return
          </CharString>
          <CharString index="197">
            hhcurveto
            -129 62 callsubr
            return
          </CharString>
          <CharString index="198">
            31 442 -21 194 31 return
          </CharString>
          <CharString index="199">
            -15 -10 15 vhcurveto
            -16 return
          </CharString>
          <CharString index="200">
            333 187 58 hstemhm
            65 265 -255 265 hintmask 10100000
            330 187 51 callgsubr
          </CharString>
          <CharString index="201">
            18 3 -16 16 -19 hhcurveto
            -23 -8 -17 -12 -7 hvcurveto
            -79 -145 4 -3 14 -8 1 -1 rlinecurve
            113 126 11 12 4 4 2 10 rlinecurve
            return
          </CharString>
          <CharString index="202">
            -29 145 rlineto
            12 -3 -4 17 -23 hhcurveto
            -19 -20 -16 -18 -3 hvcurveto
            -2 -10 2 -4 7 -12 71 -126 rcurveline
            3 1 16 8 4 3 rrcurveto
            return
          </CharString>
          <CharString index="203">
            -34 -25 114 callsubr
            -4 18 169 callgsubr
            return
          </CharString>
          <CharString index="204">
            -22 callsubr
            -24 4 -29 hhcurveto
            -47 return
          </CharString>
          <CharString index="205">
            -10 -3 -19 -2 -11 -6 -10 -9 -6 return
          </CharString>
          <CharString index="206">
            -3 -46 callsubr
            return
          </CharString>
          <CharString index="207">
            -11 -20 -14 -61 -44 rcurveline
            hintmask 10010000
            11 -17 rlineto
            41 56 58 30 51 hhcurveto
            40 26 -17 -20 32 hvcurveto
            -17 26 28 -17 40 hhcurveto
            hintmask 01000000
            25 return
          </CharString>
          <CharString index="208">
            690 86 callsubr
            -16 -74 -84 callsubr
            82 67 105 19 hvcurveto
            return
          </CharString>
          <CharString index="209">
            145 49 callgsubr
            return
          </CharString>
          <CharString index="210">
            -35 callsubr
            -70 -7 7 49 9 hvcurveto
            return
          </CharString>
          <CharString index="211">
            0 -3 40 hvcurveto
            -71 callsubr
            return
          </CharString>
          <CharString index="212">
            rlineto
            -69 callsubr
            return
          </CharString>
          <CharString index="213">
            31 621 31 return
          </CharString>
          <CharString index="214">
            162 callgsubr
            78 0 39 hhcurveto
            41 91 0 -3 35 hvcurveto
            -71 callsubr
            return
          </CharString>
          <CharString index="215">
            hhcurveto
            -366 11 callgsubr
            return
          </CharString>
          <CharString index="216">
            76 callsubr
            -20 -64 13 166 return
          </CharString>
          <CharString index="217">
            83 72 callsubr
            return
          </CharString>
          <CharString index="218">
            hlineto
            -126 -289 -1 -2 -5 -12 -1 -4 rlinecurve
            -11 -2 8 -9 11 hhcurveto
            16 5 13 11 5 hvcurveto
            131 303 rlineto
            return
          </CharString>
          <CharString index="219">
            hlineto
            126 289 rlineto
            2 2 5 12 4 vvcurveto
            11 2 -7 9 -11 hhcurveto
            -16 -5 -13 -11 -5 hvcurveto
            -132 -303 rlineto
            return
          </CharString>
          <CharString index="220">
            hintmask 10010000
            -33 callsubr
            return
          </CharString>
          <CharString index="221">
            -28 -25 -4 hvcurveto
            -27 return
          </CharString>
          <CharString index="222">
            116 callsubr
            43 return
          </CharString>
          <CharString index="223">
            46 callgsubr
            -59 callsubr
            7 40 return
          </CharString>
          <CharString index="224">
            -37 -6 rlineto
            -4 -1 1 2 -4 hvcurveto
            14 -29 -41 0 -11 hhcurveto
            return
          </CharString>
          <CharString index="225">
            hstemhm
            237 89 50 97 113 97 -5 31 return
          </CharString>
          <CharString index="226">
            193 callgsubr
            -4 19 0 14 hhcurveto
            return
          </CharString>
          <CharString index="227">
            -11 -6 -10 -9 -6 -32 -23 -25 -30 -5 -33 return
          </CharString>
          <CharString index="228">
            111 19 3 hvcurveto
            -44 133 rmoveto
            return
          </CharString>
          <CharString index="229">
            722 -22 31 665 31 return
          </CharString>
          <CharString index="230">
            -1 86 callgsubr
            return
          </CharString>
          <CharString index="231">
            19 -26 30 hhcurveto
            34 return
          </CharString>
          <CharString index="232">
            11 rrcurveto
            12 -19 -24 4 -29 hhcurveto
            -47 -47 -25 -41 -7 hvcurveto
            -19 -3 12 -11 16 hhcurveto
            15 16 11 18 3 hvcurveto
            return
          </CharString>
          <CharString index="233">
            -4 5 hhcurveto
            6 return
          </CharString>
          <CharString index="234">
            500 199 callsubr
            22 -17 31 263 90 48 22 return
          </CharString>
          <CharString index="235">
            -124 162 return
          </CharString>
          <CharString index="236">
            -200 106 94 return
          </CharString>
          <CharString index="237">
            -20 135 callsubr
            return
          </CharString>
          <CharString index="238">
            rlineto
            33 6 3 7 47 hhcurveto
            100 hlineto
            62 65 -22 -71 39 hvcurveto
            33 -59 -5 -86 -13 -78 rrcurveto
            endchar
          </CharString>
          <CharString index="239">
            30 116 30 141 30 12 -20 hstemhm
            return
          </CharString>
          <CharString index="240">
            -211 47 164 31 return
          </CharString>
          <CharString index="241">
            74 -21 133 -20 hstemhm
            return
          </CharString>
          <CharString index="242">
            hstem
            490 532 -46 callgsubr
            return
          </CharString>
          <CharString index="243">
            170 callgsubr
            197 31 457 -20 return
          </CharString>
          <CharString index="244">
            rrcurveto
            61 callgsubr
            return
          </CharString>
          <CharString index="245">
            hstemhm
            85 685 -680 685 return
          </CharString>
          <CharString index="246">
            66 -61 66 20 66 -12 66 return
          </CharString>
          <CharString index="247">
            hstemhm
            38 66 20 66 return
          </CharString>
          <CharString index="248">
            408 rmoveto
            8 50 -37 46 -73 13 62 16 49 42 8 48 rrcurveto
            49 8 -58 33 -69 hhcurveto
            return
          </CharString>
          <CharString index="249">
            50 callsubr
            endchar
          </CharString>
          <CharString index="250">
            -20 82 callgsubr
            return
          </CharString>
          <CharString index="251">
            394 -11 22 2 19 397 19 return
          </CharString>
          <CharString index="252">
            31 389 22 210 31 -31 42 return
          </CharString>
          <CharString index="253">
            63 callgsubr
            -11 22 return
          </CharString>
          <CharString index="254">
            84 124 callgsubr
            return
          </CharString>
          <CharString index="255">
            2 2 -8 13 hhcurveto
            return
          </CharString>
          <CharString index="256">
            -32 -85 -14 hvcurveto
            return
          </CharString>
          <CharString index="257">
            -29 -28 -24 -29 -5 hvcurveto
            -29 -5 20 -24 29 hhcurveto
            29 28 24 29 5 hvcurveto
            endchar
          </CharString>
          <CharString index="258">
            712 144 rmoveto
            -26 hlineto
            -69 -11 -62 -58 -68 hhcurveto
            -67 -45 44 43 -45 hvcurveto
            return
          </CharString>
          <CharString index="259">
            778 -35 -21 34 22 683 22 34 -20 return
          </CharString>
          <CharString index="260">
            22 -11 31 48 31 290 31 -31 42 hstemhm
            return
          </CharString>
          <CharString index="261">
            537 -21 176 -20 hstem
            return
          </CharString>
          <CharString index="262">
            47 59 hhcurveto
            63 55 -49 -85 return
          </CharString>
          <CharString index="263">
            hlineto
            22 3 0 21 3 hvcurveto
            return
          </CharString>
          <CharString index="264">
            112 -46 112 -85 102 -60 92 -44 102 33 103 -59 92 hintmask 0000100010001000
            return
          </CharString>
          <CharString index="265">
            31 233 31 401 31 216 callgsubr
            388 103 -37 103 -81 89 return
          </CharString>
          <CharString index="266">
            557 216 rmoveto
            127 21 return
          </CharString>
          <CharString index="267">
            6 5 4 6 1 hvcurveto
            return
          </CharString>
          <CharString index="268">
            -20 24 -29 hhcurveto
            return
          </CharString>
          <CharString index="269">
            552 404 rmoveto
            17 3 -6 32 -39 hhcurveto
            -20 -45 -6 -41 -49 hvcurveto
            return
          </CharString>
          <CharString index="270">
            rlineto
            hintmask 1011000000000000
            47 callgsubr
            return
          </CharString>
          <CharString index="271">
            22 172 22 vstem
            return
          </CharString>
          <CharString index="272">
            25 52 25 -16 25 return
          </CharString>
          <CharString index="273">
            5 11 10 4 12 rlinecurve
            endchar
          </CharString>
          <CharString index="274">
            25 callsubr
            -18 hvcurveto
            endchar
          </CharString>
          <CharString index="275">
            778 -200 106 72 26 676 return
          </CharString>
          <CharString index="276">
            444 0 25 384 22 return
          </CharString>
          <CharString index="277">
            69 11 165 callsubr
            return
          </CharString>
          <CharString index="278">
            148 callsubr
            13 return
          </CharString>
          <CharString index="279">
            500 504 -21 return
          </CharString>
          <CharString index="280">
            -21 186 -20 return
          </CharString>
          <CharString index="281">
            -97 112 hhcurveto
            hintmask 0010000000000000
            116 118 96 127 return
          </CharString>
          <CharString index="282">
            rmoveto
            -11 17 rlineto
            -41 -56 -58 -30 -51 hhcurveto
            -40 -26 17 20 return
          </CharString>
          <CharString index="283">
            -22 28 71 116 144 23 118 101 62 25 hstemhm
            return
          </CharString>
          <CharString index="284">
            hlineto
            -85 callsubr
            return
          </CharString>
          <CharString index="285">
            500 534 -21 185 -20 21 -20 hstemhm
            hintmask 00100000
            return
          </CharString>
          <CharString index="286">
            hlineto
            8 8 6 9 1 hvcurveto
            8 2 -6 7 -8 hhcurveto
            return
          </CharString>
          <CharString index="287">
            500 -211 47 153 22 -17 31 401 22 return
          </CharString>
          <CharString index="288">
            389 -11 64 callgsubr
            return
          </CharString>
          <CharString index="289">
            -13 callsubr
            112 3 rlineto
            return
          </CharString>
          <CharString index="290">
            hvcurveto
            -188 -338 -74 336 rlineto
            13 -3 -2 0 return
          </CharString>
          <CharString index="291">
            rrcurveto
            18 -26 -29 12 -36 hhcurveto
            -73 -77 -38 -67 -11 hvcurveto
            return
          </CharString>
          <CharString index="292">
            40 rmoveto
            -84 hlineto
            154 920 rlineto
            84 hlineto
            endchar
          </CharString>
          <CharString index="293">
            -21 134 38 hstem
            return
          </CharString>
          <CharString index="294">
            hlineto
            5 30 rlineto
            return
          </CharString>
          <CharString index="295">
            92 0 102 -12 102 -58 92 43 92 hintmask 0001110101000000
            return
          </CharString>
          <CharString index="296">
            91 -46 106 277 -20 101 106 hstemhm
            168 106 return
          </CharString>
          <CharString index="297">
            hvcurveto
            hintmask 00100000
            22 10 22 11 19 14 rrcurveto
            endchar
          </CharString>
          <CharString index="298">
            -34 -5 20 -14 23 hhcurveto
            28 22 20 26 4 hvcurveto
            return
          </CharString>
          <CharString index="299">
            392 210 callsubr
            return
          </CharString>
          <CharString index="300">
            11 18 3 hvcurveto
            3 17 return
          </CharString>
          <CharString index="301">
            100 72 callsubr
            return
          </CharString>
          <CharString index="302">
            27 5 41 callgsubr
            return
          </CharString>
          <CharString index="303">
            -194 31 152 22 return
          </CharString>
          <CharString index="304">
            84 206 callsubr
            return
          </CharString>
          <CharString index="305">
            -11 -10 -9 -11 -2 hvcurveto
            return
          </CharString>
          <CharString index="306">
            -200 106 83 return
          </CharString>
          <CharString index="307">
            92 -59 92 -91 90 215 92 hintmask 0000011010000000
            return
          </CharString>
          <CharString index="308">
            91 callsubr
            208 callsubr
            return
          </CharString>
          <CharString index="309">
            -35 -23 -26 rrcurveto
            -29 -26 -26 -2 -18 hhcurveto
            -1 return
          </CharString>
          <CharString index="310">
            750 -35 39 -26 26 -26 39 hstemhm
            76 26 return
          </CharString>
          <CharString index="311">
            hhcurveto
            0 -4 0 -2 -1 vhcurveto
            return
          </CharString>
          <CharString index="312">
            31 227 -20 414 31 return
          </CharString>
          <CharString index="313">
            173 callsubr
            hstemhm
            return
          </CharString>
          <CharString index="314">
            38 134 -20 return
          </CharString>
          <CharString index="315">
            hstemhm
            111 25 return
          </CharString>
          <CharString index="316">
            hstemhm
            149 89 -79 97 -19 89 43 97 return
          </CharString>
          <CharString index="317">
            129 callsubr
            146 callsubr
            return
          </CharString>
          <CharString index="318">
            rmoveto
            3 19 rlineto
            -72 hlineto
            45 273 rlineto
            return
          </CharString>
          <CharString index="319">
            0 31 -27 27 366 31 44 -20 hstemhm
            return
          </CharString>
          <CharString index="320">
            625 0 205 callsubr
            return
          </CharString>
          <CharString index="321">
            -34 hvcurveto
            -205 return
          </CharString>
          <CharString index="322">
            7 -9 11 hhcurveto
            return
          </CharString>
        <CharString name=".notdef">
          280 endchar
        </CharString>
        <CharString name="A">
          4 callsubr
          hstem
          -106 callgsubr
          endchar
        </CharString>
        <CharString name="AE">
          -39 callsubr
        </CharString>
        <CharString name="AE.dup">
          -39 callsubr
        </CharString>
        <CharString name="AEacute">
          903 0 31 282 31 308 31 147 callsubr
          468 83 -78 83 -3 83 84 25 19 25 103 25 -20 25 hintmask 1100010111100000
          917 258 rmoveto
          -25 hlineto
          -148 -50 -26 -79 -168 hhcurveto
          -95 -42 callgsubr
          40 242 rlineto
          85 hlineto
          94 4 -33 -84 79 callsubr
          -84 -14 -15 -33 -94 hhcurveto
          hintmask 1110001000010000
          -85 hlineto
          45 268 rlineto
          33 6 3 7 47 hhcurveto
          95 hlineto
          142 10 -58 -136 -7 hvcurveto
          25 hlineto
          10 225 rlineto
          -560 177 callsubr
          45 hlineto
          13 14 -1 13 hhcurveto
          -291 -553 rlineto
          -39 -20 -34 -28 -70 71 callsubr
          1 22 41 2 40 hhcurveto
          114 -3 5 31 -50 1 -20 24 5 25 rlinecurve
          1 8 0 1 7 13 110 210 rcurveline
          hintmask 1100010000100000
          161 hlineto
          -39 -237 rlineto
          -45 -8 -11 0 -66 71 callsubr
          493 hlineto
          -359 344 rmoveto
          -150 hlineto
          160 304 41 -1 -5 -27 -2 -16 rlinecurve
          hintmask 0100001000000000
          hintmask 0001100000000000
          216 263 -97 callsubr
        </CharString>
        <CharString name="Aacute">
          4 callsubr
          71 -21 163 -103 callsubr
          214 283 -97 callsubr
        </CharString>
        <CharString name="Abreve">
          4 callsubr
          50 38 134 -12 callgsubr
          endchar
        </CharString>
        <CharString name="Abreveacute">
          4 callsubr
          50 38 317 -12 callgsubr
          -24 141 -97 callsubr
        </CharString>
        <CharString name="Abrevedotbelow">
          136 callsubr
          50 207 callsubr
          hstemhm
          296 107 hintmask 01111100
          -106 callgsubr
          12 callsubr
          hintmask 10000010
          -275 -1065 -99 callsubr
        </CharString>
        <CharString name="Abrevegrave">
          4 callsubr
          50 38 134 -12 callgsubr
          -39 41 3 callgsubr
        </CharString>
        <CharString name="Abrevehookabove">
          4 callsubr
          50 38 343 -12 callgsubr
          -28 142 rmoveto
          3 21 -8 19 -16 125 callsubr
          2 17 -9 11 -13 2 rrcurveto
          11 14 22 7 23 hhcurveto
          15 15 28 callsubr
          0 101 callgsubr
          4 160 callgsubr
          20 8 14 16 4 19 rrcurveto
          endchar
        </CharString>
        <CharString name="Abrevetilde">
          4 callsubr
          50 38 174 45 3 45 -105 callgsubr
          hintmask 00011100
          12 callsubr
          37 118 -93 callgsubr
        </CharString>
        <CharString name="Acaron">
          4 callsubr
          61 -21 133 -103 callsubr
          226 269 -47 callsubr
        </CharString>
        <CharString name="Acircumflex">
          4 callsubr
          61 -21 133 -103 callsubr
          142 callgsubr
          endchar
        </CharString>
        <CharString name="Acircumflexacute">
          4 callsubr
          61 -21 316 -103 callsubr
          142 callgsubr
          9 274 -97 callsubr
        </CharString>
        <CharString name="Acircumflexdotbelow">
          136 callsubr
          61 -21 133 -20 hstemhm
          296 107 hintmask 01111100
          -106 callgsubr
          142 callgsubr
          hintmask 10000010
          -234 -883 -99 callsubr
        </CharString>
        <CharString name="Acircumflexgrave">
          4 callsubr
          61 -21 133 -103 callsubr
          209 168 18 callgsubr
        </CharString>
        <CharString name="Acircumflexhookabove">
          4 callsubr
          61 -21 342 -103 callsubr
          209 168 -47 callgsubr
        </CharString>
        <CharString name="Acircumflextilde">
          4 callsubr
          61 -21 173 45 3 45 -105 callgsubr
          hintmask 00011100
          209 168 -39 callgsubr
        </CharString>
        <CharString name="Adblgrave">
          4 callsubr
          71 -21 186 -103 callsubr
          153 174 -97 callgsubr
        </CharString>
        <CharString name="Adieresis">
          4 callsubr
          40 95 hstemhm
          353 97 113 97 hintmask 11100000
          -106 callgsubr
          hintmask 00011100
          8 200 -81 callsubr
        </CharString>
        <CharString name="Adotbelow">
          136 callsubr
          hstemhm
          296 107 hintmask 01110000
          -106 callgsubr
          hintmask 10001000
          -39 -731 -99 callsubr
        </CharString>
        <CharString name="Agrave">
          4 callsubr
          71 -21 163 -103 callsubr
          130 183 -62 callgsubr
        </CharString>
        <CharString name="Ahookabove">
          4 callsubr
          83 -21 209 -103 callsubr
          180 316 -103 callgsubr
          5 126 callsubr
          4 -66 callsubr
        </CharString>
        <CharString name="Alpha">
          4 callsubr
          hstem
          -106 callgsubr
          endchar
        </CharString>
        <CharString name="Amacron">
          4 callsubr
          60 31 -105 callgsubr
          hintmask 00010000
          240 172 -44 callsubr
        </CharString>
        <CharString name="Aogonek">
          750 -211 47 164 37 callgsubr
          -20 hstem
          -19 callsubr
          endchar
        </CharString>
        <CharString name="Aogonekacute">
          750 -211 47 164 37 callgsubr
          -20 71 124 callgsubr
          hintmask 11110000
          -19 callsubr
          hintmask 00001100
          214 283 -97 callsubr
        </CharString>
        <CharString name="Aring">
          9 callgsubr
          30 116 30 -105 callgsubr
          hintmask 00110000
          130 220 -50 callsubr
        </CharString>
        <CharString name="Aringacute">
          9 callgsubr
          30 116 30 141 30 12 -20 -105 callgsubr
          hintmask 00110100
          130 220 -80 callsubr
          45 228 rmoveto
          22 8 -14 20 -22 hhcurveto
          hintmask 00001000
          38 callgsubr
        </CharString>
        <CharString name="Atilde">
          4 callsubr
          40 45 3 45 -102 callgsubr
          236 230 -93 callgsubr
        </CharString>
        <CharString name="B">
          -21 callgsubr
        </CharString>
        <CharString name="Beta">
          -21 callgsubr
        </CharString>
        <CharString name="C">
          122 callsubr
          hstem
          113 103 vstem
          -77 callsubr
          -207 -34 135 -157 186 hhcurveto
          163 122 139 116 19 hvcurveto
          endchar
        </CharString>
        <CharString name="Cacute">
          122 callsubr
          62 124 callgsubr
          113 103 hintmask 11001000
          -77 callsubr
          -207 -34 135 -157 186 hhcurveto
          163 122 139 116 19 hvcurveto
          hintmask 00110000
          -26 634 -97 callsubr
        </CharString>
        <CharString name="Ccaron">
          122 callsubr
          52 -21 133 -20 216 callgsubr
          hintmask 11001000
          -77 callsubr
          -207 -34 135 -157 186 hhcurveto
          163 122 139 116 19 hvcurveto
          hintmask 00110000
          -14 620 -47 callsubr
        </CharString>
        <CharString name="Ccedilla">
          122 callsubr
          hstem
          113 103 203 103 vstem
          -77 callsubr
          -32 -195 117 -150 170 -17 -12 -72 rcurveline
          -3 callsubr
          148 callgsubr
          7 45 154 10 112 133 19 111 rlinecurve
          endchar
        </CharString>
        <CharString name="Ccircumflex">
          122 callsubr
          52 -21 133 -20 216 callgsubr
          hintmask 11001000
          -77 callsubr
          -207 -34 135 -157 186 hhcurveto
          163 122 139 116 19 hvcurveto
          hintmask 00110000
          -31 519 -37 callsubr
        </CharString>
        <CharString name="Cdotaccent">
          122 callsubr
          53 106 216 callgsubr
          262 107 hintmask 11010000
          -77 callsubr
          -207 -34 135 -157 186 hhcurveto
          163 122 139 116 19 hvcurveto
          hintmask 00101000
          -119 578 -99 callsubr
        </CharString>
        <CharString name="Chi">
          -33 callgsubr
        </CharString>
        <CharString name="D">
          764 196 callgsubr
          382 100 181 100 vstem
          -61 callsubr
          endchar
        </CharString>
        <CharString name="Dcaron">
          764 73 callgsubr
          134 callsubr
          382 100 181 100 hintmask 11001100
          -61 callsubr
          hintmask 00110000
          -47 517 -47 callsubr
        </CharString>
        <CharString name="Dcroat">
          -21 callsubr
        </CharString>
        <CharString name="Ddotbelow">
          764 99 callgsubr
          hstemhm
          244 107 31 100 181 100 hintmask 01101100
          -61 callsubr
          hintmask 10010000
          -312 -483 -99 callsubr
        </CharString>
        <CharString name="Delta">
          833 0 76 640 -20 hstem
          48 738 vstem
          786 8 rmoveto
          0 1 3 -4 9 vhcurveto
          -225 678 rlineto
          13 -4 -2 5 -17 hhcurveto
          -17 -2 -5 -13 -10 hvcurveto
          -451 -678 rlineto
          -6 -9 -1 -3 0 vvcurveto
          -8 -1 6 0 16 hhcurveto
          694 hlineto
          16 6 0 8 1 hvcurveto
          -120 68 rmoveto
          -539 hlineto
          360 540 rlineto
          endchar
        </CharString>
        <CharString name="Dlinebelow">
          764 -162 31 131 106 callsubr
          hstemhm
          382 100 181 100 hintmask 01111000
          -61 callsubr
          hintmask 10010000
          -186 -498 -44 callsubr
        </CharString>
        <CharString name="E">
          -14 callgsubr
          hstemhm
          371 89 0 25 19 25 141 25 -20 25 hintmask 1100100100000000
          -88 callgsubr
          hintmask 1111011010000000
          -102 callsubr
          hintmask 0000000100000000
          endchar
        </CharString>
        <CharString name="Eacute">
          -14 callgsubr
          87 -21 163 -100 callgsubr
          hintmask 0000110000000000
          11 867 -97 callsubr
        </CharString>
        <CharString name="Ebreve">
          -14 callgsubr
          66 38 134 -100 callgsubr
          hintmask 0000110000000000
          33 918 100 callgsubr
          -73 -47 -59 hhcurveto
          -63 -55 49 callsubr
        </CharString>
        <CharString name="Ecaron">
          -14 callgsubr
          77 -21 133 -100 callgsubr
          hintmask 0000110000000000
          23 853 -47 callsubr
        </CharString>
        <CharString name="Ecircumflex">
          -14 callgsubr
          77 -21 133 -100 callgsubr
          hintmask 0000110100000000
          6 142 callsubr
        </CharString>
        <CharString name="Ecircumflexacute">
          -14 callgsubr
          77 -21 316 -100 callgsubr
          hintmask 0000110100000000
          24 callsubr
          9 274 -97 callsubr
        </CharString>
        <CharString name="Ecircumflexdotbelow">
          681 129 callsubr
          16 callgsubr
          77 -21 133 -20 hstemhm
          261 107 3 89 0 25 19 25 141 25 -20 25 hintmask 0110000010010000
          -88 callgsubr
          hintmask 0111100001101000
          -102 callsubr
          hintmask 0000011001010000
          24 callsubr
          hintmask 1000000100000000
          -234 -883 -99 callsubr
        </CharString>
        <CharString name="Ecircumflexgrave">
          -14 callgsubr
          77 -21 133 -100 callgsubr
          hintmask 0000110100000000
          6 752 18 callgsubr
        </CharString>
        <CharString name="Ecircumflexhookabove">
          -14 callgsubr
          77 -21 342 -100 callgsubr
          hintmask 0000110100000000
          6 752 -47 callgsubr
        </CharString>
        <CharString name="Ecircumflextilde">
          -14 callgsubr
          77 -21 173 45 3 45 hstemhm
          371 89 0 25 19 25 141 25 -20 25 hintmask 1100000100100000
          -88 callgsubr
          hintmask 1111000011010000
          -102 callsubr
          hintmask 0000000000100000
          hintmask 0000111010000000
          6 752 -39 callgsubr
        </CharString>
        <CharString name="Edblgrave">
          -14 callgsubr
          87 -21 186 -100 callgsubr
          hintmask 0000110010000000
          -22 758 -97 callgsubr
        </CharString>
        <CharString name="Edieresis">
          -14 callgsubr
          56 95 hstemhm
          318 97 -44 89 0 25 19 25 -1 97 45 25 -20 25 hintmask 1100001000100000
          -88 callgsubr
          hintmask 1111000110010000
          -102 callsubr
          hintmask 0000000000100000
          hintmask 0000110001000000
          -195 784 -81 callsubr
        </CharString>
        <CharString name="Edotaccent">
          -14 callgsubr
          78 106 hstemhm
          371 89 -39 107 -68 25 19 25 141 25 -20 25 hintmask 1100010001000000
          -88 callgsubr
          hintmask 1111000110100000
          -102 callsubr
          hintmask 0000000001000000
          hintmask 0000101000000000
          -82 811 -99 callsubr
        </CharString>
        <CharString name="Edotbelow">
          681 129 callsubr
          16 callgsubr
          hstemhm
          261 107 3 89 0 25 19 25 141 25 -20 25 hintmask 0110001001000000
          -88 callgsubr
          hintmask 0111100110100000
          -102 callsubr
          hintmask 0000000001000000
          hintmask 1000010000000000
          -242 -147 -99 callsubr
        </CharString>
        <CharString name="Egrave">
          -14 callgsubr
          87 -21 163 -100 callgsubr
          hintmask 0000110000000000
          -73 767 -62 callgsubr
        </CharString>
        <CharString name="Ehookabove">
          -14 callgsubr
          99 -21 209 -100 callgsubr
          hintmask 0000111000000000
          -23 900 -103 callgsubr
          5 126 callsubr
          4 -66 callsubr
        </CharString>
        <CharString name="Emacron">
          -14 callgsubr
          76 31 hstemhm
          371 89 0 25 19 25 141 25 -20 25 hintmask 1100010010000000
          -88 callgsubr
          hintmask 1111001101000000
          -102 callsubr
          hintmask 0000000010000000
          hintmask 0000100000000000
          37 756 -44 callsubr
        </CharString>
        <CharString name="Eng">
          750 -22 92 -70 106 callsubr
          -4 26 106 callgsubr
          102 329 102 hintmask 00010000
          770 342 rmoveto
          190 32 -93 173 -178 hhcurveto
          -76 -73 -35 -55 -54 hvcurveto
          hintmask 00100100
          11 68 rlineto
          -2 -15 -15 -1 -15 hhcurveto
          -39 -79 68 callsubr
          26 hlineto
          43 callgsubr
          hintmask 01011010
          -74 callsubr
          -71 callsubr
          -26 hlineto
          42 callsubr
          82 493 rlineto
          65 49 77 43 80 hhcurveto
          143 27 -172 -165 -28 hvcurveto
          -21 -129 -25 -150 -73 -46 1 7 rcurveline
          hintmask 10000010
          192 callgsubr
          -25 -4 17 -21 25 hhcurveto
          155 89 185 179 30 hvcurveto
          endchar
        </CharString>
        <CharString name="Eogonek">
          150 callgsubr
          hstemhm
          279 48 44 89 -48 48 hintmask 0011000101000000
          695 258 rmoveto
          -25 hlineto
          -154 -51 -35 -73 -172 hhcurveto
          -133 -42 callgsubr
          44 267 rlineto
          hintmask 0001110110000000
          -10 callgsubr
          endchar
        </CharString>
        <CharString name="Eogonekacute">
          150 callgsubr
          87 124 callgsubr
          279 48 44 89 -48 48 hintmask 0011000001010000
          695 258 rmoveto
          -25 hlineto
          -154 -51 -35 -73 -172 hhcurveto
          -133 -42 callgsubr
          44 267 rlineto
          hintmask 0001110001100000
          -10 callgsubr
          hintmask 0000000110000000
          11 867 -97 callsubr
        </CharString>
        <CharString name="Epsilon">
          -14 callgsubr
          hstemhm
          371 89 0 25 19 25 141 25 -20 25 hintmask 1100100100000000
          -88 callgsubr
          hintmask 1111011010000000
          -102 callsubr
          hintmask 0000000100000000
          endchar
        </CharString>
        <CharString name="Ereversed">
          -14 callgsubr
          hstemhm
          76 25 36 25 112 25 19 25 0 89 hintmask 1111010010000000
          652 hmoveto
          -49 callsubr
          87 524 rlineto
          36 6 4 11 77 hhcurveto
          24 47 callsubr
          -563 hlineto
          -65 -225 rlineto
          25 hlineto
          139 39 36 55 153 hhcurveto
          129 hlineto
          47 1 -7 -33 -5 hvcurveto
          -40 -240 rlineto
          -90 hlineto
          -97 -6 31 86 14 hvcurveto
          hintmask 1110101100000000
          -25 hlineto
          -44 -265 rlineto
          25 hlineto
          85 14 16 32 97 hhcurveto
          90 hlineto
          -44 -267 rlineto
          -33 -6 -3 -7 -47 hhcurveto
          -133 hlineto
          -172 -11 73 154 1 hvcurveto
          -25 hlineto
          -1 -258 rlineto
          endchar
        </CharString>
        <CharString name="Eta">
          103 callgsubr
          106 callgsubr
          89 211 89 -1 89 hintmask 10000100
          716 hmoveto
          -49 callsubr
          hintmask 01101010
          88 527 -101 callsubr
          -39 -234 rlineto
          -299 hlineto
          39 234 -101 callsubr
          hintmask 11010100
          -88 -527 -77 callgsubr
          endchar
        </CharString>
        <CharString name="Eth">
          -21 callsubr
        </CharString>
        <CharString name="Etilde">
          -14 callgsubr
          56 45 3 45 -100 callsubr
          hintmask 0000110000000000
          33 814 -93 callgsubr
        </CharString>
        <CharString name="Euro">
          627 -22 30 263 30 82 30 262 30 hstemhm
          169 102 276 102 -72 102 hintmask 11111010
          661 540 rmoveto
          26 155 rlineto
          6 1 -4 4 -5 hhcurveto
          -3 hlineto
          -3 -3 -1 -2 -2 hvcurveto
          -46 -42 rlineto
          28 -25 -36 17 -44 hhcurveto
          -81 -80 -43 -64 -61 hvcurveto
          -51 -54 -36 -64 -22 -67 rrcurveto
          -50 hlineto
          -4 -5 -3 -5 -2 hvcurveto
          -4 -10 rlineto
          -6 -3 4 -6 6 hhcurveto
          50 hlineto
          -4 -14 -3 -14 -2 -13 -2 -14 -2 -14 -1 -13 rrcurveto
          -46 hlineto
          -5 -4 -3 -5 -2 hvcurveto
          -5 -10 rlineto
          -6 -3 4 -6 7 hhcurveto
          52 hlineto
          -68 14 -64 34 -54 vhcurveto
          -63 39 66 -44 81 hhcurveto
          44 42 17 28 34 hvcurveto
          hintmask 10000100
          31 -42 rlineto
          -2 2 2 -1 3 hhcurveto
          3 hlineto
          160 callsubr
          26 155 rlineto
          6 1 -4 4 -5 hhcurveto
          hintmask 11111010
          -10 hlineto
          -6 -5 -4 -5 -1 hvcurveto
          -73 -20 -63 -63 -71 hhcurveto
          -62 -46 41 54 -23 hvcurveto
          -22 51 -2 57 5 60 rrcurveto
          256 hlineto
          5 4 184 callgsubr
          -260 hlineto
          6 41 7 41 rlineto
          290 hlineto
          4 5 184 callgsubr
          -291 hlineto
          14 59 22 58 38 51 rrcurveto
          53 42 59 41 62 hhcurveto
          71 42 -62 -74 -4 hvcurveto
          -5 3 -4 5 vhcurveto
          hintmask 00000100
          10 hlineto
          160 callsubr
          endchar
        </CharString>
        <CharString name="F">
          653 0 31 294 31 293 31 hstemhm
          149 89 -2 89 -87 89 125 25 0 25 -6 25 140 25 hintmask 0010100000000000
          686 455 rmoveto
          129 callgsubr
          -549 -68 callsubr
          hintmask 1001000000000000
          107 callsubr
          hintmask 1000100000000000
          -33 hlineto
          hintmask 0101001010000000
          -95 2 13 35 6 hvcurveto
          41 246 rlineto
          86 hlineto
          96 5 -32 -85 79 callsubr
          -84 -14 -16 -33 -96 hhcurveto
          -86 hlineto
          hintmask 0010010101000000
          43 253 rlineto
          33 5 3 7 47 hhcurveto
          120 hlineto
          150 16 -56 -138 -7 hvcurveto
          endchar
        </CharString>
        <CharString name="G">
          785 -22 158 callsubr
          hintmask 11110010
          775 242 rmoveto
          6 31 -123 -3 rlineto
          -40 -85 208 callgsubr
          -6 -31 rlineto
          32 hlineto
          90 2 -11 -37 -7 hvcurveto
          -10 -64 rlineto
          -112 -19 -128 -9 -28 hhcurveto
          -65 -193 35 298 50 hvcurveto
          299 50 202 33 60 hhcurveto
          hintmask 00001000
          107 76 -90 -147 -4 hvcurveto
          -14 -1 -3 14 16 1 3 21 3 vhcurveto
          40 237 rlineto
          hintmask 00100100
          17 2 2 7 -11 hhcurveto
          -4 -4 0 -12 -10 hvcurveto
          hintmask 10110010
          -63 -74 rlineto
          32 -26 -45 54 -99 hhcurveto
          -186 -189 -158 -205 214 callsubr
          -34 133 -159 190 hhcurveto
          hintmask 00001000
          73 85 26 59 44 hvcurveto
          -22 9 33 -40 11 hhcurveto
          hintmask 01000100
          7 callgsubr
          endchar
        </CharString>
        <CharString name="Gacute">
          79 callgsubr
          62 -21 163 -83 callsubr
          -102 625 -97 callsubr
        </CharString>
        <CharString name="Gamma">
          625 0 31 618 31 hstemhm
          149 89 -2 89 -87 89 hintmask 01010000
          658 455 rmoveto
          129 callgsubr
          -521 -68 callsubr
          hintmask 10100000
          107 callsubr
          hintmask 10010000
          -33 hlineto
          hintmask 00100000
          -95 2 13 35 6 hvcurveto
          hintmask 01001000
          89 530 rlineto
          33 5 3 7 47 hhcurveto
          103 hlineto
          143 11 -59 -135 -6 hvcurveto
          endchar
        </CharString>
        <CharString name="Gbreve">
          79 callgsubr
          41 38 134 -83 callsubr
          -80 676 100 callgsubr
          -73 -47 -59 hhcurveto
          -63 -55 49 callsubr
        </CharString>
        <CharString name="Gcaron">
          79 callgsubr
          52 -21 133 -83 callsubr
          -90 611 -47 callsubr
        </CharString>
        <CharString name="Gcedilla">
          -26 callgsubr
          hintmask 1101000100000000
          7 callgsubr
          -363 -387 -98 callgsubr
        </CharString>
        <CharString name="Gcircumflex">
          79 callgsubr
          52 -21 133 -83 callsubr
          -107 510 -37 callsubr
        </CharString>
        <CharString name="Gcommaaccent">
          -26 callgsubr
          hintmask 0001000100000000
          7 callgsubr
          hintmask 1100000000000000
          -363 -387 -98 callgsubr
        </CharString>
        <CharString name="Gdotaccent">
          79 callgsubr
          53 106 216 callgsubr
          257 107 24 103 -37 103 -81 89 hintmask 1110100010000000
          775 242 rmoveto
          6 31 -123 -3 rlineto
          -40 -85 208 callgsubr
          -6 -31 rlineto
          32 hlineto
          90 2 -11 -37 -7 hvcurveto
          -10 -64 rlineto
          -112 -19 -128 -9 -28 hhcurveto
          -65 -193 35 298 50 hvcurveto
          299 50 202 33 60 hhcurveto
          hintmask 0000001000000000
          107 76 -90 -147 -4 hvcurveto
          -14 -1 -3 14 16 1 3 21 3 vhcurveto
          40 237 rlineto
          hintmask 0010000100000000
          17 2 2 7 -11 hhcurveto
          -4 -4 0 -12 -10 hvcurveto
          hintmask 1010100010000000
          -63 -74 rlineto
          32 -26 -45 54 -99 hhcurveto
          -186 -189 -158 -205 214 callsubr
          -34 133 -159 190 hhcurveto
          hintmask 0000001000000000
          73 85 26 59 44 hvcurveto
          -22 9 33 -40 11 hhcurveto
          hintmask 0100000100000000
          7 callgsubr
          hintmask 0001010000000000
          -195 569 -99 callsubr
        </CharString>
        <CharString name="H">
          103 callgsubr
          106 callgsubr
          89 211 89 -1 89 hintmask 10000100
          716 hmoveto
          -49 callsubr
          hintmask 01101010
          88 527 -101 callsubr
          -39 -234 rlineto
          -299 hlineto
          39 234 -101 callsubr
          hintmask 11010100
          -88 -527 -77 callgsubr
          endchar
        </CharString>
        <CharString name="H_uni0303">
          103 callgsubr
          53 45 3 45 71 callgsubr
          211 89 -1 89 hintmask 1000000100000000
          716 hmoveto
          -49 callsubr
          hintmask 0110001010000000
          88 527 -101 callsubr
          -39 -234 rlineto
          -299 hlineto
          39 234 -101 callsubr
          hintmask 1100010100000000
          -88 -527 -77 callgsubr
          hintmask 0001100000000000
          -38 814 -93 callgsubr
        </CharString>
        <CharString name="Hbar">
          750 0 31 309 31 127 30 124 31 hstemhm
          149 89 -19 89 -84 89 -76 89 211 89 -19 89 -84 89 -76 89 hintmask 1000000010000000
          716 hmoveto
          -49 callsubr
          hintmask 0010000001000000
          70 420 rlineto
          103 187 callsubr
          hintmask 0010000000100000
          -103 hlineto
          hintmask 0001000000010000
          13 77 -101 callsubr
          hintmask 0010001000100000
          -13 -77 rlineto
          -299 hlineto
          hintmask 0001000100000000
          13 77 -101 callsubr
          hintmask 0010001000000000
          -13 -77 rlineto
          -103 hlineto
          -5 -30 rlineto
          hintmask 0010010000000000
          103 hlineto
          hintmask 1100100010000000
          -70 -420 -77 callgsubr
          -130 371 rmoveto
          -299 hlineto
          hintmask 0110010001000000
          21 127 rlineto
          299 hlineto
          endchar
        </CharString>
        <CharString name="Hbrevebelow">
          750 -233 207 callsubr
          81 31 309 31 281 140 callgsubr
          211 89 -1 89 hintmask 0010000100000000
          716 hmoveto
          -49 callsubr
          hintmask 0001101010000000
          88 527 -101 callsubr
          -39 -234 rlineto
          -299 hlineto
          39 234 -101 callsubr
          hintmask 0011010100000000
          -88 -527 -77 callgsubr
          hintmask 1100010000000000
          -201 -61 rmoveto
          20 callgsubr
        </CharString>
        <CharString name="Hcircumflex">
          103 callgsubr
          74 -21 133 -20 71 callgsubr
          211 89 -1 89 hintmask 1000000100000000
          716 hmoveto
          -49 callsubr
          hintmask 0110001010000000
          88 527 -101 callsubr
          -39 -234 rlineto
          -299 hlineto
          39 234 -101 callsubr
          hintmask 1100010100000000
          -88 -527 -77 callgsubr
          hintmask 0001100000000000
          -65 142 callsubr
        </CharString>
        <CharString name="Hdieresis">
          103 callgsubr
          53 95 71 callgsubr
          27 97 87 89 -63 97 -35 89 hintmask 1000000100000000
          716 hmoveto
          -49 callsubr
          hintmask 0110010001000000
          88 527 -101 callsubr
          -39 -234 rlineto
          -299 hlineto
          39 234 -101 callsubr
          hintmask 1100101100000000
          -88 -527 -77 callgsubr
          hintmask 0001001010000000
          -266 784 -81 callsubr
        </CharString>
        <CharString name="Hdotbelow">
          170 callgsubr
          309 31 281 140 callgsubr
          -30 107 134 89 -1 89 hintmask 0100000100000000
          716 hmoveto
          -49 callsubr
          hintmask 0011010010000000
          88 527 -101 callsubr
          -39 -234 rlineto
          -299 hlineto
          39 234 -101 callsubr
          hintmask 0110100100000000
          -88 -527 -77 callgsubr
          hintmask 1000001000000000
          -313 -147 -99 callsubr
        </CharString>
        <CharString name="I">
          361 0 132 callgsubr
          hintmask 10100000
          -33 callsubr
          hintmask 01010000
          -86 callsubr
          hintmask 10100000
          -74 callsubr
          endchar
        </CharString>
        <CharString name="I_J">
          839 -22 22 0 31 -31 112 -54 112 -22 22 482 31 hstemhm
          312 112 -86 86 -86 112 cntrmask 0000001110000000
          hintmask 0100111110000000
          -33 callsubr
          -86 callsubr
          -74 callsubr
          566 10 callgsubr
          hintmask 0001001110000000
          38 callsubr
          hintmask 0010001110000000
          -22 -36 -14 -44 -7 hvcurveto
          hintmask 1000011110000000
          9 callsubr
          endchar
        </CharString>
        <CharString name="Iacute">
          62 callgsubr
          84 -21 163 -76 callsubr
          129 867 -97 callsubr
        </CharString>
        <CharString name="Ibreve">
          62 callgsubr
          63 38 134 -76 callsubr
          151 918 100 callgsubr
          -73 -47 -59 hhcurveto
          -63 -55 49 callsubr
        </CharString>
        <CharString name="Icaron">
          62 callgsubr
          74 -21 133 -76 callsubr
          141 853 -47 callsubr
        </CharString>
        <CharString name="Icircumflex">
          62 callgsubr
          74 -21 133 -20 -64 callsubr
          hintmask 00110100
          124 142 callsubr
        </CharString>
        <CharString name="Idblgrave">
          62 callgsubr
          84 -21 186 -76 callsubr
          96 758 -97 callgsubr
        </CharString>
        <CharString name="Idieresis">
          62 callgsubr
          53 95 209 callsubr
          113 callsubr
          hintmask 01000100
          -6 callgsubr
          hintmask 00101010
          -77 784 -81 callsubr
        </CharString>
        <CharString name="Idieresisacute">
          62 callgsubr
          53 95 83 -21 163 -20 209 callsubr
          hintmask 1000010000000000
          -33 callsubr
          hintmask 0100000100000000
          -86 callsubr
          hintmask 1000010000000000
          -74 callsubr
          hintmask 0011101010000000
          -77 784 -95 callsubr
          21 230 -97 callsubr
        </CharString>
        <CharString name="Idotaccent">
          62 callgsubr
          75 106 71 callgsubr
          -65 107 -24 callgsubr
          hintmask 00100100
          35 811 -99 callsubr
        </CharString>
        <CharString name="Idotbelow">
          361 99 callgsubr
          hstemhm
          102 107 -60 89 -1 89 hintmask 01001000
          -33 callsubr
          hintmask 00100100
          -86 callsubr
          hintmask 01001000
          -74 callsubr
          hintmask 10010000
          -124 -147 -99 callsubr
        </CharString>
        <CharString name="Igrave">
          62 callgsubr
          84 -21 163 -76 callsubr
          45 767 -62 callgsubr
        </CharString>
        <CharString name="Ihookabove">
          62 callgsubr
          96 -21 209 -76 callsubr
          94 900 -103 callgsubr
          5 126 callsubr
          4 -66 callsubr
        </CharString>
        <CharString name="Imacron">
          62 callgsubr
          73 140 callgsubr
          -24 callgsubr
          hintmask 00100000
          155 756 -44 callsubr
        </CharString>
        <CharString name="Imacron.alt">
          62 callgsubr
          73 140 callgsubr
          -24 callgsubr
          hintmask 00100000
          72 756 133 callgsubr
          120 -45 0 120 hhcurveto
          endchar
        </CharString>
        <CharString name="Iogonek">
          361 133 callsubr
          0 47 527 47 0 140 callgsubr
          hintmask 11000000
          314 35 callgsubr
          12 18 17 16 19 18 22 15 23 11 rrcurveto
          37 41 -1 -2 23 hvcurveto
          -71 callsubr
          -26 hlineto
          hintmask 00100100
          42 callsubr
          hintmask 00010010
          85 callgsubr
          5 11 79 hhcurveto
          26 hlineto
          hintmask 00001000
          -71 callsubr
          -3 -36 -79 0 -38 hhcurveto
          -39 -79 68 callsubr
          26 hlineto
          hintmask 00010010
          43 callgsubr
          hintmask 00100100
          -88 -527 rlineto
          -36 -6 -5 -11 -79 hhcurveto
          -26 hlineto
          hintmask 11000000
          108 callgsubr
          endchar
        </CharString>
        <CharString name="Iogonekacute">
          361 133 callsubr
          0 47 527 47 0 31 84 -21 163 -20 71 callgsubr
          hintmask 1100000000000000
          314 35 callgsubr
          12 18 17 16 19 18 22 15 23 11 rrcurveto
          37 41 -1 -2 23 hvcurveto
          -71 callsubr
          -26 hlineto
          hintmask 0010000100000000
          42 callsubr
          hintmask 0001000010000000
          85 callgsubr
          5 11 79 hhcurveto
          26 hlineto
          hintmask 0000100000000000
          -71 callsubr
          -3 -36 -79 0 -38 hhcurveto
          -39 -79 68 callsubr
          26 hlineto
          hintmask 0001000010000000
          43 callgsubr
          hintmask 0010000100000000
          -88 -527 rlineto
          -36 -6 -5 -11 -79 hhcurveto
          -26 hlineto
          hintmask 1100000000000000
          108 callgsubr
          hintmask 0000011000000000
          148 982 -97 callsubr
        </CharString>
        <CharString name="Iota">
          361 0 132 callgsubr
          hintmask 10100000
          -33 callsubr
          hintmask 01010000
          -86 callsubr
          hintmask 10100000
          -74 callsubr
          endchar
        </CharString>
        <CharString name="Itilde">
          62 callgsubr
          53 45 3 45 -75 callgsubr
          151 814 -93 callgsubr
        </CharString>
        <CharString name="J">
          118 callgsubr
          hstemhm
          60 112 hintmask 01011000
          574 10 callgsubr
          hintmask 00100100
          38 callsubr
          hintmask 01000100
          -22 -36 -14 -44 -7 hvcurveto
          hintmask 10001000
          9 callsubr
          endchar
        </CharString>
        <CharString name="J_uni030C.cap">
          513.88889 -22 22 0 112 -54 112 -22 22 310 -21 145 79 -31 31 hstemhm
          60 112 hintmask 00000010
          574 32 callsubr
          -130 -3 rlineto
          -42 -88 0 3 -37 125 callgsubr
          36 hlineto
          hintmask 01010100
          98 -2 -13 -35 -6 hvcurveto
          -76 -456 rlineto
          -92 -16 -59 -56 -53 hhcurveto
          hintmask 00100001
          38 callsubr
          hintmask 01000001
          -22 -36 -14 -44 -7 hvcurveto
          hintmask 10000010
          9 callsubr
          117 -48 rmoveto
          48 8 -13 31 -30 hhcurveto
          -26 -17 -20 -20 -4 hvcurveto
          hintmask 00001100
          -19 -3 10 -20 27 hhcurveto
          11 11 4 8 10 hvcurveto
          -9 -60 -29 -45 -39 -36 rrcurveto
          -4 -4 -2 -1 -3 vvcurveto
          -5 -1 4 -3 4 hhcurveto
          9 68 59 86 15 hvcurveto
          endchar
        </CharString>
        <CharString name="Jacute">
          118 callgsubr
          84 -21 163 7 callsubr
          24 215 -97 callsubr
        </CharString>
        <CharString name="Jcircumflex">
          118 callgsubr
          74 -21 133 7 callsubr
          19 100 -37 callsubr
        </CharString>
        <CharString name="K">
          778 0 97 callgsubr
          hintmask 11011000
          -57 callsubr
          hintmask 10101000
          -38 callsubr
          endchar
        </CharString>
        <CharString name="Kappa">
          778 0 97 callgsubr
          hintmask 11011000
          -57 callsubr
          hintmask 10101000
          -38 callsubr
          endchar
        </CharString>
        <CharString name="Kcedilla">
          778 -269 -21 145 79 66 97 callgsubr
          hintmask 00110110
          -57 callsubr
          hintmask 11101010
          -38 callsubr
          -213 -148 -98 callgsubr
        </CharString>
        <CharString name="Kcommaaccent">
          778 -269 -21 145 79 66 97 callgsubr
          hintmask 00110110
          -57 callsubr
          hintmask 00101010
          -38 callsubr
          hintmask 11000000
          -213 -148 -98 callgsubr
        </CharString>
        <CharString name="L">
          213 callsubr
          hstem
          237 89 274 25 vstem
          -83 callgsubr
          endchar
        </CharString>
        <CharString name="L_uni0303">
          213 callsubr
          53 45 3 45 hstemhm
          237 89 274 25 hintmask 11100110
          -83 callgsubr
          hintmask 00011000
          -66 814 -93 callgsubr
        </CharString>
        <CharString name="Lacute">
          213 callsubr
          147 callsubr
          237 89 274 25 hintmask 11100110
          -83 callgsubr
          hintmask 00011000
          -88 867 -97 callsubr
        </CharString>
        <CharString name="Lambda">
          694 0 31 43 31 611 -20 hstemhm
          32 629 -624 629 hintmask 11101000
          661 -35 callsubr
          -76 -2 6 37 -6 hvcurveto
          -96 621 rlineto
          19 -3 -6 2 -11 hhcurveto
          -16 -2 -4 -17 -8 hvcurveto
          -291 -595 rlineto
          -30 -15 -27 -39 -70 hhcurveto
          hintmask 11010000
          -5 -31 94 3 112 -3 5 31 -54 1 -18 27 4 24 rlinecurve
          1 5 0 3 8 14 227 466 rcurveline
          76 -492 rlineto
          3 -14 -1 -4 0 vvcurveto
          -30 -5 -59 0 -26 206 callgsubr
          36 71 0 38 hhcurveto
          endchar
        </CharString>
        <CharString name="Lcaron">
          625 0 31 227 -20 242 -21 145 79 -31 31 hstemhm
          237 89 274 25 hintmask 11010110
          -31 callgsubr
          89 533 rlineto
          hintmask 11001110
          0 callgsubr
          -91 0 -41 hhcurveto
          -39 -78 0 3 -34 hvcurveto
          -60 callsubr
          521 hlineto
          44 604 rmoveto
          48 8 -13 31 -30 hhcurveto
          -26 -17 -20 -20 -4 hvcurveto
          hintmask 00110000
          -19 -3 10 -20 27 hhcurveto
          11 11 4 8 10 hvcurveto
          -9 -60 -29 -45 -39 -36 rrcurveto
          -4 -4 -2 -1 -3 vvcurveto
          -5 -1 4 -3 4 hhcurveto
          9 68 59 86 15 hvcurveto
          endchar
        </CharString>
        <CharString name="Lcedilla">
          625 29 callgsubr
          66 205 callsubr
          hstem
          237 89 274 25 vstem
          -83 callgsubr
          -221 -145 -98 callgsubr
        </CharString>
        <CharString name="Lcommaaccent">
          625 29 callgsubr
          66 205 callsubr
          hstemhm
          237 89 274 25 hintmask 00111110
          -83 callgsubr
          hintmask 11000000
          -221 -145 -98 callgsubr
        </CharString>
        <CharString name="Ldot">
          625 0 31 227 -20 117 106 191 31 hstemhm
          237 89 181 107 -14 25 hintmask 11111010
          -83 callgsubr
          60 408 rmoveto
          195 callsubr
          hintmask 00100100
          96 callsubr
          endchar
        </CharString>
        <CharString name="Ldotbelow">
          182 callgsubr
          hstemhm
          234 107 -104 89 274 25 hintmask 01110110
          -83 callgsubr
          hintmask 10001000
          -213 -147 -99 callsubr
        </CharString>
        <CharString name="Ldotbelowmacron">
          182 callgsubr
          73 31 hstemhm
          234 107 -104 89 274 25 hintmask 11110011
          -83 callgsubr
          -213 -147 111 callgsubr
          159 903 -44 callsubr
        </CharString>
        <CharString name="Lslash">
          625 196 callgsubr
          237 89 vstem
          -31 callgsubr
          50 298 202 142 -15 26 -180 -126 32 193 rlineto
          0 callgsubr
          -91 0 -41 hhcurveto
          -39 -78 -80 callgsubr
          -44 -264 -101 -71 18 -25 76 54 -37 -221 -79 callsubr
          521 hlineto
          endchar
        </CharString>
        <CharString name="M">
          917 196 callgsubr
          158 28 522 81 14 81 vstem
          -58 callsubr
          endchar
        </CharString>
        <CharString name="Mdotbelow">
          917 99 callgsubr
          hstemhm
          158 28 193 107 222 81 14 81 hintmask 01110110
          -58 callsubr
          hintmask 10001000
          -393 -147 -99 callsubr
        </CharString>
        <CharString name="Mu">
          917 196 callgsubr
          158 28 522 81 14 81 vstem
          -58 callsubr
          endchar
        </CharString>
        <CharString name="N">
          56 callsubr
          hstem
          154 28 499 28 vstem
          -96 callgsubr
          endchar
        </CharString>
        <CharString name="Nacute">
          56 callsubr
          147 callsubr
          154 28 499 28 hintmask 11001100
          -96 callgsubr
          hintmask 00110000
          -169 215 -97 callsubr
        </CharString>
        <CharString name="Ncaron">
          56 callsubr
          134 callsubr
          154 28 499 28 hintmask 11001100
          -96 callgsubr
          hintmask 00110000
          -157 201 -47 callsubr
        </CharString>
        <CharString name="Ncedilla">
          750 202 callgsubr
          hstem
          154 28 499 28 vstem
          -96 callgsubr
          -430 -797 -98 callgsubr
        </CharString>
        <CharString name="Ncommaaccent">
          750 202 callgsubr
          hstemhm
          154 28 499 28 hintmask 00111100
          -96 callgsubr
          hintmask 11000000
          -430 -797 -98 callgsubr
        </CharString>
        <CharString name="Ndotaccent">
          56 callsubr
          53 106 hstemhm
          154 28 270 107 122 28 hintmask 11010100
          -96 callgsubr
          hintmask 00101000
          -266 137 -99 callsubr
        </CharString>
        <CharString name="Ndotbelow">
          750 99 callgsubr
          hstemhm
          154 28 114 107 278 28 hintmask 01110100
          -96 callgsubr
          hintmask 10001000
          -422 -799 -99 callsubr
        </CharString>
        <CharString name="Ntilde">
          56 callsubr
          53 45 3 45 hstemhm
          154 28 499 28 hintmask 11001100
          -96 callgsubr
          hintmask 00110000
          -147 162 -93 callgsubr
        </CharString>
        <CharString name="Nu">
          56 callsubr
          hstem
          154 28 499 28 vstem
          -96 callgsubr
          endchar
        </CharString>
        <CharString name="O">
          36 callsubr
          25 hstem
          -104 callsubr
          endchar
        </CharString>
        <CharString name="OE">
          -44 callgsubr
        </CharString>
        <CharString name="OE.dup">
          -44 callgsubr
        </CharString>
        <CharString name="Oacute">
          36 callsubr
          25 62 -21 163 -92 callgsubr
          -7 514 -97 callsubr
        </CharString>
        <CharString name="Obreve">
          36 callsubr
          25 41 38 134 -92 callgsubr
          15 565 100 callgsubr
          -73 -47 -59 hhcurveto
          -63 -55 49 callsubr
        </CharString>
        <CharString name="Ocaron">
          36 callsubr
          25 52 -21 133 -92 callgsubr
          5 500 -47 callsubr
        </CharString>
        <CharString name="Ocircumflex">
          36 callsubr
          25 52 -21 133 -92 callgsubr
          144 callgsubr
          endchar
        </CharString>
        <CharString name="Ocircumflexacute">
          36 callsubr
          25 52 -21 316 -92 callgsubr
          144 callgsubr
          9 274 -97 callsubr
        </CharString>
        <CharString name="Ocircumflexdotbelow">
          168 callsubr
          25 52 -21 133 -20 hstemhm
          310 107 hintmask 01111000
          -104 callsubr
          144 callgsubr
          hintmask 10000100
          -234 -883 -99 callsubr
        </CharString>
        <CharString name="Ocircumflexgrave">
          36 callsubr
          25 52 -21 133 -92 callgsubr
          -12 399 18 callgsubr
        </CharString>
        <CharString name="Ocircumflexhookabove">
          36 callsubr
          25 52 -21 342 -92 callgsubr
          -12 399 -47 callgsubr
        </CharString>
        <CharString name="Ocircumflextilde">
          36 callsubr
          25 52 -21 173 45 3 45 hstemhm
          hintmask 11000000
          -104 callsubr
          hintmask 00111000
          -12 399 -39 callgsubr
        </CharString>
        <CharString name="Odblgrave">
          36 callsubr
          25 62 -21 186 -92 callgsubr
          -40 405 -97 callgsubr
        </CharString>
        <CharString name="Odieresis">
          36 callsubr
          25 31 95 hstemhm
          367 97 113 97 hintmask 11000000
          -104 callsubr
          hintmask 00111000
          -213 431 -81 callsubr
        </CharString>
        <CharString name="Odotbelow">
          168 callsubr
          25 hstemhm
          310 107 hintmask 01100000
          -104 callsubr
          hintmask 10010000
          -260 -500 -99 callsubr
        </CharString>
        <CharString name="Ograve">
          36 callsubr
          25 62 -21 163 -92 callgsubr
          -91 414 -62 callgsubr
        </CharString>
        <CharString name="Ohookabove">
          36 callsubr
          25 74 -21 209 -92 callgsubr
          -41 547 -103 callgsubr
          5 126 callsubr
          4 -66 callsubr
        </CharString>
        <CharString name="Ohorn">
          36 callsubr
          109 hstem
          -87 callgsubr
          endchar
        </CharString>
        <CharString name="Ohornacute">
          36 callsubr
          109 120 -20 hstemhm
          hintmask 11000000
          -87 callgsubr
          hintmask 00100000
          -34 512 -97 callsubr
        </CharString>
        <CharString name="Ohorndotbelow">
          168 callsubr
          109 hstemhm
          310 107 hintmask 01100000
          -87 callgsubr
          hintmask 10010000
          -259 -502 -99 callsubr
        </CharString>
        <CharString name="Ohorngrave">
          36 callsubr
          109 120 -20 hstemhm
          hintmask 11000000
          -87 callgsubr
          hintmask 00100000
          -90 412 -62 callgsubr
        </CharString>
        <CharString name="Ohornhookabove">
          36 callsubr
          109 178 -20 hstemhm
          hintmask 11000000
          -87 callgsubr
          hintmask 00100000
          -40 545 -103 callgsubr
          5 126 callsubr
          4 -66 callsubr
        </CharString>
        <CharString name="Ohorntilde">
          36 callsubr
          109 -53 45 3 45 hstemhm
          hintmask 01000000
          777 339 rmoveto
          15 95 -17 93 -52 71 -7 9 -7 8 -7 8 43 12 35 43 8 48 rrcurveto
          33 6 -17 30 -31 hhcurveto
          hintmask 10100000
          -35 -23 -27 -26 -4 hvcurveto
          161 callgsubr
          5 4 1 1 4 hvcurveto
          -14 -21 -22 -16 -24 -5 rrcurveto
          39 -47 -61 23 -67 hhcurveto
          -90 -92 -40 -67 -71 hvcurveto
          -76 -71 -50 -93 -15 -95 -16 -95 19 -91 52 -69 rrcurveto
          -66 50 77 -40 90 hhcurveto
          89 92 40 66 72 hvcurveto
          76 69 48 91 16 95 rrcurveto
          -101 16 rmoveto
          -14 -87 -28 -90 -60 -73 rrcurveto
          -58 -48 -68 -43 -69 hhcurveto
          -70 -53 43 58 -29 hvcurveto
          -36 73 2 90 14 87 14 82 28 83 58 66 rrcurveto
          hintmask 01000000
          56 49 67 38 68 hhcurveto
          68 55 -38 -56 30 hvcurveto
          36 -66 0 -83 -14 -82 rrcurveto
          hintmask 00110000
          16 459 -93 callgsubr
        </CharString>
        <CharString name="Ohungarumlaut">
          36 callsubr
          25 62 -21 186 -92 callgsubr
          -135 545 -73 callsubr
        </CharString>
        <CharString name="Omacron">
          36 callsubr
          25 51 31 hstemhm
          hintmask 11000000
          -104 callsubr
          hintmask 00100000
          19 403 -44 callsubr
        </CharString>
        <CharString name="Omega">
          -24 callsubr
        </CharString>
        <CharString name="Omicron">
          36 callsubr
          25 hstem
          -104 callsubr
          endchar
        </CharString>
        <CharString name="Oogonek">
          211 callgsubr
          hstem
          -78 callgsubr
          -32 -191 109 -149 159 -19 -36 -29 -29 -36 -6 -36 137 callsubr
          14 callsubr
          12 18 17 16 7 6 8 7 8 6 rrcurveto
          181 178 159 202 34 hvcurveto
          -101 14 rmoveto
          -265 -44 -151 -84 -92 hhcurveto
          -96 -120 88 261 44 hvcurveto
          259 43 157 68 83 hhcurveto
          87 132 -71 -256 -43 hvcurveto
          endchar
        </CharString>
        <CharString name="Oogonekacute">
          211 callgsubr
          62 124 callgsubr
          hintmask 11100000
          -78 callgsubr
          -32 -191 109 -149 159 -19 -36 -29 -29 -36 -6 -36 137 callsubr
          14 callsubr
          12 18 17 16 7 6 8 7 8 6 rrcurveto
          181 178 159 202 34 hvcurveto
          -101 14 rmoveto
          -265 -44 -151 -84 -92 hhcurveto
          -96 -120 88 261 44 hvcurveto
          259 43 157 68 83 hhcurveto
          87 132 -71 -256 -43 hvcurveto
          hintmask 00011000
          -7 514 -97 callsubr
        </CharString>
        <CharString name="Orogate">
          778 778 339 rmoveto
          33 199 -118 160 -176 7 29 173 rcurveline
          -22 hlineto
          -29 -173 -175 -6 -174 -158 -33 -202 rlinecurve
          -34 -201 123 -154 172 -6 -28 -172 rcurveline
          22 hlineto
          28 172 178 7 171 156 33 198 rlinecurve
          -101 14 rmoveto
          -265 -44 -151 -84 -92 hhcurveto
          -96 -120 88 261 44 hvcurveto
          259 43 157 68 83 hhcurveto
          87 132 -71 -256 -43 hvcurveto
          endchar
        </CharString>
        <CharString name="Oslash">
          152 callsubr
          hstem
          113 89 300 89 98 89 vstem
          -56 callsubr
          endchar
        </CharString>
        <CharString name="Oslash.dup">
          152 callsubr
          hstem
          113 89 300 89 98 89 vstem
          -56 callsubr
          endchar
        </CharString>
        <CharString name="Oslashacute">
          152 callsubr
          48 124 callgsubr
          113 89 300 89 98 89 hintmask 1111001110000000
          -56 callsubr
          hintmask 0000110000000000
          -19 528 -97 callsubr
        </CharString>
        <CharString name="Otilde">
          36 callsubr
          25 31 45 3 45 -92 callsubr
          15 461 -93 callgsubr
        </CharString>
        <CharString name="P">
          -5 callgsubr
        </CharString>
        <CharString name="Phi">
          722 0 31 127 -20 409 -21 126 31 hstemhm
          113 100 116 83 -73 83 -80 83 -21 83 -80 83 -73 83 122 100 hintmask 0000000001000000
          722 341 rmoveto
          17 104 -99 91 -150 12 rrcurveto
          hintmask 0001000000100000
          10 56 87 callsubr
          hintmask 0000100001000000
          -10 -56 -155 -15 -122 -92 -17 -99 rlinecurve
          hintmask 0000001000000000
          -17 -103 96 -89 147 -15 rrcurveto
          hintmask 1000010000000000
          81 callsubr
          hintmask 0000101000010000
          10 56 157 12 126 93 17 101 rlinecurve
          -380 -183 rmoveto
          -138 19 -1 102 10 62 rrcurveto
          hintmask 0000000010000000
          9 52 28 112 154 20 rrcurveto
          hintmask 0100000100000000
          218 -183 rmoveto
          -10 -60 -33 -107 -154 -18 rrcurveto
          hintmask 0010000010010000
          62 369 135 -16 13 -92 -13 -76 rlinecurve
          endchar
        </CharString>
        <CharString name="Pi">
          750 0 31 618 31 hstem
          149 89 299 89 6 89 vstem
          716 hmoveto
          -49 callsubr
          87 524 rlineto
          36 6 4 11 77 hhcurveto
          24 47 callsubr
          -683 hlineto
          -5 -31 rlineto
          24 hlineto
          77 0 -11 -36 -6 hvcurveto
          -87 -524 -70 callsubr
          95 571 rlineto
          299 hlineto
          -95 -571 -76 callgsubr
          endchar
        </CharString>
        <CharString name="Psi">
          778 0 31 102 27 363 31 98 31 hstemhm
          357 83 -73 83 -79 83 -9 83 hintmask 01100010
          811 543 rmoveto
          11 1 -8 0 -16 hhcurveto
          -38 hlineto
          -39 -50 -7 -145 -25 hvcurveto
          -19 -110 -51 -106 -112 -26 rrcurveto
          hintmask 00010001
          74 444 87 callsubr
          hintmask 01100010
          -74 -444 -125 35 20 154 11 65 rlinecurve
          121 19 -41 19 -44 hhcurveto
          -37 hlineto
          -15 -10 0 -11 -1 hvcurveto
          -1 -5 2 -5 6 -1 32 -4 23 -14 -19 -118 -4 -23 -10 -79 37 -67 rrcurveto
          hintmask 00000100
          30 -54 56 -29 67 -9 rrcurveto
          hintmask 10001000
          81 callsubr
          hintmask 00000100
          10 56 73 9 66 30 48 52 rlinecurve
          64 71 14 79 7 44 3 16 16 89 55 7 6 1 7 1 2 9 rrcurveto
          endchar
        </CharString>
        <CharString name="Q">
          778 -194 103 69 25 39 22 62 22 532 25 hstem
          113 100 106 22 337 100 vstem
          725 -10 rmoveto
          10 2 2 11 -11 hhcurveto
          -9 -2 -8 -10 -3 hvcurveto
          -54 -15 -47 -30 -43 hhcurveto
          -47 -20 34 64 -13 hvcurveto
          127 53 106 128 26 151 rrcurveto
          204 34 128 callsubr
          -182 hhcurveto
          -179 -180 -160 -206 -34 hvcurveto
          -202 -34 124 -159 182 hhcurveto
          31 36 6 9 31 hvcurveto
          -95 -1 -1 -92 93 hhcurveto
          102 41 133 51 8 hvcurveto
          -47 349 rmoveto
          -13 -78 -36 -141 -119 -78 rrcurveto
          56 -13 -23 50 -59 hhcurveto
          -51 -38 -43 -41 -7 hvcurveto
          -5 -27 10 -19 1 -2 -51 20 -100 73 39 230 rrcurveto
          260 43 153 81 92 hhcurveto
          97 122 -86 -255 -42 hvcurveto
          -197 -313 rmoveto
          -19 -37 -32 -4 -22 hhcurveto
          -51 -1 46 15 3 hvcurveto
          29 5 26 33 39 hhcurveto
          54 15 -42 -58 1 hvcurveto
          endchar
        </CharString>
        <CharString name="R">
          736 -22 152 callgsubr
          hintmask 10011001
          -82 callgsubr
          hintmask 01101100
          -74 callgsubr
          -24 hlineto
          -77 0 11 36 6 hvcurveto
          42 253 199 callgsubr
          16 42 0 -34 30 hvcurveto
          hintmask 10110011
          -79 callgsubr
          endchar
        </CharString>
        <CharString name="Racute">
          736 -22 56 callgsubr
          84 -21 163 -20 78 callsubr
          hintmask 1001001001000000
          -82 callgsubr
          hintmask 0110001100000000
          -74 callgsubr
          -24 hlineto
          -77 0 11 36 6 hvcurveto
          42 253 199 callgsubr
          16 42 0 -34 30 hvcurveto
          hintmask 1011000011000000
          -79 callgsubr
          hintmask 0000110000000000
          58 364 -97 callsubr
        </CharString>
        <CharString name="Rcaron">
          736 -22 56 callgsubr
          74 -21 133 -20 78 callsubr
          hintmask 1001001001000000
          -82 callgsubr
          hintmask 0110001100000000
          -74 callgsubr
          -24 hlineto
          -77 0 11 36 6 hvcurveto
          42 253 199 callgsubr
          16 42 0 -34 30 hvcurveto
          hintmask 1011000011000000
          -79 callgsubr
          hintmask 0000110000000000
          70 350 -47 callsubr
        </CharString>
        <CharString name="Rcedilla">
          736 171 callgsubr
          152 callgsubr
          hintmask 0010011001000000
          -82 callgsubr
          hintmask 0001101100000000
          -74 callgsubr
          -24 hlineto
          -77 0 11 36 6 hvcurveto
          42 253 199 callgsubr
          16 42 0 -34 30 hvcurveto
          hintmask 1110110011000000
          -79 callgsubr
          -203 -648 -98 callgsubr
        </CharString>
        <CharString name="Rcommaaccent">
          736 171 callgsubr
          152 callgsubr
          hintmask 0010011001000000
          -82 callgsubr
          hintmask 0001101100000000
          -74 callgsubr
          -24 hlineto
          -77 0 11 36 6 hvcurveto
          42 253 199 callgsubr
          16 42 0 -34 30 hvcurveto
          hintmask 0010110011000000
          -79 callgsubr
          hintmask 1100000000000000
          -203 -648 -98 callgsubr
        </CharString>
        <CharString name="Rdblgrave">
          736 -22 56 callgsubr
          84 -21 186 -20 78 callsubr
          hintmask 1001001001000000
          -82 callgsubr
          hintmask 0110001100000000
          -74 callgsubr
          -24 hlineto
          -77 0 11 36 6 hvcurveto
          42 253 199 callgsubr
          16 42 0 -34 30 hvcurveto
          hintmask 1011000011000000
          -79 callgsubr
          hintmask 0000110000000000
          -3 255 -97 callgsubr
        </CharString>
        <CharString name="Rdotaccent">
          736 -22 56 callgsubr
          75 106 139 callgsubr
          -48 107 35 103 hintmask 1001010001000000
          -82 callgsubr
          hintmask 0110011000000000
          -74 callgsubr
          -24 hlineto
          -77 0 11 36 6 hvcurveto
          42 253 199 callgsubr
          16 42 0 -34 30 hvcurveto
          hintmask 1011000101000000
          -79 callgsubr
          hintmask 0000100010000000
          -35 308 -99 callsubr
        </CharString>
        <CharString name="Rdotbelow">
          736 -200 106 72 56 callgsubr
          hstemhm
          151 86 52 107 -88 86 0 103 94 103 hintmask 0100110001000000
          -82 callgsubr
          hintmask 0011010100000000
          -74 callgsubr
          -24 hlineto
          -77 0 11 36 6 hvcurveto
          42 253 199 callgsubr
          16 42 0 -34 30 hvcurveto
          hintmask 0101100011000000
          -79 callgsubr
          hintmask 1000001000000000
          -195 -650 -99 callsubr
        </CharString>
        <CharString name="Rdotbelowmacron">
          736 -200 106 72 56 callgsubr
          73 31 hstemhm
          151 86 52 107 -88 86 0 103 94 103 hintmask 0100101000100000
          -82 callgsubr
          hintmask 0011001010000000
          -74 callgsubr
          -24 hlineto
          -77 0 11 36 6 hvcurveto
          42 253 199 callgsubr
          16 42 0 -34 30 hvcurveto
          hintmask 1101100001100000
          -79 callgsubr
          -195 -650 rmoveto
          195 callsubr
          hintmask 1000000100000000
          44 callgsubr
          -5 hvcurveto
          -27 -4 124 callsubr
          24 28 25 4 hvcurveto
          hintmask 0000010000000000
          279 903 -44 callsubr
        </CharString>
        <CharString name="Rho">
          -5 callgsubr
        </CharString>
        <CharString name="S">
          556 -22 36 callgsubr
          hstem
          90 64 vstem
          530 186 rmoveto
          -99 callgsubr
          rlineto
          -34 25 58 -36 89 hhcurveto
          117 97 98 110 18 hvcurveto
          endchar
        </CharString>
        <CharString name="S_S">
          1111 -22 36 callgsubr
          hstem
          90 64 492 64 vstem
          530 186 rmoveto
          -99 callgsubr
          rlineto
          -34 25 58 -36 89 hhcurveto
          117 97 98 110 18 hvcurveto
          556 hmoveto
          -99 callgsubr
          rlineto
          -34 25 58 -36 89 hhcurveto
          117 97 98 110 18 hvcurveto
          endchar
        </CharString>
        <CharString name="Sacute">
          556 -22 36 callgsubr
          62 124 callgsubr
          90 64 hintmask 11111001
          530 186 rmoveto
          -99 callgsubr
          rlineto
          -34 25 58 -36 89 hhcurveto
          117 97 98 110 18 hvcurveto
          hintmask 00000110
          29 681 -97 callsubr
        </CharString>
        <CharString name="Scaron">
          556 -22 36 callgsubr
          52 -21 133 -20 hstemhm
          90 64 hintmask 11111001
          530 186 rmoveto
          -99 callgsubr
          rlineto
          -34 25 58 -36 89 hhcurveto
          117 97 98 110 18 hvcurveto
          hintmask 00000110
          41 667 -47 callsubr
        </CharString>
        <CharString name="Scedilla">
          556 -22 36 callgsubr
          hstem
          90 64 88 64 vstem
          530 186 rmoveto
          -99 callgsubr
          21 -27 41 -29 61 -10 rlinecurve
          -12 -74 rlineto
          36 38 -9 -32 -5 hvcurveto
          -41 -7 -96 0 -75 hhcurveto
          -13 hlineto
          -4 -26 rlineto
          26 hlineto
          108 134 0 67 11 hvcurveto
          47 8 -52 20 -53 hhcurveto
          7 44 116 1 96 98 18 109 rlinecurve
          endchar
        </CharString>
        <CharString name="Scircumflex">
          556 -22 36 callgsubr
          52 -21 133 -20 hstemhm
          90 64 hintmask 11111001
          530 186 rmoveto
          -99 callgsubr
          rlineto
          -34 25 58 -36 89 hhcurveto
          117 97 98 110 18 hvcurveto
          hintmask 00000110
          24 566 -37 callsubr
        </CharString>
        <CharString name="Sdotbelow">
          556 -200 106 72 36 callgsubr
          hstemhm
          90 64 45 107 hintmask 01111110
          530 186 rmoveto
          -99 callgsubr
          rlineto
          -34 25 58 -36 89 hhcurveto
          117 97 98 110 18 hvcurveto
          hintmask 10000001
          -224 -333 -99 callsubr
        </CharString>
        <CharString name="Sigma">
          722 0 42 -31 31 610 31 hstemhm
          hintmask 01100000
          704 236 rmoveto
          -25 hlineto
          -167 -45 -73 -27 -157 hhcurveto
          -276 hlineto
          298 284 rlineto
          11 10 1 6 0 vvcurveto
          1 5 -3 5 -3 4 -155 296 rcurveline
          231 hlineto
          169 44 -36 -158 -6 hvcurveto
          25 hlineto
          10 225 rlineto
          -555 hlineto
          -24 -2 0 -23 -4 hvcurveto
          189 -362 -283 -271 rlineto
          -12 -11 -1 -2 -3 vvcurveto
          hintmask 10000000
          -11 -2 10 0 15 hhcurveto
          555 hlineto
          endchar
        </CharString>
        <CharString name="T">
          722 0 31 442 -21 194 31 43 callsubr
          hintmask 01110100
          -57 callgsubr
          hintmask 10001010
          -49 callgsubr
          hintmask 01100111
          -27 callgsubr
          endchar
        </CharString>
        <CharString name="T_uni0303">
          164 callgsubr
          59 45 3 45 43 callsubr
          hintmask 0110010100000000
          -57 callgsubr
          hintmask 1000001010000000
          -49 callgsubr
          hintmask 0110000111000000
          -27 callgsubr
          hintmask 0001100000000000
          -71 362 -93 callgsubr
        </CharString>
        <CharString name="T_uni0308">
          164 callgsubr
          59 95 208 callsubr
          193 89 -79 97 -19 89 24 25 -6 97 89 25 hintmask 0110100100000000
          -57 callgsubr
          hintmask 1000010010000000
          -49 callgsubr
          hintmask 0110000110100000
          -27 callgsubr
          hintmask 0001001001000000
          -299 332 -81 callsubr
        </CharString>
        <CharString name="Tau">
          722 0 31 442 -21 194 31 43 callsubr
          hintmask 01110100
          -57 callgsubr
          hintmask 10001010
          -49 callgsubr
          hintmask 01100111
          -27 callgsubr
          endchar
        </CharString>
        <CharString name="Tcaron">
          164 callgsubr
          80 -21 133 -20 43 callsubr
          hintmask 0110010100000000
          -57 callgsubr
          hintmask 1000001010000000
          -49 callgsubr
          hintmask 0110000111000000
          -27 callgsubr
          hintmask 0001100000000000
          -81 401 -47 callsubr
        </CharString>
        <CharString name="Tcedilla">
          722 -200 26 82 26 66 201 callsubr
          193 89 -82 52 29 89 24 25 180 25 hintmask 0001110010000000
          -57 callgsubr
          hintmask 0110001000000000
          -88 -527 rlineto
          -34 -5 -3 -14 -105 hhcurveto
          -40 177 callsubr
          3 35 78 0 51 hhcurveto
          -16 -95 rlineto
          hintmask 1110000101000000
          37 38 -9 -32 -6 hvcurveto
          -41 -7 -95 0 -75 hhcurveto
          -13 hlineto
          -4 -26 rlineto
          26 hlineto
          108 133 0 67 11 hvcurveto
          148 callgsubr
          12 69 rlineto
          51 78 0 -3 34 hvcurveto
          -71 callsubr
          -40 hlineto
          hintmask 0000001000000000
          -105 3 14 34 5 hvcurveto
          hintmask 0001100011100000
          -27 callgsubr
          endchar
        </CharString>
        <CharString name="Tdotbelow">
          722 129 callsubr
          201 callsubr
          146 107 -60 89 -1 89 24 25 180 25 hintmask 0011100100000000
          -57 callgsubr
          hintmask 0100001010000000
          -49 callgsubr
          hintmask 0011000111000000
          -27 callgsubr
          hintmask 1000010000000000
          -346 -599 -99 callsubr
        </CharString>
        <CharString name="Theta">
          778 -22 23 303 76 303 22 hstemhm
          113 97 45 25 -1 25 283 25 -1 25 45 97 hintmask 1111010110000000
          -78 callgsubr
          -205 -35 128 -156 178 119 callgsubr
          -97 hmoveto
          -255 -43 -155 -83 -94 hhcurveto
          -99 -122 86 252 42 hvcurveto
          257 42 154 87 96 hhcurveto
          101 120 -91 -253 -42 hvcurveto
          -69 -69 rmoveto
          24 144 rlineto
          -25 hlineto
          -6 -34 rlineto
          -307 hlineto
          6 34 rlineto
          -25 hlineto
          hintmask 0100101000000000
          -24 -144 rlineto
          25 hlineto
          6 34 rlineto
          307 hlineto
          -6 -34 rlineto
          endchar
        </CharString>
        <CharString name="Thorn">
          625 0 31 147 31 313 31 99 31 hstem
          630 365 rmoveto
          85 14 -53 103 -148 hhcurveto
          -129 hlineto
          9 50 4 29 4 13 31 4 rlinecurve
          3 20 26 0 26 hhcurveto
          5 31 -145 -3 -144 62 callsubr
          29 25 0 -3 20 hvcurveto
          27 -5 -2 -17 -4 -24 -88 -523 rcurveline
          -4 -29 -4 -13 -31 -4 rrcurveto
          -3 -20 -26 0 -26 hhcurveto
          -5 -31 145 3 144 -3 -71 callsubr
          -29 -25 0 3 -20 hvcurveto
          -27 5 2 17 4 24 17 98 rcurveline
          139 hlineto
          122 101 90 97 16 hvcurveto
          -100 1 rmoveto
          -70 -12 -58 -87 -97 hhcurveto
          -106 hlineto
          52 313 rlineto
          111 hlineto
          23 41 0 -46 28 hvcurveto
          25 -42 -4 -48 -3 -20 rrcurveto
          endchar
        </CharString>
        <CharString name="Tlinebelow">
          722 -162 31 131 31 442 -21 194 31 43 callsubr
          hintmask 0011101000000000
          -57 callgsubr
          hintmask 0100010100000000
          -49 callgsubr
          hintmask 0011001110000000
          -27 callgsubr
          hintmask 1000000000000000
          -220 -614 -44 callsubr
        </CharString>
        <CharString name="U">
          15 callsubr
          hstem
          85 callsubr
          vstem
          -106 callsubr
          endchar
        </CharString>
        <CharString name="U_uni032F">
          750 -212 -21 134 38 39 31 565 31 47 31 69 callgsubr
          hintmask 00111110
          -106 callsubr
          hintmask 11000000
          -316 -885 rmoveto
          19 callsubr
          73 102 callgsubr
        </CharString>
        <CharString name="Uacute">
          15 callsubr
          84 -21 163 -94 callgsubr
          -146 215 -97 callsubr
        </CharString>
        <CharString name="Ubreve">
          15 callsubr
          63 38 134 -94 callgsubr
          -124 266 100 callgsubr
          -73 -47 -59 hhcurveto
          -63 -55 49 callsubr
        </CharString>
        <CharString name="Ucaron">
          15 callsubr
          74 -21 133 -94 callgsubr
          -134 201 -47 callsubr
        </CharString>
        <CharString name="Ucircumflex">
          15 callsubr
          74 -21 133 -94 callgsubr
          -151 100 -37 callsubr
        </CharString>
        <CharString name="Udblgrave">
          15 callsubr
          84 -21 186 -94 callgsubr
          -179 106 -97 callgsubr
        </CharString>
        <CharString name="Udieresis">
          15 callsubr
          53 95 118 callsubr
          hintmask 11101001
          -106 callsubr
          hintmask 00010110
          -23 callsubr
          endchar
        </CharString>
        <CharString name="Udieresisacute">
          15 callsubr
          53 95 83 -21 163 -20 118 callsubr
          hintmask 1110001001000000
          -106 callsubr
          hintmask 0001110110000000
          -23 callsubr
          21 230 rmoveto
          22 8 -14 20 -22 hhcurveto
          -12 -11 -8 -4 -5 hvcurveto
          -166 -130 10 -21 rlineto
          hintmask 0000000001000000
          186 94 12 5 10 10 4 12 rlinecurve
          endchar
        </CharString>
        <CharString name="Udieresiscaron">
          15 callsubr
          53 95 73 -21 133 -20 118 callsubr
          hintmask 1110001001000000
          -106 callsubr
          hintmask 0001000110000000
          -23 callsubr
          33 216 rmoveto
          hintmask 0000110001000000
          -7 16 -151 -66 -129 66 -15 -16 132 -117 rlineto
          endchar
        </CharString>
        <CharString name="Udieresisgrave">
          15 callsubr
          53 95 83 -21 163 -20 118 callsubr
          hintmask 1110001001000000
          -106 callsubr
          hintmask 0001110110000000
          -23 callsubr
          -63 130 -62 callgsubr
        </CharString>
        <CharString name="Udotbelow">
          750 -200 106 72 31 565 31 47 31 hstemhm
          237 89 -7 107 252 31 hintmask 01111010
          -106 callsubr
          hintmask 10000100
          -399 -799 -99 callsubr
        </CharString>
        <CharString name="Ugrave">
          15 callsubr
          84 -21 163 -94 callgsubr
          -230 115 -62 callgsubr
        </CharString>
        <CharString name="Uhookabove">
          15 callsubr
          96 -21 209 -94 callgsubr
          -180 248 -103 callgsubr
          5 126 callsubr
          4 -66 callsubr
        </CharString>
        <CharString name="Uhorn">
          67 callgsubr
          106 -20 hstemhm
          620 30 0 30 0 30 cntrmask 0000001110000000
          hintmask 0000111110000000
          77 callsubr
          hintmask 0001001110000000
          -2 -5 -6 -1 -5 hhcurveto
          hintmask 1100101110000000
          -117 3 -5 -30 rlineto
          27 27 -2 -14 20 hvcurveto
          14 -11 7 -18 -3 -19 -60 -361 rcurveline
          -10 -59 -28 -56 -44 -42 rrcurveto
          -40 -43 -53 -23 -53 hhcurveto
          -47 -42 24 38 -22 hvcurveto
          -24 41 -3 52 11 65 rrcurveto
          hintmask 0011001110000000
          65 389 2 12 8 13 13 5 rlinecurve
          6 18 39 0 29 hhcurveto
          hintmask 0000101110000000
          5 30 rlineto
          hintmask 0001001110000000
          -148 -3 rlineto
          hintmask 1010101110000000
          -146 3 -5 -30 rlineto
          29 39 0 -6 17 hvcurveto
          10 -5 4 -13 -2 -12 -65 -389 rcurveline
          -11 -67 15 -63 41 -47 rrcurveto
          -47 39 60 -26 66 hhcurveto
          61 62 27 46 49 hvcurveto
          51 48 32 63 11 66 rrcurveto
          hintmask 0100001110000000
          64 382 63 7 60 46 10 62 rlinecurve
          endchar
        </CharString>
        <CharString name="Uhornacute">
          67 callgsubr
          84 -21 43 -20 140 69 callsubr
          hintmask 0000101000000000
          847 725 rmoveto
          33 5 -16 31 -31 hhcurveto
          -85 callgsubr
          hintmask 0000010100000000
          -196 142 -97 callsubr
        </CharString>
        <CharString name="Uhorndotbelow">
          750 -200 106 72 30 602 27 -20 30 6 27 -27 30 106 -20 hstemhm
          174 88 -23 88 -65 88 -54 107 217 30 0 30 0 30 hintmask 0000011000000000
          77 callsubr
          hintmask 0000100000000100
          -2 -5 -6 -1 -5 hhcurveto
          hintmask 0110010001010100
          -117 3 -5 -30 rlineto
          27 27 -2 -14 20 hvcurveto
          14 -11 7 -18 -3 -19 -60 -361 rcurveline
          -10 -59 -28 -56 -44 -42 rrcurveto
          -40 -43 -53 -23 -53 hhcurveto
          -47 -42 24 38 -22 hvcurveto
          -24 41 -3 52 11 65 rrcurveto
          hintmask 0001000010000000
          65 389 rlineto
          hintmask 0001100001000000
          2 12 8 13 13 5 rrcurveto
          6 18 39 0 29 hhcurveto
          hintmask 0000010000000000
          5 30 rlineto
          hintmask 0000100000000000
          -148 -3 rlineto
          hintmask 0001010010000000
          -146 3 -5 -30 rlineto
          29 39 0 -6 17 hvcurveto
          10 -5 4 -13 -2 -12 rrcurveto
          hintmask 0110000100001000
          -65 -389 -11 -67 15 -63 41 -47 rlinecurve
          -47 39 60 -26 66 hhcurveto
          61 62 27 46 49 hvcurveto
          51 48 32 63 11 66 64 382 rcurveline
          63 7 60 46 10 62 rrcurveto
          hintmask 1000000000100000
          -444 -872 -99 callsubr
        </CharString>
        <CharString name="Uhorngrave">
          67 callgsubr
          84 -21 43 -20 140 69 callsubr
          hintmask 0000101000000000
          847 725 rmoveto
          33 5 -16 31 -31 hhcurveto
          -85 callgsubr
          hintmask 0000010100000000
          -252 42 -62 callgsubr
        </CharString>
        <CharString name="Uhornhookabove">
          67 callgsubr
          96 -21 31 -20 198 69 callsubr
          hintmask 0000101000000000
          847 725 rmoveto
          33 5 -16 31 -31 hhcurveto
          -85 callgsubr
          hintmask 0000010100000000
          -202 175 -103 callgsubr
          5 126 callsubr
          4 -66 callsubr
        </CharString>
        <CharString name="Uhorntilde">
          67 callgsubr
          53 45 3 45 -40 69 callsubr
          hintmask 0000000100000000
          68 callgsubr
          hintmask 0000110000000000
          -85 callgsubr
          hintmask 0000011000000000
          -146 89 -93 callgsubr
        </CharString>
        <CharString name="Uhungarumlaut">
          15 callsubr
          84 -21 186 -94 callgsubr
          -274 246 -73 callsubr
        </CharString>
        <CharString name="Umacron">
          15 callsubr
          73 31 69 callgsubr
          hintmask 11101100
          -106 callsubr
          hintmask 00010000
          -120 104 -44 callsubr
        </CharString>
        <CharString name="Uogonek">
          750 574 31 0 47 0 31 hstemhm
          237 89 -64 89 327 31 cntrmask 11100000
          hintmask 11101100
          825 32 callsubr
          -119 -3 -118 62 callsubr
          103 -8 -47 -27 -5 hvcurveto
          -57 -347 rlineto
          -142 -24 -110 -80 -95 hhcurveto
          -47 -114 25 190 31 hvcurveto
          hintmask 11110000
          -90 callsubr
          -21 -125 75 -100 112 -21 rlinecurve
          -37 -29 -31 -38 -6 -36 137 callsubr
          -59 callsubr
          hintmask 11101100
          3 20 13 18 17 16 7 7 8 6 8 6 rrcurveto
          10 hlineto
          115 106 93 114 36 hvcurveto
          6 20 2 9 6 40 54 320 rcurveline
          33 5 8 45 103 hhcurveto
          endchar
        </CharString>
        <CharString name="Upsilon">
          778 0 31 520 77 0 77 hstemhm
          216 89 52 89 -43 89 hintmask 00110100
          813 552 rmoveto
          60 10 -24 93 -91 hhcurveto
          -104 -89 -91 -152 -49 hvcurveto
          -1 hlineto
          43 -1 200 -159 -91 -56 -93 -60 -10 vhcurveto
          -8 -1 -2 -9 16 hhcurveto
          14 2 8 5 1 hvcurveto
          80 22 86 0 5 hhcurveto
          138 -13 -197 -80 -13 hvcurveto
          hintmask 10011000
          -46 -272 rlineto
          -34 -5 -3 -14 -95 hhcurveto
          -33 177 callsubr
          3 37 95 0 41 hhcurveto
          41 96 0 -3 35 hvcurveto
          -71 callsubr
          -33 hlineto
          -95 2 13 35 6 hvcurveto
          hintmask 00100100
          46 272 rlineto
          95 15 57 182 132 hhcurveto
          hintmask 01000000
          31 58 -15 -62 -3 hvcurveto
          -9 -1 0 -7 13 hhcurveto
          16 2 9 8 1 hvcurveto
          endchar
        </CharString>
        <CharString name="Uring">
          15 callsubr
          33 30 116 30 -94 callsubr
          -230 152 -50 callsubr
        </CharString>
        <CharString name="Utilde">
          15 callsubr
          53 45 3 45 -94 callsubr
          128 callsubr
          -93 callgsubr
        </CharString>
        <CharString name="V">
          750 -1 -21 674 31 hstemhm
          128 711 -706 711 hintmask 01010000
          839 652 42 callgsubr
          -31 -41 -1 -26 hhcurveto
          -113 3 -5 -31 52 -1 16 -26 -4 -23 rlinecurve
          -1 -8 -4 -6 -3 -6 -263 -482 rcurveline
          -107 505 rlineto
          -4 14 1 4 0 vvcurveto
          29 5 57 0 25 110 callgsubr
          -69 0 -38 hhcurveto
          -126 3 rlineto
          hintmask 11100000
          -85 callsubr
          65 19 0 -38 7 hvcurveto
          130 -614 rlineto
          -19 4 4 -3 13 hhcurveto
          17 3 5 14 7 hvcurveto
          322 588 20 37 32 29 68 1 rlinecurve
          endchar
        </CharString>
        <CharString name="W">
          89 callgsubr
          hstemhm
          127 991 -986 991 hintmask 01010100
          1118 652 42 callgsubr
          -30 -32 -1 -30 hhcurveto
          -118 3 -5 -31 67 -1 14 -33 -3 -19 rlinecurve
          -1 -6 -4 -8 -3 -6 -227 -462 rcurveline
          -79 490 rlineto
          4 -1 6 1 5 vhcurveto
          30 5 58 0 26 110 callgsubr
          -68 0 -38 hhcurveto
          -121 62 callsubr
          hintmask 00110100
          57 21 0 -36 6 hvcurveto
          10 -70 -210 -429 -79 492 -1 3 0 7 1 3 rlinecurve
          30 5 58 0 26 110 callgsubr
          -68 0 -38 hhcurveto
          -121 3 rlineto
          hintmask 11011000
          -85 callsubr
          75 3 -5 -37 6 hvcurveto
          97 -613 rlineto
          -9 2 1 -10 13 hhcurveto
          14 3 7 13 7 hvcurveto
          249 508 81 -509 rlineto
          -9 2 1 -10 13 hhcurveto
          14 3 7 13 7 hvcurveto
          hintmask 00111000
          289 587 rlineto
          57 27 45 10 39 hhcurveto
          endchar
        </CharString>
        <CharString name="Wacute">
          89 callgsubr
          84 -21 163 -67 callgsubr
          -323 215 -97 callsubr
        </CharString>
        <CharString name="Wcircumflex">
          89 callgsubr
          74 -21 133 -67 callgsubr
          -328 100 -37 callsubr
        </CharString>
        <CharString name="Wdieresis">
          89 callgsubr
          53 95 hstemhm
          127 991 -986 991 -631 97 113 97 hintmask 0101001000000000
          1118 652 42 callgsubr
          -30 -32 -1 -30 hhcurveto
          -118 3 -5 -31 67 -1 14 -33 -3 -19 rlinecurve
          -1 -6 -4 -8 -3 -6 -227 -462 rcurveline
          -79 490 rlineto
          4 -1 6 1 5 vhcurveto
          30 5 58 0 26 110 callgsubr
          -68 0 -38 hhcurveto
          -121 62 callsubr
          hintmask 0011001000000000
          57 21 0 -36 6 hvcurveto
          10 -70 -210 -429 -79 492 -1 3 0 7 1 3 rlinecurve
          30 5 58 0 26 110 callgsubr
          -68 0 -38 hhcurveto
          -121 3 rlineto
          hintmask 1101010000000000
          -85 callsubr
          75 3 -5 -37 6 hvcurveto
          97 -613 rlineto
          -9 2 1 -10 13 hhcurveto
          14 3 7 13 7 hvcurveto
          249 508 81 -509 rlineto
          -9 2 1 -10 13 hhcurveto
          14 3 7 13 7 hvcurveto
          hintmask 0011010000000000
          289 587 rlineto
          57 27 45 10 39 hhcurveto
          hintmask 0000100110000000
          -529 48 callgsubr
        </CharString>
        <CharString name="Wgrave">
          89 callgsubr
          84 -21 163 -67 callgsubr
          -407 115 -62 callgsubr
        </CharString>
        <CharString name="X">
          -33 callgsubr
        </CharString>
        <CharString name="Xi">
          667 0 70 97 -20 140 -21 51 70 51 -20 124 -21 86 70 hstemhm
          70 25 39 25 0 25 -1 25 4 25 309 25 4 25 27 25 29 25 hintmask 0000011010000000
          706 521 rmoveto
          18 156 rlineto
          -556 hlineto
          -34 -156 rlineto
          25 hlineto
          hintmask 1101111101010111
          9 41 7 26 9 11 rrcurveto
          8 7 61 0 9 hhcurveto
          346 hlineto
          11 59 0 -8 5 hvcurveto
          5 -11 -1 -26 -5 -41 rrcurveto
          -29 -354 rmoveto
          -25 hlineto
          -11 -46 -5 -26 -10 -14 rrcurveto
          -11 -8 -52 0 -22 hhcurveto
          -348 hlineto
          -18 -55 0 10 -6 hvcurveto
          -5 13 3 30 5 44 rrcurveto
          -25 hlineto
          -20 -167 rlineto
          566 hlineto
          -45 266 rmoveto
          29 172 rlineto
          -25 hlineto
          -8 -51 rlineto
          -338 hlineto
          8 51 rlineto
          -25 hlineto
          hintmask 0011000000101000
          -29 -172 rlineto
          25 hlineto
          9 51 rlineto
          338 hlineto
          -9 -51 rlineto
          endchar
        </CharString>
        <CharString name="Y">
          56 callsubr
          122 callgsubr
          -53 86 hintmask 01101000
          847 652 42 callgsubr
          -31 -41 -1 -27 hhcurveto
          -114 62 callsubr
          41 13 -19 -20 -4 hvcurveto
          -2 -11 -8 -13 -5 -6 -209 -268 rcurveline
          -132 295 -6 10 1 2 1 5 rlinecurve
          21 3 26 4 45 110 callgsubr
          -73 0 -39 90 callsubr
          18 hlineto
          68 6 -11 -26 12 hvcurveto
          153 -342 rlineto
          hintmask 10010000
          -33 -195 rlineto
          -74 callgsubr
          -23 hlineto
          -77 -1 10 39 6 hvcurveto
          hintmask 01001000
          22 callgsubr
          endchar
        </CharString>
        <CharString name="Yacute">
          56 callsubr
          84 -21 163 -20 -87 callsubr
          -191 215 -97 callsubr
        </CharString>
        <CharString name="Ycircumflex">
          56 callsubr
          74 -21 133 -20 -87 callsubr
          -196 100 -37 callsubr
        </CharString>
        <CharString name="Ydieresis">
          56 callsubr
          53 95 122 callgsubr
          -77 97 -73 86 100 97 hintmask 01010010
          847 652 42 callgsubr
          -31 -41 -1 -27 hhcurveto
          -114 62 callsubr
          41 13 -19 -20 -4 hvcurveto
          -2 -11 -8 -13 -5 -6 -209 -268 rcurveline
          -132 295 -6 10 1 2 1 5 rlinecurve
          21 3 26 4 45 110 callgsubr
          -73 0 -39 90 callsubr
          18 hlineto
          68 6 -11 -26 12 hvcurveto
          153 -342 rlineto
          hintmask 10001000
          -52 callgsubr
          hintmask 00100101
          -397 48 callgsubr
        </CharString>
        <CharString name="Ydotbelow">
          750 99 callgsubr
          hstemhm
          138 86 72 107 -59 86 -53 86 hintmask 00111000
          847 652 42 callgsubr
          -31 -41 -1 -27 hhcurveto
          -114 62 callsubr
          41 13 -19 -20 -4 hvcurveto
          -2 -11 -8 -13 -5 -6 -209 -268 rcurveline
          -132 295 -6 10 1 2 1 5 rlinecurve
          21 3 26 4 45 110 callgsubr
          -73 0 -39 90 callsubr
          18 hlineto
          68 6 -11 -26 12 hvcurveto
          hintmask 00000010
          153 -342 rlineto
          hintmask 01000100
          -33 -195 rlineto
          -74 callgsubr
          -23 hlineto
          -77 -1 10 39 6 hvcurveto
          hintmask 00100010
          22 callgsubr
          hintmask 10001000
          -444 -799 -99 callsubr
        </CharString>
        <CharString name="Ygrave">
          56 callsubr
          84 -21 163 -20 -87 callsubr
          -275 115 -62 callgsubr
        </CharString>
        <CharString name="Yhookabove">
          56 callsubr
          96 -21 209 -20 -87 callsubr
          -225 248 -103 callgsubr
          5 126 callsubr
          4 -66 callsubr
        </CharString>
        <CharString name="Ytilde">
          56 callsubr
          53 45 3 45 -87 callsubr
          -169 162 -93 callgsubr
        </CharString>
        <CharString name="Z">
          156 callgsubr
          hstem
          -66 callgsubr
          endchar
        </CharString>
        <CharString name="Zacute">
          156 callgsubr
          147 callsubr
          hintmask 11000000
          -66 callgsubr
          hintmask 00110000
          44 867 -97 callsubr
        </CharString>
        <CharString name="Zcaron">
          156 callgsubr
          134 callsubr
          hintmask 11000000
          -66 callgsubr
          hintmask 00110000
          56 853 -47 callsubr
        </CharString>
        <CharString name="Zdotaccent">
          156 callgsubr
          75 106 hstemhm
          386 107 hintmask 11000000
          -66 callgsubr
          hintmask 00110000
          -50 811 -99 callsubr
        </CharString>
        <CharString name="Zdotbelow">
          611 129 callsubr
          34 618 31 hstemhm
          227 107 hintmask 01100000
          -66 callgsubr
          hintmask 10010000
          -209 -147 -99 callsubr
        </CharString>
        <CharString name="Zeta">
          156 callgsubr
          hstem
          -66 callgsubr
          endchar
        </CharString>
        <CharString name="a">
          -28 callsubr
          -107 callsubr
          endchar
        </CharString>
        <CharString name="aacute">
          -28 callsubr
          83 -21 188 -20 -107 callsubr
          hintmask 00001100
          128 422 -89 callsubr
        </CharString>
        <CharString name="abreve">
          -28 callsubr
          70 38 134 -30 callgsubr
          endchar
        </CharString>
        <CharString name="abreveacute">
          -28 callsubr
          70 38 317 -30 callgsubr
          -23 141 63 callsubr
          10 -21 186 143 callgsubr
        </CharString>
        <CharString name="abrevedotbelow">
          127 callsubr
          70 207 callsubr
          -51 callsubr
          hintmask 01000110
          -95 -15 -78 -34 -45 hhcurveto
          -49 -35 35 50 8 hvcurveto
          9 55 56 83 166 6 rrcurveto
          159 450 86 callsubr
          -16 -74 -84 callsubr
          82 67 105 19 hvcurveto
          hintmask 10000001
          -237 -837 -99 callsubr
        </CharString>
        <CharString name="abrevegrave">
          -28 callsubr
          70 38 134 -30 callgsubr
          -39 41 rmoveto
          -18 -21 -154 13 callsubr
        </CharString>
        <CharString name="abrevehookabove">
          -28 callsubr
          70 38 343 -30 callgsubr
          -28 142 rmoveto
          3 21 -8 19 -16 116 callgsubr
          -10 11 -13 2 rrcurveto
          11 15 21 7 23 hhcurveto
          15 15 -3 -10 10 hvcurveto
          6 -6 -1 101 callgsubr
          5 28 27 22 44 20 rlinecurve
          19 8 15 16 3 19 rrcurveto
          endchar
        </CharString>
        <CharString name="abrevetilde">
          -28 callsubr
          70 38 174 -18 callgsubr
          159 450 86 callsubr
          -16 -74 -84 callsubr
          82 67 105 19 hvcurveto
          37 118 -15 callgsubr
        </CharString>
        <CharString name="acaron">
          -28 callsubr
          89 -21 176 -20 -107 callsubr
          hintmask 00001100
          159 438 -43 callgsubr
        </CharString>
        <CharString name="acircumflex">
          -28 callsubr
          89 -21 176 -20 -107 callsubr
          hintmask 00001100
          134 290 -54 callsubr
          endchar
        </CharString>
        <CharString name="acircumflexacute">
          -28 callsubr
          89 -21 316 -27 callsubr
          10 274 63 callsubr
          11 -21 185 143 callgsubr
        </CharString>
        <CharString name="acircumflexdotbelow">
          127 callsubr
          89 -21 176 -20 -51 callsubr
          hintmask 01000110
          -95 -15 -78 -34 -45 hhcurveto
          -49 -35 35 50 8 hvcurveto
          9 55 56 83 166 6 rrcurveto
          134 290 -54 callsubr
          hintmask 10000001
          -197 -663 -99 callsubr
        </CharString>
        <CharString name="acircumflexgrave">
          -28 callsubr
          89 -21 133 -27 callsubr
          -7 174 rmoveto
          -17 -21 -155 13 callsubr
        </CharString>
        <CharString name="acircumflexhookabove">
          -28 callsubr
          89 -21 342 -27 callsubr
          101 275 rmoveto
          3 21 -7 19 -17 116 callgsubr
          -9 11 -14 126 callgsubr
          -31 -23 -25 -30 -6 18 callsubr
          27 22 44 20 rlinecurve
          19 8 15 16 3 19 rrcurveto
          endchar
        </CharString>
        <CharString name="acircumflextilde">
          -28 callsubr
          89 -21 173 -18 callgsubr
          134 292 -40 callsubr
        </CharString>
        <CharString name="acute">
          500 531 115 callgsubr
          hstem
          484 662 -89 callsubr
        </CharString>
        <CharString name="acute.cap">
          500 514 157 callgsubr
          hstem
          489 614 -97 callsubr
        </CharString>
        <CharString name="acute.dup">
          500 531 115 callgsubr
          hstem
          484 662 -89 callsubr
        </CharString>
        <CharString name="acute.ts1">
          178 callsubr
          503 663 rmoveto
          19 3 -14 17 -19 hhcurveto
          hintmask 11000000
          -8 -1 -19 -3 -16 -23 -13 -14 rlinecurve
          -105 -111 -6 -6 -9 -7 -1 -6 rlinecurve
          -6 -1 11 -9 5 hhcurveto
          7 25 20 11 14 hvcurveto
          46 34 95 55 5 30 rrcurveto
          endchar
        </CharString>
        <CharString name="adblgrave">
          -28 callsubr
          84 -21 186 -20 -107 callsubr
          hintmask 00001100
          103 283 -97 callgsubr
        </CharString>
        <CharString name="adieresis">
          -28 callsubr
          109 95 hstemhm
          214 97 81 97 -107 callgsubr
          hintmask 00001110
          -45 365 -72 callsubr
        </CharString>
        <CharString name="adotbelow">
          127 callsubr
          -51 callsubr
          hintmask 01000000
          -95 -15 -78 -34 -45 hhcurveto
          -49 -35 35 50 8 hvcurveto
          9 55 56 83 166 6 rrcurveto
          hintmask 10000100
          -78 -387 -99 callsubr
        </CharString>
        <CharString name="ae">
          -48 callsubr
        </CharString>
        <CharString name="ae.dup">
          -48 callsubr
        </CharString>
        <CharString name="aeacute">
          722 -11 22 100 21 0 22 75 21 -19 21 36 93 45 22 110 callsubr
          60 77 154 77 -8 77 -76 77 -70 66 110 57 68 66 hintmask 0100101000000111
          713 119 rmoveto
          10 2 -8 2 -5 hhcurveto
          -9 -2 -4 -16 -7 hvcurveto
          -50 -24 -54 -47 -62 hhcurveto
          -10 -137 0 217 37 hvcurveto
          273 156 callsubr
          111 19 -44 85 -109 hhcurveto
          hintmask 0000011000010000
          -44 -59 -16 -61 -61 hvcurveto
          48 -21 -55 29 -64 hhcurveto
          -80 -79 -46 -67 -11 hvcurveto
          -30 -5 17 -17 26 hhcurveto
          28 21 20 26 5 hvcurveto
          2 12 0 33 -46 1 rrcurveto
          hintmask 1001001001100000
          32 31 49 14 36 hhcurveto
          51 48 -41 -87 -14 hvcurveto
          -8 -48 rlineto
          -162 -130 -62 -96 -16 hvcurveto
          -79 -13 88 -24 67 hhcurveto
          81 69 40 49 32 hvcurveto
          -81 45 77 -8 30 hhcurveto
          113 61 121 callsubr
          hintmask 1000101001001001
          -231 hlineto
          146 34 88 28 36 hhcurveto
          95 -17 -135 -39 -5 hvcurveto
          -309 -120 rmoveto
          -64 -11 -66 -57 -72 hhcurveto
          -47 -34 34 47 7 hvcurveto
          hintmask 0011000000001000
          9 54 55 77 163 6 -4 -24 -3 -20 4 -31 rrcurveto
          hintmask 0100000000010000
          1 -11 -1 -8 -1 -3 rrcurveto
          hintmask 0000000110000000
          235 530 -89 callsubr
        </CharString>
        <CharString name="agrave">
          -28 callsubr
          83 -21 188 -20 -107 callsubr
          hintmask 00001100
          44 288 -54 callgsubr
        </CharString>
        <CharString name="ahookabove">
          -28 callsubr
          73 -21 209 -20 -107 callsubr
          hintmask 00001100
          98 402 -103 callgsubr
          4 -4 5 hhcurveto
          6 5 -66 callsubr
        </CharString>
        <CharString name="amacron">
          -28 callsubr
          141 31 -107 callsubr
          hintmask 00001000
          173 349 -44 callsubr
        </CharString>
        <CharString name="ampersand">
          778 -22 31 289 31 71 31 -22 22 263 22 hstemhm
          156 63 240 25 91 63 0 63 15 25 -25 83 hintmask 0010000010100000
          794 400 rmoveto
          5 31 -98 -3 rlineto
          -11 -83 1 2 -27 hvcurveto
          hintmask 1110111101000000
          -85 callsubr
          46 22 -19 -25 -5 hvcurveto
          -1 -10 -6 -7 -2 -3 -71 -97 -56 -68 -52 -53 -11 15 -86 137 -25 115 64 60 81 76 11 66 rrcurveto
          46 8 -3 83 -71 hhcurveto
          -62 -83 -55 -106 -17 hvcurveto
          -7 -42 -6 -72 20 -89 -107 -97 rcurveline
          -53 -46 -31 -27 -9 -54 rrcurveto
          -87 -14 71 -63 99 hhcurveto
          85 67 43 33 42 hvcurveto
          -60 59 56 -16 48 hhcurveto
          76 73 57 86 16 hvcurveto
          -25 hlineto
          -79 -16 -69 -33 -45 hhcurveto
          -54 -44 51 38 -26 hvcurveto
          55 53 52 68 59 79 50 66 27 35 89 1 rrcurveto
          -335 188 rmoveto
          hintmask 1101101000000000
          -11 -66 -95 -87 -29 -26 -13 80 6 58 5 31 rrcurveto
          84 14 46 32 35 hhcurveto
          60 -18 -106 0 hvcurveto
          -62 -515 rmoveto
          -57 -73 -63 -7 -28 hhcurveto
          -83 -7 97 54 9 hvcurveto
          13 81 40 36 63 52 14 -47 10 -30 33 -62 14 -28 27 -52 31 -37 rrcurveto
          endchar
        </CharString>
        <CharString name="anglearc">
          778 -62 -21 666 -20 hstemhm
          593 40 -34 40 -39 40 hintmask 00010000
          724 20 rmoveto
          2 9 -4 7 -7 3 -129 50 rcurveline
          26 52 18 54 9 55 rrcurveto
          hintmask 00001000
          9 55 0 54 -8 52 145 50 rcurveline
          8 3 7 7 1 9 2 14 -12 10 -14 -5 rrcurveto
          hintmask 11100000
          -144 -50 -12 45 -17 43 -25 38 rlinecurve
          5 -3 -6 3 -6 hhcurveto
          198 callsubr
          -1 -5 1 -4 2 -3 23 -36 16 -39 11 -41 -479 -166 rcurveline
          -9 -3 -6 -7 -1 -9 -2 -9 4 -7 8 -3 423 -166 rcurveline
          -24 -41 -30 -39 -35 -36 -2 -3 -3 -4 -1 -5 rrcurveto
          172 callgsubr
          6 7 3 5 4 hvcurveto
          38 38 32 43 27 45 127 -50 rcurveline
          12 -5 16 10 2 14 rrcurveto
          -125 230 rmoveto
          -9 -50 -16 -50 -23 -47 -375 147 rcurveline
          hintmask 00001000
          424 147 rlineto
          hintmask 00010000
          7 -47 0 -50 -8 -50 rrcurveto
          endchar
        </CharString>
        <CharString name="angleleft">
          389 -228 -21 1000 -20 hstem
          295 -229 rmoveto
          1 10 -5 12 -1 9 -2 11 rcurveline
          -78 361 -11 52 -2 8 -3 9 1 8 rlinecurve
          1 4 2 4 2 4 11 20 rcurveline
          167 304 24 45 27 45 22 45 rlinecurve
          2 2 0 3 1 3 rrcurveto
          11 2 -6 10 -11 204 callsubr
          -15 -3 -11 -27 -7 -15 -198 -360 rcurveline
          -35 -63 -5 -10 -8 -11 -2 -10 rlinecurve
          -2 -9 5 -10 1 -8 91 -422 rcurveline
          -19 3 1 -32 20 hhcurveto
          11 11 10 10 2 hvcurveto
          endchar
        </CharString>
        <CharString name="angleright">
          389 -228 -21 1000 -20 hstem
          320 251 rmoveto
          2 10 -5 10 -2 9 -90 422 rcurveline
          8 -3 -1 41 -20 204 callsubr
          -8 -2 -9 -8 -1 -9 rrcurveto
          -2 vlineto
          -1 -12 5 -12 3 -11 88 -416 rcurveline
          2 -8 4 -10 -1 -9 -1 -4 -2 -4 -2 -4 -11 -20 rcurveline
          -236 -431 -3 -5 -4 -6 -1 -6 rlinecurve
          -11 -2 215 callsubr
          2 hlineto
          13 1 7 12 5 10 12 21 rcurveline
          198 362 35 63 4 10 9 11 2 10 rlinecurve
          endchar
        </CharString>
        <CharString name="aogonek">
          180 callsubr
          -36 callsubr
          endchar
        </CharString>
        <CharString name="aogonekacute">
          180 callsubr
          83 -21 188 -20 -36 callsubr
          hintmask 00001100
          128 422 -89 callsubr
        </CharString>
        <CharString name="aring">
          -28 callsubr
          81 30 116 30 -107 callsubr
          hintmask 00001100
          60 377 -50 callsubr
        </CharString>
        <CharString name="aringacute">
          -28 callsubr
          81 30 116 30 141 30 12 -20 -107 callsubr
          hintmask 00001101
          60 377 -80 callsubr
          45 228 rmoveto
          22 8 -14 20 -22 hhcurveto
          hintmask 00000010
          38 callgsubr
        </CharString>
        <CharString name="asciicircum">
          556 583 -21 123 59 hstem
          92 566 vstem
          658 584 rmoveto
          -256 160 -310 -160 8 -22 291 123 252 -123 rlineto
          endchar
        </CharString>
        <CharString name="asciitilde">
          556 193 209 callgsubr
          603 290 175 callsubr
          -31 hvcurveto
          17 -27 174 callgsubr
          -21 -10 -22 100 callsubr
          28 8 10 23 190 callsubr
        </CharString>
        <CharString name="asciitilde.low">
          556 0 209 callgsubr
          571 97 175 callsubr
          -32 hvcurveto
          17 -26 174 callgsubr
          -22 -10 -21 100 callsubr
          27 8 10 24 190 callsubr
        </CharString>
        <CharString name="asterisk">
          500 340 -21 431 -20 hstemhm
          139 369 -338 369 hintmask 01010000
          508 441 rmoveto
          1 11 -2 8 -16 8 -130 66 rcurveline
          150 66 21 9 5 7 2 12 rlinecurve
          13 2 -9 15 -16 hhcurveto
          -7 -2 0 -19 -29 hvcurveto
          -124 -82 43 170 rlineto
          15 2 -11 10 -13 hhcurveto
          -16 -13 -12 -13 -2 hvcurveto
          -13 -170 -109 90 rlineto
          11 -13 -2 0 -6 hhcurveto
          -16 -13 -15 -13 -2 hvcurveto
          -2 -11 3 -8 15 -8 130 -66 rcurveline
          -150 -66 rlineto
          hintmask 10100000
          -20 -9 -5 -7 -2 -12 rrcurveto
          0 -5 -28 33 vhcurveto
          157 101 -44 -170 rlineto
          -15 -2 11 -10 13 hhcurveto
          16 13 12 13 2 hvcurveto
          14 170 114 -95 rlineto
          -3 4 3 -3 8 hhcurveto
          16 13 15 13 3 hvcurveto
          endchar
        </CharString>
        <CharString name="asterisk.math">
          500 57 -21 430 -20 hstemhm
          92 197 -156 197 -177 197 -117 197 -155 53 hintmask 00000100
          460 158 rmoveto
          4 20 -21 7 -13 7 -36 18 rcurveline
          -25 13 -26 18 -27 9 rrcurveto
          2 vlineto
          31 9 32 18 29 13 42 18 rcurveline
          15 7 23 7 3 20 rrcurveto
          15 3 -11 13 -15 hhcurveto
          -14 -14 -12 -8 -12 hvcurveto
          -120 -79 3 18 6 19 5 18 rlinecurve
          23 91 rlineto
          hintmask 00001000
          2 6 2 6 1 6 rrcurveto
          hintmask 01010000
          11 2 -5 18 -17 hhcurveto
          hintmask 01000010
          -2 hlineto
          -15 -15 -12 -16 -3 hvcurveto
          -9 -56 6 -54 -9 -55 -94 79 rcurveline
          8 -10 -10 12 -14 hhcurveto
          -16 -13 -14 -14 -3 hvcurveto
          hintmask 00001000
          -3 -21 19 -6 14 -7 36 -18 rcurveline
          25 -13 26 -18 27 -9 rrcurveto
          -2 vlineto
          -31 -9 -32 -18 -29 -13 rrcurveto
          hintmask 00010000
          -42 -18 rlineto
          hintmask 00100000
          -16 -7 -21 -6 -4 -21 rrcurveto
          -14 -2 9 -14 16 hhcurveto
          14 14 12 8 12 hvcurveto
          hintmask 00000010
          120 79 rlineto
          hintmask 10000100
          -9 -54 -24 -57 -9 -54 rrcurveto
          -16 -3 11 -12 15 hhcurveto
          2 hlineto
          15 13 16 13 2 hvcurveto
          hintmask 00100000
          1 6 0 6 6 vvcurveto
          7 91 1 18 0 19 3 18 rlinecurve
          94 -79 rlineto
          -8 10 10 -12 14 hhcurveto
          15 15 13 15 2 hvcurveto
          endchar
        </CharString>
        <CharString name="at">
          778 -11 22 117 22 331 -20 83 22 117 22 hstem
          114 25 108 69 191 69 vstem
          777 338 rmoveto
          234 39 -148 133 -161 hhcurveto
          -183 -177 -159 -199 -33 hvcurveto
          -188 -31 109 -170 200 hhcurveto
          52 65 7 15 67 hvcurveto
          27 6 126 35 2 16 rrcurveto
          10 2 -7 0 -16 hhcurveto
          -9 hlineto
          -16 -2 0 -3 -5 hvcurveto
          -40 -92 -97 -24 -94 hhcurveto
          -182 -104 157 179 30 hvcurveto
          191 32 167 145 164 hhcurveto
          137 153 -110 -241 -41 hvcurveto
          -92 -15 -22 -90 -66 hhcurveto
          -35 9 51 15 2 hvcurveto
          40 241 rlineto
          23 4 -1 1 -23 hhcurveto
          -17 hlineto
          -16 -1 1 7 -4 hvcurveto
          63 -36 -50 14 -39 hhcurveto
          -103 -110 -93 -126 -21 hvcurveto
          -126 -21 79 -93 103 hhcurveto
          54 53 29 42 37 hvcurveto
          -52 2 48 -19 38 hhcurveto
          88 32 103 107 17 hvcurveto
          -214 -76 rmoveto
          -3 -18 -1 -4 -17 -21 rrcurveto
          -63 -55 -52 -6 -20 hhcurveto
          -72 -46 86 111 19 hvcurveto
          111 18 74 86 73 hhcurveto
          32 45 -16 -56 27 hvcurveto
          10 -19 -1 -3 -3 -18 rrcurveto
          endchar
        </CharString>
        <CharString name="atilde">
          -28 callsubr
          110 -16 callsubr
          hintmask 00001100
          167 396 -84 callgsubr
        </CharString>
        <CharString name="b">
          556 -11 22 61 42 306 22 210 42 hstem
          205 83 186 83 vstem
          159 callsubr
          -81 99 -114 hhcurveto
          -78 -51 -47 -18 -19 hvcurveto
          53 317 -51 callgsubr
          -99 -596 21 callgsubr
        </CharString>
        <CharString name="backslash">
          500 147 callgsubr
          hstem
          405 -230 rmoveto
          0 0 5 -2 13 vhcurveto
          -184 940 rlineto
          11 -2 -2 11 -14 hhcurveto
          198 callsubr
          0 -1 -5 3 -13 vhcurveto
          183 -940 rlineto
          -11 2 2 -11 14 177 callgsubr
        </CharString>
        <CharString name="baht">
          708 0 31 313 22 286 31 hstem
          392 30 -30 83 -30 30 cntrmask 00011100
          682 183 rmoveto
          14 87 -69 75 -109 12 100 19 79 64 13 74 rrcurveto
          87 14 -78 82 -130 hhcurveto
          -41 187 callsubr
          9 1 -6 6 -8 205 callgsubr
          -5 -30 rlineto
          -295 11 callgsubr
          295 hlineto
          -5 -30 rlineto
          198 callgsubr
          8 9 7 8 1 hvcurveto
          5 30 rlineto
          67 hlineto
          133 105 89 94 16 hvcurveto
          -69 331 rmoveto
          -64 -11 -63 -84 -111 hhcurveto
          -6 hlineto
          48 286 rlineto
          34 hlineto
          97 21 -85 -53 -9 hvcurveto
          -221 -148 rmoveto
          -109 hlineto
          41 246 rlineto
          33 6 3 7 47 hhcurveto
          60 hlineto
          142 -468 rmoveto
          -71 -12 -66 -82 -103 hhcurveto
          -35 hlineto
          52 313 rlineto
          49 hlineto
          99 27 -93 -67 -11 hvcurveto
          -246 -153 rmoveto
          -60 -42 callgsubr
          45 273 rlineto
          109 hlineto
          endchar
        </CharString>
        <CharString name="bar">
          278 147 callgsubr
          hstem
          83 40 116 40 vstem
          123 -217 rmoveto
          156 934 52 callgsubr
          -156 -934 67 callsubr
          endchar
        </CharString>
        <CharString name="bigcircle">
          683 0 40 603 40 hstem
          57 40 603 40 vstem
          -63 callsubr
          endchar
        </CharString>
        <CharString name="blanksymbol">
          556 -11 22 61 42 306 22 -7 22 28 42 21 42 45 22 -5 42 -33 22 hstemhm
          187 83 -65 83 -18 83 121 83 hintmask 0010011010010000
          159 callsubr
          -81 99 -114 hhcurveto
          -78 -51 -47 -18 -19 hvcurveto
          28 171 107 87 3 3 2 4 1 4 rlinecurve
          9 1 -5 6 -9 hhcurveto
          -4 -3 -1 -3 -3 hvcurveto
          -83 -67 rlineto
          hintmask 0000000100100000
          18 104 rlineto
          hintmask 0000000010000000
          -146 -11 rlineto
          hintmask 0001100100100000
          31 callsubr
          7 -7 -49 -9 hvcurveto
          -11 -69 -85 -70 -3 -3 -3 -4 -1 -4 rlinecurve
          -8 -1 6 -7 8 hhcurveto
          4 4 2 2 3 hvcurveto
          hintmask 1110100001001000
          61 50 -81 -485 21 callgsubr
        </CharString>
        <CharString name="braceleft">
          500 -229 -21 487 24 489 -20 hstem
          306 67 vstem
          387 -239 rmoveto
          2 10 -6 0 -10 1 -78 5 -30 45 -3 36 -1 11 0 2 6 35 25 150 rcurveline
          5 30 9 51 10 vvcurveto
          -2 66 -60 26 -37 11 123 34 12 71 5 28 30 180 rcurveline
          12 72 4 22 28 25 21 18 27 24 70 4 6 1 4 4 1 6 rrcurveto
          11 2 -8 0 -12 hhcurveto
          -100 -97 -51 -72 -14 hvcurveto
          -31 -183 -16 -94 -2 -16 -31 -28 rlinecurve
          -16 -14 -32 -27 -63 -4 rrcurveto
          -7 -8 -1 -10 -1 hvcurveto
          -2 -10 6 0 10 -1 42 -3 82 -21 -17 -100 -33 -198 rcurveline
          -10 -58 -5 -34 46 -37 rrcurveto
          -30 38 63 -8 31 hhcurveto
          12 8 0 11 2 hvcurveto
          endchar
        </CharString>
        <CharString name="braceright">
          500 -229 -21 510 -21 511 -20 hstem
          195 67 vstem
          469 250 rmoveto
          1 10 -6 0 -9 1 -43 3 -81 21 16 100 33 198 rcurveline
          10 58 6 34 -46 37 rrcurveto
          29 -38 -63 9 -32 hhcurveto
          -10 -10 0 -11 -2 hvcurveto
          -1 -10 6 0 9 -1 79 -5 29 -45 3 -36 1 -11 0 -2 -6 -35 -25 -150 rcurveline
          -5 -30 -8 -51 -10 vvcurveto
          2 -66 60 -26 37 -11 -124 -34 -12 -71 -4 -28 -31 -180 rcurveline
          -12 -72 -3 -22 -28 -25 -21 -18 -27 -24 -71 -4 -5 -1 -5 -4 -1 -6 rrcurveto
          -11 -2 10 0 10 hhcurveto
          100 98 51 72 14 hvcurveto
          30 183 16 94 3 16 30 28 rlinecurve
          17 14 31 27 64 4 rrcurveto
          7 7 1 10 2 hvcurveto
          endchar
        </CharString>
        <CharString name="bracketleft">
          278 -250 40 920 40 hstem
          213 -250 rmoveto
          7 40 rlineto
          -97 hlineto
          153 920 rlineto
          97 hlineto
          7 40 rlineto
          -137 hlineto
          -167 -1000 rlineto
          endchar
        </CharString>
        <CharString name="bracketright">
          278 -250 40 920 40 hstem
          117 -250 rmoveto
          167 1000 rlineto
          -137 hlineto
          -7 -40 rlineto
          97 hlineto
          -153 -920 rlineto
          -97 hlineto
          -7 -40 rlineto
          endchar
        </CharString>
        <CharString name="breve">
          207 callgsubr
          134 83 callgsubr
          endchar
        </CharString>
        <CharString name="breve.cap">
          500 493 38 134 83 callsubr
          endchar
        </CharString>
        <CharString name="breve.ts1">
          611 522 38 135 -20 hstem
          216 22 366 22 vstem
          626 695 rmoveto
          -22 hlineto
          -92 -15 -112 -43 -82 hhcurveto
          -82 -90 47 88 15 hvcurveto
          -22 hlineto
          -103 -17 88 -70 104 hhcurveto
          95 121 57 116 19 hvcurveto
          endchar
        </CharString>
        <CharString name="brokenbar">
          278 147 callgsubr
          hstemhm
          83 40 22 40 -9 40 23 40 hintmask 01001100
          216 343 rmoveto
          63 374 52 callgsubr
          -63 -374 rlineto
          -9 -1 9 -6 10 hhcurveto
          10 11 6 9 1 hvcurveto
          -93 -560 rmoveto
          hintmask 10110000
          62 374 rlineto
          9 2 -9 6 -10 hhcurveto
          -10 -11 -6 -9 -2 hvcurveto
          -62 -374 67 callsubr
          endchar
        </CharString>
        <CharString name="bullet">
          778 87 288 hstem
          284 288 107 callgsubr
          endchar
        </CharString>
        <CharString name="c">
          76 callgsubr
          197 callgsubr
          -40 92 hintmask 11111000
          -37 callgsubr
          hintmask 01000100
          -2 callsubr
          hintmask 10111000
          68 11 -69 39 -77 hhcurveto
          -125 -110 -108 -124 -21 hvcurveto
          -128 -21 82 -99 116 hhcurveto
          134 52 120 10 2 hvcurveto
          endchar
        </CharString>
        <CharString name="cacute">
          76 callgsubr
          83 -21 188 -41 callgsubr
          43 543 -89 callsubr
        </CharString>
        <CharString name="caron">
          500 154 callsubr
          515 678 -43 callgsubr
        </CharString>
        <CharString name="caron.cap">
          172 callsubr
          133 -20 hstem
          501 600 -47 callsubr
        </CharString>
        <CharString name="caron.ts1">
          611 573 -21 153 -20 hstem
          606 684 rmoveto
          -9 21 -191 -100 -117 75 -40 25 -17 -21 165 -132 rlineto
          endchar
        </CharString>
        <CharString name="ccaron">
          76 callgsubr
          89 -21 176 -41 callgsubr
          74 559 -43 callgsubr
        </CharString>
        <CharString name="ccedilla">
          76 callgsubr
          197 callgsubr
          -40 92 hintmask 11111000
          -37 callgsubr
          hintmask 01000100
          -2 callsubr
          hintmask 00111000
          68 11 -69 39 -77 hhcurveto
          -125 -110 -108 -124 -21 hvcurveto
          -19 -117 66 -92 99 -16 -13 -83 rcurveline
          -3 callsubr
          148 callgsubr
          9 56 118 12 47 108 2 9 rlinecurve
          endchar
        </CharString>
        <CharString name="ccircumflex">
          76 callgsubr
          89 -21 176 -41 callgsubr
          49 411 -54 callsubr
          endchar
        </CharString>
        <CharString name="cdotaccent">
          76 callgsubr
          103 106 hstemhm
          70 83 138 107 -72 83 -40 92 hintmask 11101010
          -31 callsubr
          hintmask 10101010
          68 11 -69 39 -77 hhcurveto
          -125 -110 -108 -124 -21 hvcurveto
          -128 -21 82 -99 116 hhcurveto
          134 52 120 10 2 hvcurveto
          hintmask 00010100
          -37 485 -53 callgsubr
        </CharString>
        <CharString name="cedilla">
          40 callgsubr
        </CharString>
        <CharString name="cedilla.dup">
          40 callgsubr
        </CharString>
        <CharString name="cent">
          76 callgsubr
          hstemhm
          70 83 0 83 -12 30 -27 30 47 30 -28 30 33 92 hintmask 1110000101000000
          105 callgsubr
          -10 0 -3 hhcurveto
          -9 -3 -4 -6 -3 hvcurveto
          -92 -44 -66 -13 -38 hhcurveto
          69 409 19 -1 50 -5 24 -31 rlinecurve
          -2 callsubr
          11 66 -65 38 -73 3 rrcurveto
          hintmask 0000000010000000
          2 13 rlineto
          8 1 -5 7 -9 hhcurveto
          -8 -8 -7 -8 -1 hvcurveto
          hintmask 0001001100000000
          -2 -14 -115 -12 -99 -102 -20 -117 rlinecurve
          -20 -121 72 -95 105 -10 rrcurveto
          hintmask 0000010000000000
          -3 -20 rlineto
          hintmask 0000100000000000
          198 callgsubr
          hintmask 0000010000000000
          9 8 7 8 1 hvcurveto
          hintmask 1001001000000000
          3 19 127 6 49 114 2 10 rlinecurve
          -203 -101 rmoveto
          -49 13 -52 53 22 134 24 141 70 51 52 11 rrcurveto
          endchar
        </CharString>
        <CharString name="cent.oldstyle">
          215 callgsubr
          13 92 175 92 37 25 197 callgsubr
          -77 92 -83 83 -55 92 hintmask 0000001000000000
          105 callgsubr
          -10 0 -3 hhcurveto
          hintmask 1110010000000000
          -9 -3 -4 -6 -3 hvcurveto
          -93 -45 -67 -12 -37 hhcurveto
          -16 -17 4 9 -16 hvcurveto
          150 392 21 -4 26 -10 15 -19 rlinecurve
          hintmask 0010000010000000
          -2 callsubr
          9 54 -43 36 -57 12 5 14 rcurveline
          10 4 -6 9 -9 hhcurveto
          -8 -6 -5 -7 -3 hvcurveto
          hintmask 0000000100000000
          -6 -17 rlineto
          hintmask 1101110000000000
          1 -5 -5 0 -5 hhcurveto
          -125 -110 -108 -124 -21 hvcurveto
          -16 -97 43 -81 74 -33 -13 -32 rcurveline
          -9 -3 5 -9 10 hhcurveto
          7 7 5 7 2 hvcurveto
          12 28 rlineto
          -4 15 17 -2 17 hhcurveto
          134 52 120 10 2 hvcurveto
          -103 304 rmoveto
          -145 -378 -30 29 -19 53 15 91 rlinecurve
          163 28 89 42 53 hhcurveto
          hintmask 0001001000000000
          endchar
        </CharString>
        <CharString name="centigrade">
          944 644 31 -31 40 -31 31 hstem
          cntrmask 11100000
          927 234 rmoveto
          11 2 -2 7 -9 hhcurveto
          -19 -1 -39 -20 -8 hvcurveto
          -101 -38 -103 -82 -109 hhcurveto
          -71 -61 33 53 -38 hvcurveto
          -46 65 -2 89 14 85 11 68 19 71 41 61 rrcurveto
          80 55 96 60 91 hhcurveto
          124 61 -118 -108 -5 hvcurveto
          -11 1 -9 -18 21 hhcurveto
          14 3 6 10 2 hvcurveto
          42 254 rlineto
          7 1 1 9 -11 hhcurveto
          -15 -60 -79 -7 -5 hvcurveto
          -10 10 -9 13 -10 10 rrcurveto
          34 -36 -50 19 -54 hhcurveto
          -185 -192 -158 -205 -34 hvcurveto
          -190 -31 119 -174 201 hhcurveto
          135 130 103 138 36 hvcurveto
          2 5 0 4 1 5 rrcurveto
          -609 340 rmoveto
          59 10 -39 51 -66 hhcurveto
          -9 hlineto
          -59 -7 -49 -46 -9 -58 rrcurveto
          -60 -10 35 -51 68 hhcurveto
          9 hlineto
          59 7 50 47 10 58 rrcurveto
          -40 -1 rmoveto
          -38 -7 -37 -33 -39 hhcurveto
          -35 -25 26 38 -1 hvcurveto
          2 7 rlineto
          37 6 37 34 38 hhcurveto
          36 25 -26 -38 1 hvcurveto
          endchar
        </CharString>
        <CharString name="circumflex">
          500 154 callsubr
          490 530 -54 callsubr
          endchar
        </CharString>
        <CharString name="circumflex.cap">
          172 callsubr
          133 -20 hstem
          484 499 -37 callsubr
        </CharString>
        <CharString name="circumflex.dup">
          500 154 callsubr
          490 530 -54 callsubr
          endchar
        </CharString>
        <CharString name="colon">
          278 0 106 219 106 hstemhm
          95 106 -52 106 hintmask 11010000
          255 378 -8 callgsubr
          -54 -325 rmoveto
          29 5 161 callsubr
          hintmask 10100000
          150 callsubr
        </CharString>
        <CharString name="colonmonetary">
          122 callsubr
          216 callgsubr
          161 30 -29 30 -24 30 80 30 -23 30 hintmask 11000110
          704 233 rmoveto
          10 2 1 7 -13 hhcurveto
          -11 -1 -6 -10 -3 hvcurveto
          -143 -32 -120 -82 -109 hhcurveto
          -4 hlineto
          110 665 rlineto
          3 hlineto
          109 74 -91 -146 -4 hvcurveto
          -14 -1 -3 14 16 1 3 21 3 vhcurveto
          40 237 91 callgsubr
          -4 -4 0 -12 -10 hvcurveto
          -63 -74 -30 35 -41 48 -90 3 rlinecurve
          hintmask 00101001
          1 8 rlineto
          9 1 -5 6 -9 205 callgsubr
          -2 -9 -178 -11 -175 -155 -33 -196 rlinecurve
          -33 -199 124 -153 174 -11 rrcurveto
          hintmask 00010000
          -1 -9 rlineto
          198 callgsubr
          9 8 7 8 1 hvcurveto
          hintmask 10101010
          1 8 159 5 118 136 19 114 rlinecurve
          -320 -221 rmoveto
          -77 12 -134 62 43 255 43 257 154 61 81 12 rrcurveto
          hintmask 00000100
          endchar
        </CharString>
        <CharString name="comma">
          278 -172 -21 193 106 hstem
          181 22 vstem
          203 1 rmoveto
          64 11 -17 41 -40 hhcurveto
          -35 -23 72 callgsubr
          -4 12 -27 36 hhcurveto
          15 15 6 10 13 hvcurveto
          -12 -79 -38 -61 -52 -47 rrcurveto
          -7 -6 -1 -1 -4 vvcurveto
          -7 -2 178 callgsubr
          12 92 79 115 19 hvcurveto
          endchar
        </CharString>
        <CharString name="copyleft">
          683 0 40 455 40 108 40 hstem
          57 40 153 40 410 40 vstem
          -63 callsubr
          -114 hmoveto
          112 19 -74 88 -103 hhcurveto
          -53 -32 -28 -19 -24 hvcurveto
          -21 40 rlineto
          7 -4 -2 0 -2 hhcurveto
          -6 0 -4 -9 -2 hvcurveto
          -22 -131 rlineto
          -11 -1 -1 -2 9 hhcurveto
          7 1 2 7 2 hvcurveto
          81 25 58 50 60 hhcurveto
          33 104 -19 -165 -27 hvcurveto
          -164 -27 -112 -19 -34 hhcurveto
          -60 -51 46 78 9 hvcurveto
          6 1 3 -6 -7 -1 -4 -5 -1 vhcurveto
          -64 -11 42 -77 90 hhcurveto
          102 103 87 114 19 hvcurveto
          endchar
        </CharString>
        <CharString name="copyright">
          683 0 40 455 40 108 40 hstem
          57 40 603 40 vstem
          -63 callsubr
          -164 -60 rmoveto
          5 1 1 4 -7 hhcurveto
          -6 -1 -3 -6 -1 hvcurveto
          -78 -18 -66 -45 -60 hhcurveto
          -33 -105 18 164 27 hvcurveto
          165 27 111 19 34 hhcurveto
          60 40 -50 -81 -2 hvcurveto
          -7 -1 -2 8 8 1 2 11 1 vhcurveto
          22 131 rlineto
          9 2 0 4 -6 hhcurveto
          -2 -2 0 -7 -5 hvcurveto
          -34 -40 rlineto
          19 -17 -25 28 -52 hhcurveto
          -103 -103 -88 -112 -19 hvcurveto
          -114 -19 75 -87 103 hhcurveto
          89 66 77 64 11 hvcurveto
          endchar
        </CharString>
        <CharString name="copyright.alt">
          659 -114 40 579 40 hstem
          36 40 579 40 vstem
          695 215 rmoveto
          202 34 -106 128 -203 hhcurveto
          -202 -148 -128 -202 -34 hvcurveto
          -202 -34 106 -127 202 hhcurveto
          203 148 127 202 34 hvcurveto
          -40 hmoveto
          -177 -30 -130 -112 -178 hhcurveto
          -177 -94 112 177 30 hvcurveto
          178 30 130 112 177 hhcurveto
          178 94 -112 -178 -30 hvcurveto
          -122 -68 rmoveto
          6 1 0 5 -8 hhcurveto
          -7 0 -4 -7 -2 hvcurveto
          -90 -20 -76 -51 -69 hhcurveto
          -38 -120 21 188 31 hvcurveto
          188 31 127 22 39 hhcurveto
          68 46 -58 -92 -2 hvcurveto
          -8 -1 -2 9 10 1 2 13 2 vhcurveto
          25 149 rlineto
          11 1 1 4 -7 hhcurveto
          -2 -3 0 -7 -6 hvcurveto
          -39 -47 rlineto
          23 -20 -27 31 -60 hhcurveto
          -118 -119 -100 -129 -21 hvcurveto
          -130 -22 86 -99 118 hhcurveto
          102 76 88 73 13 hvcurveto
          endchar
        </CharString>
        <CharString name="currency">
          778 54 40 312 40 0 40 hstemhm
          195 40 0 40 287 40 -16 40 39 40 hintmask 00000100
          627 15 rmoveto
          16 14 -11 13 -8 10 -62 75 rcurveline
          hintmask 00000010
          33 33 23 43 8 47 rrcurveto
          hintmask 10110101
          8 47 -9 43 -23 34 87 74 rcurveline
          11 10 17 13 -12 14 -13 14 -15 -13 -12 -10 -86 -74 rcurveline
          27 -29 -40 17 -47 hhcurveto
          -47 -45 -17 -27 -38 hvcurveto
          -62 75 -9 10 -11 13 -17 -14 rlinecurve
          -16 -14 11 -14 9 -10 61 -74 rcurveline
          -32 -34 -24 -43 -8 -47 -8 -47 10 -43 21 -33 -86 -75 rcurveline
          -12 -10 -16 -13 12 -14 12 -14 15 13 12 10 86 74 rcurveline
          -27 30 40 -17 47 hhcurveto
          47 46 17 27 37 hvcurveto
          63 -74 8 -10 11 -13 17 14 rlinecurve
          -41 235 rmoveto
          -86 -15 -80 -70 -86 hhcurveto
          hintmask 01001010
          -86 -59 70 86 15 hvcurveto
          86 14 82 70 86 hhcurveto
          86 57 -70 -86 -14 hvcurveto
          endchar
        </CharString>
        <CharString name="cwm">
          0 endchar
        </CharString>
        <CharString name="cwmascender">
          0 endchar
        </CharString>
        <CharString name="cwmcapital">
          0 endchar
        </CharString>
        <CharString name="d">
          556 -11 114 callgsubr
          178 83 68 83 hintmask 0110010010000000
          70 callsubr
          hintmask 1001101110000000
          -9 callsubr
          hintmask 0100000000000000
          89 callsubr
          hintmask 1011001100000000
          -25 callgsubr
          endchar
        </CharString>
        <CharString name="dagger">
          444 -195 -21 613 67 241 -20 hstemhm
          170 67 -13 67 -54 67 -5 67 hintmask 01000100
          459 430 151 callgsubr
          5 20 5 28 22 65 rrcurveto
          hintmask 01110010
          11 37 13 37 6 37 rrcurveto
          8 1 6 33 -33 hhcurveto
          -34 -6 -32 -9 -1 hvcurveto
          -6 -35 -1 -58 -24 vvcurveto
          -46 -3 -32 -4 -29 vhcurveto
          -10 1 -20 135 callgsubr
          31 8 6 22 hvcurveto
          3 1 26 7 20 2 -6 -25 -6 -20 -9 -25 rrcurveto
          hintmask 11001010
          -26 -72 -2 -8 -9 -53 -25 -151 -17 -168 -7 -95 rrcurveto
          -14 -1 0 -6 11 hhcurveto
          12 1 5 13 4 hvcurveto
          14 50 12 53 11 51 14 63 22 103 16 96 9 54 2 7 -3 71 -1 23 1 21 2 27 11 -1 19 -4 19 -5 rrcurveto
          -6 18 27 -8 21 hhcurveto
          35 7 28 5 1 hvcurveto
          endchar
        </CharString>
        <CharString name="daggerdbl">
          444 -184 -21 194 66 389 67 194 -20 hstem
          223 67 0 67 0 67 cntrmask 00001110
          467 477 151 callgsubr
          6 30 13 34 5 14 12 33 13 40 5 28 rrcurveto
          7 1 6 32 -34 hhcurveto
          -10 -24 -3 -36 -6 hvcurveto
          -3 -20 -1 -29 1 -35 rrcurveto
          -41 1 -28 -4 -26 vhcurveto
          -11 1 -19 135 callgsubr
          30 8 6 22 hvcurveto
          4 1 26 7 20 2 -6 -30 -13 -34 -5 -14 -11 -33 -14 -40 -5 -28 183 callgsubr
          4 20 0 29 -1 35 rrcurveto
          41 0 28 3 26 vhcurveto
          11 -1 19 -4 18 -5 rrcurveto
          -6 18 28 -8 21 hhcurveto
          35 7 28 5 1 hvcurveto
          -76 -455 rmoveto
          17 3 -10 16 -21 hhcurveto
          -20 -17 -3 -8 -33 hvcurveto
          -27 -8 -7 -2 -23 -2 7 28 8 24 14 42 20 56 4 23 1 5 rrcurveto
          35 6 -21 4 -11 hhcurveto
          -30 -9 -25 -14 -2 hvcurveto
          -5 -29 1 -43 -34 vvcurveto
          2 -11 -1 -31 -3 -30 -22 2 -3 1 -38 11 rrcurveto
          9 -31 -17 0 -7 hhcurveto
          -25 -12 -20 -13 -2 hvcurveto
          -15 -3 7 -18 24 hhcurveto
          24 25 6 4 12 hvcurveto
          41 10 7 1 17 2 -7 -28 -8 -24 -14 -42 -20 -56 -4 -23 -1 -5 183 callgsubr
          5 29 -1 43 34 vvcurveto
          -1 11 0 31 3 30 23 -2 3 -1 38 -11 rrcurveto
          -9 31 18 0 5 hhcurveto
          24 13 18 15 3 hvcurveto
          endchar
        </CharString>
        <CharString name="dblbracketleft">
          403 -249 40 920 40 hstem
          207 40 114 40 vstem
          338 -249 rmoveto
          7 40 rlineto
          -98 hlineto
          154 920 rlineto
          98 hlineto
          6 40 rlineto
          -262 hlineto
          -167 -1000 rlineto
          131 185 callsubr
        </CharString>
        <CharString name="dblbracketright">
          403 -249 40 920 40 hstem
          85 40 114 40 vstem
          242 -249 rmoveto
          167 1000 rlineto
          -261 hlineto
          -6 -40 rlineto
          97 hlineto
          -154 -920 rlineto
          -97 hlineto
          -7 -40 rlineto
          228 185 callsubr
        </CharString>
        <CharString name="dblgrave.ts1">
          500 536 -21 185 -20 hstem
          293 525 rmoveto
          74 callgsubr
          166 hmoveto
          74 callgsubr
          endchar
        </CharString>
        <CharString name="dblverticalbar">
          398 147 callgsubr
          hstemhm
          83 40 80 40 -4 40 80 40 hintmask 11101100
          123 -217 rmoveto
          156 934 52 callgsubr
          -156 -934 67 callsubr
          120 hmoveto
          156 934 52 callgsubr
          hintmask 10010000
          -156 -934 67 callsubr
          endchar
        </CharString>
        <CharString name="dcaron">
          204 callgsubr
          49 -21 145 79 -42 31 -31 42 hstemhm
          70 83 178 83 68 83 hintmask 0110000100100000
          70 callsubr
          hintmask 1001001011100000
          -9 callsubr
          hintmask 0100000000000000
          89 callsubr
          hintmask 1011000111000000
          -25 callgsubr
          243 292 rmoveto
          48 8 -13 31 -30 hhcurveto
          -26 -18 -20 -20 -3 hvcurveto
          hintmask 0000110000000000
          75 callgsubr
        </CharString>
</ttFont>
